<?xml version="1.0" encoding="UTF-8"?>
<svg id="Capa_2" data-name="Capa 2" xmlns="http://www.w3.org/2000/svg" viewBox="0 0 121.93 82.75">
  <defs>
    <style>
      .cls-1 {
        stroke: #000;
        stroke-miterlimit: 10;
        stroke-width: .25px;
      }

      .cls-1, .cls-2 {
        fill: #141133;
      }

      .cls-3 {
        fill: #f99d3d;
      }
    </style>
  </defs>
  <g id="Capa_1-2" data-name="Capa 1">
    <g>
      <path class="cls-3" d="M111.13,52.77c-14.27,12.14-36.36,7.47-45.13-8.83-3.88-7.22-4.41-15.46-2.13-23.27,4.75-1.6,7.73-6.39,6.93-11.39,4.62-4.97,11.28-8.21,18.05-8.93.76-.08,1.65,0,2.34-.09.19-.02.09-.19.28-.21,2.3-.29,7.02.63,9.3,1.32,22.83,6.93,28.57,35.9,10.35,51.39ZM81.44,15.97c-11.04,9.24-8.1,26.57,5.76,30.74,15.15,4.56,28.04-11.61,20.38-25.44-5.02-9.07-17.99-12.11-26.14-5.29Z"/>
      <path class="cls-3" d="M35.01,36.19c-1.69-.17-3.55-1.45-4.41-2.89-2.36-3.94.35-8.62,4.7-9.19,5.98.31,12.37-.4,18.31,0,3.19.22,5.06,2.03,5.67,5.14.42,2.15-.02,5.06-.49,7.25-4.55,21.04-29.23,30.46-46.69,17.65C-1.25,44.35-4.01,25.33,6.11,12.15,13.65,2.32,24.36-.35,36.38.35c4.18.24,6.89,3.74,5.81,7.87-1.48,5.66-7.84,4.14-12.25,4.3-6.54.24-11.73,2.84-15.18,8.48-8.01,13.11,3.38,29.15,18.36,26.45,5.86-1.06,11.24-5.61,13.12-11.27h-11.24Z"/>
      <path class="cls-2" d="M59.67,3.59c5.59-.63,9.98,4.37,8.17,9.83-1.96,5.92-10.38,6.92-13.58,1.47-2.64-4.49.14-10.7,5.41-11.3Z"/>
      <path class="cls-2" d="M99.34,37.43c-.26-.26.14-2.34.17-2.85.16-2.94-.06-7.58-2.39-9.68-4.82-4.36-12.24-.83-11.82,5.69.04.71.26,1.51.29,2.24.02.42.13,1.75-.37,1.89-.92.25-.57-1.62-.61-2.18-.06-.69-.26-1.45-.3-2.14-.51-9.67,13.91-11.98,15.83-1.32.37,2.04.57,6.03.02,8.01-.11.39-.52.65-.83.34Z"/>
      <path class="cls-2" d="M91.9,18.3c3.77-.12,8.13,2.1,10.09,5.33.73,1.2,1.9,4.05,1.9,5.41,0,.45-.57.76-.86.26s-.37-1.8-.57-2.45c-3.05-9.74-16.84-10.17-20.25-.63-.15.42-.46,1.98-.65,2.17-.23.24-.67.09-.73-.25-.1-.51.38-1.9.58-2.43,1.63-4.31,5.89-7.27,10.5-7.42Z"/>
      <path class="cls-2" d="M91.9,16.45c.4,0,1.92.05,2.19.19.3.16.34.64.07.81-.23.14-2.17-.08-2.68-.05-6.53.32-11.86,6.11-11.83,12.61,0,1.38.67,3.01.35,4.33-.12.48-.89,2.17-1.51,1.9-.76-.34.21-1.19.4-1.64.12-.28.24-.69.27-.99.08-.84-.34-1.9-.39-2.82-.46-7.54,5.54-14.21,13.13-14.34Z"/>
      <path class="cls-2" d="M90.19,44.92s-.09-.16-.09-.23c-.01-.36.93-1.48,1.18-1.9,2.14-3.48,3.13-8.24,2.46-12.28-.19-1.14-.53-2.32-2.02-1.88-1.4.42-.65,2.25-.58,3.22.08,1.15.06,3.05-.22,4.16-.11.42-.31.93-.85.61-.33-.2.06-1.46.1-1.85.06-.64.12-1.3.1-1.95-.05-1.67-1.06-3.57.59-4.76.75-.54,1.61-.6,2.43-.21,1.11.53,1.3,1.63,1.44,2.74.55,4.22-.46,9.29-2.77,12.88-.29.46-1.14,2.05-1.77,1.44Z"/>
      <path class="cls-2" d="M95.74,17.85c-.34-.41,0-.84.58-.73,1.52.3,4.66,2.38,5.72,3.53,3.68,3.98,4.56,10.97,3.79,16.16-.1.66-.9.57-.97.1-.06-.39.18-1.37.2-1.84.23-6.13-.69-12.56-6.46-15.84-.51-.29-2.67-1.15-2.86-1.37Z"/>
      <path class="cls-2" d="M82.89,42c-.06-.06-.12-.23-.11-.32.02-.33,1.36-1.58,1.69-2,1.65-2.18,2.19-4.82,2-7.54-.04-.59-.25-1.26-.29-1.85-.19-3.17,2.12-5.91,5.24-6.34.38-.05,1.14-.14,1.48.02.23.11.29.66.1.79-.08.05-1.47.12-1.76.18-2.17.43-3.92,2.36-4.09,4.58-.08,1,.23,1.86.29,2.83.23,3.24-.76,6.43-2.97,8.81-.31.34-1.11,1.32-1.58.85Z"/>
      <path class="cls-2" d="M94.81,24.61c.22-.06.34.05.52.13,1.82.8,2.72,2.95,3,4.79.77,4.97-.14,9.83-2.31,14.32-.16.32-.44,1.01-.84,1.01-.99,0-.03-1.29.12-1.64.86-1.98,1.65-4.02,2.02-6.15.45-2.63.74-8.44-1.18-10.51-.35-.37-1.78-1.17-1.68-1.6.02-.1.25-.32.35-.35Z"/>
      <path class="cls-2" d="M91.6,14.6c1.68-.07,3.55.22,5.16.72.37.12,2.09.75,2.26.95s.14.57-.1.68c-.47.23-1.16-.28-1.6-.44-5.4-1.91-11.12-.9-15.24,3.16-.46.45-1.13,1.53-1.56,1.85-.39.3-.9-.05-.73-.53s1.7-2.04,2.14-2.44c2.63-2.39,6.1-3.81,9.67-3.96Z"/>
      <path class="cls-2" d="M99.48,23.93c.12-.03.23-.04.35,0,.11.03,1.05,1.36,1.16,1.57,2.1,3.84,1.47,13-.33,16.94-.32.69-.98.61-.96-.07.02-.55.68-2.07.85-2.76.98-3.77,1.3-9.7-.25-13.33-.2-.46-1.13-1.79-1.07-2.11.02-.1.14-.21.24-.24Z"/>
      <path class="cls-2" d="M86.73,22.38c.06.06.12.24.12.33,0,.36-1.11,1.24-1.41,1.6-.78.92-1.46,2.24-1.75,3.41-1,3.98,1.52,6.94-1.8,10.76-.29.33-1.46,1.68-1.73.76-.15-.5.69-1.02,1.01-1.39,1.39-1.65,1.75-3.15,1.61-5.31-.04-.62-.26-1.31-.29-1.94-.16-2.6.69-5.1,2.38-7.06.31-.36,1.39-1.63,1.88-1.14Z"/>
      <path class="cls-2" d="M92.08,29.48c.74-.2.88,1.78.91,2.27.26,3.97-1.04,9.47-3.85,12.42-.24.25-.46.59-.86.47-.8-.24.58-1.6.83-1.96,1.95-2.87,3.18-6.64,3-10.15-.03-.6-.44-2.46-.24-2.87.04-.08.13-.16.22-.18Z"/>
      <path class="cls-2" d="M96.66,33.43c-.16.19-.76.19-.83-.14-.26-1.86.11-4.51-1.48-5.82-1.47-1.22-3.56-.98-4.73.53-.37.48-.55,1.67-1.06,1.66-.87-.02-.19-1.42.02-1.82,1.42-2.6,5.22-2.78,7.02-.47.82,1.05,1.13,3.72,1.17,5.06,0,.23.02.84-.12,1Z"/>
      <path class="cls-2" d="M100.55,17.31c.59-.15,2.71,1.97,3.15,2.47,2.51,2.85,3.59,6.38,3.9,10.13.05.34-.25.8-.62.72-.54-.13-.32-1.15-.37-1.58-.65-5.02-2.2-7.62-6.02-10.73-.34-.28-.67-.84-.04-1Z"/>
      <path class="cls-2" d="M89.08,31.14c.05.03.19.86.21,1.01.29,3.68-.98,7.47-3.41,10.22-.27.31-1.39,1.47-1.54.47-.06-.43.82-1.05,1.1-1.39,1.9-2.26,2.99-5.35,2.97-8.33,0-.52-.23-1.31-.11-1.83.03-.14.66-.22.77-.15Z"/>
      <path class="cls-2" d="M77.09,31.44c-.61-1.4.15-5.14.71-6.7.19-.53.67-2.19,1.39-1.98.66.2-.32,1.83-.49,2.3-.94,2.64-1.06,4.66-.52,7.39.1.5.53,1.85-.51,1.48-.28-.1-.48-1.45-.54-1.8-.04-.23.04-.5-.04-.69Z"/>
      <path class="cls-2" d="M91.02,20.25c2.21-.22,4.29.21,6.18,1.35.36.22,1.95,1.16.95,1.5-.5.17-1.17-.55-1.63-.81-1.93-1.1-4-1.42-6.18-.96-.44.09-1.93.7-2.15.64-.27-.07-.32-.48-.25-.7.12-.35,2.61-.96,3.08-1.01Z"/>
      <path class="cls-2" d="M95.98,35.03c1.08-.33.39,2.18.27,2.71-.34,1.55-1.07,3.64-1.75,5.07-.15.33-1.29,2.26-1.48,2.32-.23.07-.52,0-.59-.25-.15-.49.75-1.57,1.01-2.07.65-1.27,1.33-3.06,1.69-4.44.23-.87.33-2.29.59-3.01.06-.15.09-.27.26-.33Z"/>
      <path class="cls-2" d="M103.33,31.05c.58-.59.82.48.86.9.11,1.41-.04,3.35-.21,4.76-.09.73-.47,3.27-.78,3.8-.27.47-.87.34-.87-.28s.45-1.95.56-2.66c.14-.84.28-1.85.32-2.69.03-.61-.13-3.58.12-3.83Z"/>
      <path class="cls-2" d="M80.89,29.97c.46-.14.6.03.69.44.47,2.27.6,4.74-.91,6.64-.25.32-1.2,1.39-1.55.69-.24-.49.56-.98.83-1.32,1.77-2.25.66-3.51.68-5.84,0-.25,0-.53.27-.61Z"/>
      <path class="cls-2" d="M86.2,43.85c-.41-.5.72-1.36,1.04-1.77.63-.83,1.24-1.76,1.68-2.71.19-.41.3-1.56,1.05-1.19.46.23.03.75-.05,1.02-.39,1.28-1.15,2.5-2,3.55-.33.41-1.22,1.7-1.72,1.09Z"/>
      <path class="cls-2" d="M84.39,36.2c.28-.08.7.12.71.42s-.73,1.57-.93,1.89c-.34.53-1.76,2.37-2.34,2.42-.3.03-.57-.32-.45-.63.13-.32,1.37-1.41,1.72-1.89.21-.29.42-.65.59-.96s.43-1.17.7-1.25Z"/>
      <path class="cls-2" d="M99.1,38.93c.96-.18.24,1.59.09,2.05-.35,1.05-.86,2.24-1.4,3.18-1.37.06-.21-1.52.04-2.2s.59-2.24.92-2.78c.08-.14.19-.22.35-.25Z"/>
    </g>
    <g>
      <path class="cls-1" d="M4.85,82.63h-.35v-11.58h.35v11.58Z"/>
      <path class="cls-1" d="M7.87,71.04h8c3.43,0,5.45.58,6.5,1.4,1.21.94,1.88,2.38,1.88,4.41,0,2.23-.72,3.63-1.86,4.5-1.23.94-2.96,1.28-6.07,1.28H7.87v-11.58ZM8.23,82.25h8.1c3.05,0,4.72-.29,5.88-1.21,1.05-.83,1.7-2.1,1.7-4.19,0-1.93-.57-3.22-1.71-4.11-1-.78-2.92-1.33-6.31-1.33h-7.65v10.83Z"/>
      <path class="cls-1" d="M27.34,76.83v5.42h14.69v.37h-15.04v-11.58h14.9v.37h-14.55v5.04h14.02v.37h-14.02Z"/>
      <path class="cls-1" d="M45.41,82.63h-.35v-11.58h.35l15.32,11.12h.01v-11.12h.35v11.58h-.35l-15.32-11.12h-.02v11.12Z"/>
      <path class="cls-1" d="M63.4,71.42v-.37h15.85v.37h-7.75v11.21h-.35v-11.21h-7.75Z"/>
      <path class="cls-1" d="M81.38,82.63h-.35v-11.58h.35v11.58Z"/>
      <path class="cls-1" d="M83.16,71.42v-.37h15.85v.37h-7.75v11.21h-.35v-11.21h-7.75Z"/>
      <path class="cls-1" d="M108.05,78.03l7.88-6.98h.48v.08l-8.19,7.24v4.26h-.35v-4.26l-8.19-7.24v-.08h.48l7.88,6.98Z"/>
    </g>
  </g>
</svg>