<?xml version="1.0" encoding="UTF-8"?>
<svg id="Capa_2" data-name="Capa 2" xmlns="http://www.w3.org/2000/svg" viewBox="0 0 46.35 46.08">
  <defs>
    <style>
      .cls-1 {
        fill: #f99d3d;
      }
    </style>
  </defs>
  <g id="Capa_1-2" data-name="Capa 1">
    <path class="cls-1" d="M22.23.02c-5.38.23-10.61,2.37-14.58,5.97-.67.6-2.97,2.98-3.22,3.68-.26.72.51,1.24,1.09.8.64-.49,1.66-2.11,2.35-2.79C14.08,1.54,22.7.03,30.85,2.91c.67.24,1.71,1.01,2.42.66.36-.18.41-.74.15-1.03s-2.86-1.26-3.41-1.43C27.58.34,24.77-.09,22.23.02ZM22.67,2.8C11.22,2.99,2.18,13.06,2.88,24.42c.09,1.38.71,2.98.59,4.25-.04.46-.23,1.08-.41,1.5-.3.68-1.75,1.97-.61,2.47.94.41,2.1-2.13,2.27-2.86.49-2-.52-4.46-.53-6.53-.04-9.81,8-18.54,17.84-19.02.77-.04,3.69.29,4.04.08.41-.25.34-.98-.11-1.22-.4-.21-2.69-.3-3.3-.29ZM28.47,4.92c.28.34,3.55,1.64,4.31,2.07,8.71,4.95,10.09,14.64,9.74,23.89-.03.71-.39,2.19-.3,2.77.11.71,1.31.85,1.46-.15,1.16-7.83-.16-18.37-5.71-24.36-1.61-1.73-6.34-4.87-8.63-5.32-.86-.17-1.39.48-.87,1.1ZM35.72,4.1c-.95.24-.46,1.09.06,1.51,5.76,4.69,8.1,8.61,9.07,16.18.08.65-.26,2.19.56,2.39.55.13,1.01-.56.93-1.08-.47-5.65-2.1-10.98-5.88-15.27-.65-.74-3.85-3.94-4.74-3.72ZM22.67,5.6c-6.94.22-13.36,4.69-15.83,11.18-.31.81-1.02,2.9-.87,3.67.1.52.75.73,1.1.38.29-.3.76-2.64.98-3.27,5.15-14.37,25.94-13.72,30.54.96.31.98.44,2.96.86,3.69.44.75,1.3.28,1.3-.4-.01-2.06-1.77-6.35-2.87-8.16-2.96-4.88-9.52-8.22-15.21-8.04ZM21.35,8.53c-.71.07-4.47.99-4.64,1.52-.11.34-.04.94.38,1.06.34.09,2.58-.82,3.24-.96,3.29-.69,6.41-.2,9.32,1.45.7.4,1.71,1.48,2.46,1.23,1.51-.5-.88-1.92-1.43-2.26-2.85-1.73-5.99-2.38-9.32-2.04ZM33.89,34.44c.47.47,1.09.08,1.25-.51.82-2.98.52-9-.04-12.08-2.89-16.08-24.63-12.59-23.86,1.99.05,1.04.36,2.18.45,3.22.07.84-.46,3.66.92,3.28.74-.2.58-2.21.55-2.85-.05-1.09-.38-2.31-.44-3.37-.62-9.84,10.56-15.16,17.83-8.58,3.5,3.17,3.84,10.17,3.6,14.6-.04.76-.65,3.9-.26,4.3ZM14.88,11.75c-.73-.74-2.35,1.17-2.83,1.72-2.55,2.96-3.84,6.72-3.59,10.64.06.95.38,1.99.44,2.93.21,3.25-.33,5.52-2.43,8.01-.47.56-1.74,1.34-1.52,2.09.41,1.39,2.18-.65,2.61-1.15,5.02-5.76,1.21-10.22,2.72-16.22.44-1.77,1.47-3.75,2.64-5.14.45-.53,2.14-1.86,2.13-2.41,0-.13-.09-.4-.18-.49ZM.34,25.41c.13.3,0,.7.06,1.05.09.52.4,2.56.81,2.71,1.56.55.92-1.48.77-2.24-.81-4.11-.63-7.15.79-11.13.25-.71,1.73-3.17.74-3.46-1.09-.32-1.81,2.18-2.1,2.98-.84,2.35-2,7.98-1.07,10.1ZM9.09,41.33c.71.7,1.91-.77,2.39-1.28,3.33-3.59,4.82-8.4,4.47-13.29-.1-1.46-.56-2.76-.44-4.26.25-3.34,2.88-6.25,6.16-6.9.45-.09,2.54-.19,2.66-.28.28-.19.19-1.02-.15-1.19-.51-.24-1.66-.1-2.23-.02-4.71.66-8.19,4.79-7.9,9.57.05.89.37,1.9.44,2.79.28,4.1-.54,8.07-3.02,11.36-.48.64-2.51,2.53-2.54,3.02,0,.13.07.38.17.48ZM34.11,14.09c-.15.04-.34.21-.37.36-.09.49,1.31,2.49,1.61,3.19,2.33,5.47,1.85,14.42.37,20.1-.27,1.04-1.26,3.32-1.29,4.16-.04,1.03.97,1.15,1.44.11,2.72-5.94,3.67-19.75.5-25.54-.17-.31-1.58-2.32-1.75-2.37-.17-.05-.35-.05-.53,0ZM27.06,15.12c-.15.04-.49.37-.53.52-.15.65,2.01,1.85,2.53,2.41,2.89,3.11,2.46,11.88,1.78,15.84-.56,3.22-1.75,6.3-3.05,9.28-.23.52-1.67,2.47-.18,2.48.61,0,1.04-1.04,1.27-1.53,3.26-6.77,4.63-14.09,3.48-21.58-.43-2.78-1.78-6.02-4.52-7.22-.27-.12-.45-.28-.78-.19ZM29.86,28.42c.2-.23.19-1.16.18-1.5-.05-2.02-.53-6.05-1.76-7.63-2.72-3.48-8.44-3.21-10.59.71-.33.6-1.35,2.71-.04,2.74.77.02,1.05-1.78,1.6-2.5,1.75-2.28,4.9-2.64,7.12-.81,2.39,1.97,1.84,5.97,2.23,8.78.12.5,1.01.5,1.26.21ZM20.09,45.74c.95.91,2.22-1.49,2.67-2.18,3.49-5.41,5-13.06,4.18-19.42-.22-1.68-.5-3.34-2.18-4.13-1.24-.59-2.54-.5-3.66.31-2.49,1.8-.96,4.66-.89,7.17.03.98-.06,1.97-.15,2.94-.06.59-.64,2.5-.15,2.79.81.48,1.12-.3,1.28-.92.43-1.67.46-4.54.33-6.27-.11-1.46-1.23-4.23.88-4.85,2.24-.66,2.76,1.12,3.05,2.84,1,6.09-.48,13.27-3.71,18.52-.38.62-1.8,2.32-1.78,2.86,0,.1.06.28.14.35ZM22.95,22.45c-.12.03-.27.16-.32.27-.3.62.32,3.42.37,4.33.27,5.29-1.57,10.97-4.52,15.3-.37.54-2.46,2.59-1.25,2.95.6.18.93-.33,1.29-.71,4.24-4.45,6.2-12.73,5.8-18.72-.05-.75-.25-3.73-1.37-3.42ZM6.07,23.2c-.42.13-.41.55-.41.93-.02,3.51,1.66,5.41-1.02,8.8-.4.5-1.62,1.25-1.25,1.98.53,1.06,1.96-.56,2.34-1.04,2.27-2.86,2.07-6.58,1.37-10.01-.13-.62-.34-.87-1.04-.67ZM39.91,24.82c-.37.37-.13,4.85-.18,5.77-.07,1.28-.28,2.79-.49,4.06-.18,1.07-.86,3.11-.85,4.01s.9,1.12,1.32.42c.47-.8,1.04-4.62,1.17-5.73.26-2.13.48-5.06.32-7.18-.05-.63-.42-2.23-1.29-1.35ZM18.42,24.95c-.17-.11-1.11,0-1.16.22-.18.78.16,1.97.16,2.76.02,4.49-1.61,9.15-4.48,12.56-.43.51-1.76,1.45-1.67,2.09.22,1.51,1.91-.24,2.32-.7,3.66-4.15,5.58-9.86,5.14-15.41-.02-.23-.23-1.47-.31-1.52ZM28.82,30.83c-.26.08-.31.27-.39.49-.4,1.08-.55,3.22-.9,4.53-.56,2.09-1.57,4.78-2.55,6.69-.39.76-1.74,2.38-1.52,3.12.11.38.56.48.9.37.3-.09,2.01-3,2.24-3.49,1.02-2.16,2.12-5.31,2.64-7.64.17-.79,1.22-4.58-.41-4.09ZM11.35,32.59c-.4.12-.8,1.43-1.05,1.89-.27.48-.58,1.01-.9,1.45-.53.73-2.4,2.36-2.6,2.85-.19.46.22.99.68.95.88-.08,3.02-2.84,3.53-3.65.31-.49,1.41-2.41,1.4-2.85,0-.44-.64-.76-1.07-.63ZM14.09,44.12c.76.91,2.09-1.03,2.59-1.65,1.27-1.59,2.42-3.42,3.01-5.36.13-.41.77-1.19.07-1.54-1.13-.57-1.31,1.18-1.59,1.79-.66,1.43-1.57,2.83-2.53,4.08-.48.63-2.19,1.92-1.56,2.68ZM33.52,36.7c-.23.04-.4.17-.52.37-.49.82-.99,3.12-1.38,4.19s-2.13,3.41-.06,3.32c.81-1.42,1.59-3.21,2.11-4.79.23-.69,1.3-3.37-.14-3.09Z"/>
  </g>
</svg>