<?xml version="1.0" encoding="UTF-8"?>
<svg id="Capa_2" data-name="Capa 2" xmlns="http://www.w3.org/2000/svg" xmlns:xlink="http://www.w3.org/1999/xlink" viewBox="0 0 103.97 103.97">
  <defs>
    <style>
      .cls-1 {
        fill: url(#_Áåçûìÿííûé_ãðàäèåíò_233-15);
      }

      .cls-2 {
        fill: url(#_Áåçûìÿííûé_ãðàäèåíò_233-5);
      }

      .cls-3 {
        fill: url(#_Áåçûìÿííûé_ãðàäèåíò_233-25);
      }

      .cls-4 {
        fill: url(#_Áåçûìÿííûé_ãðàäèåíò_233);
      }

      .cls-5 {
        fill: #fff;
      }

      .cls-6 {
        fill: url(#_Áåçûìÿííûé_ãðàäèåíò_233-34);
        opacity: .29;
      }

      .cls-7 {
        fill: url(#_Áåçûìÿííûé_ãðàäèåíò_233-26);
      }

      .cls-8 {
        fill: #f2a983;
      }

      .cls-9 {
        fill: url(#_Áåçûìÿííûé_ãðàäèåíò_233-9);
      }

      .cls-10 {
        fill: url(#_Áåçûìÿííûé_ãðàäèåíò_233-14);
      }

      .cls-11 {
        fill: url(#_Áåçûìÿííûé_ãðàäèåíò_233-48);
        opacity: .95;
      }

      .cls-12 {
        fill: url(#_Áåçûìÿííûé_ãðàäèåíò_233-3);
      }

      .cls-13 {
        fill: url(#_Áåçûìÿííûé_ãðàäèåíò_233-12);
      }

      .cls-14 {
        fill: url(#_Áåçûìÿííûé_ãðàäèåíò_233-42);
        opacity: .67;
      }

      .cls-15 {
        fill: url(#_Áåçûìÿííûé_ãðàäèåíò_233-33);
        opacity: .24;
      }

      .cls-16 {
        fill: url(#_Áåçûìÿííûé_ãðàäèåíò_233-27);
      }

      .cls-17 {
        fill: #90b7cc;
      }

      .cls-18 {
        fill: #9cc3d8;
      }

      .cls-19 {
        fill: url(#_Áåçûìÿííûé_ãðàäèåíò_233-21);
      }

      .cls-20 {
        fill: url(#_Áåçûìÿííûé_ãðàäèåíò_233-45);
        opacity: .81;
      }

      .cls-21 {
        fill: url(#_Áåçûìÿííûé_ãðàäèåíò_233-7);
      }

      .cls-22 {
        fill: url(#_Áåçûìÿííûé_ãðàäèåíò_233-16);
      }

      .cls-23 {
        fill: url(#_Áåçûìÿííûé_ãðàäèåíò_233-24);
      }

      .cls-24 {
        fill: url(#_Áåçûìÿííûé_ãðàäèåíò_233-32);
        opacity: .19;
      }

      .cls-25 {
        fill: url(#_Áåçûìÿííûé_ãðàäèåíò_233-44);
        opacity: .76;
      }

      .cls-26 {
        fill: url(#_Áåçûìÿííûé_ãðàäèåíò_233-11);
      }

      .cls-27 {
        fill: url(#_Áåçûìÿííûé_ãðàäèåíò_233-18);
      }

      .cls-28 {
        fill: url(#_Áåçûìÿííûé_ãðàäèåíò_233-35);
        opacity: .33;
      }

      .cls-29 {
        fill: url(#_Áåçûìÿííûé_ãðàäèåíò_233-47);
        opacity: .9;
      }

      .cls-30 {
        fill: url(#_Áåçûìÿííûé_ãðàäèåíò_233-43);
        opacity: .71;
      }

      .cls-31 {
        fill: url(#_Áåçûìÿííûé_ãðàäèåíò_233-8);
      }

      .cls-32 {
        fill: url(#_Áåçûìÿííûé_ãðàäèåíò_233-46);
        opacity: .86;
      }

      .cls-33 {
        fill: url(#_Áåçûìÿííûé_ãðàäèåíò_233-6);
      }

      .cls-34 {
        fill: url(#_Áåçûìÿííûé_ãðàäèåíò_233-31);
        opacity: .14;
      }

      .cls-35 {
        fill: #141133;
      }

      .cls-36 {
        fill: url(#_Áåçûìÿííûé_ãðàäèåíò_233-39);
        opacity: .52;
      }

      .cls-37 {
        fill: url(#_Áåçûìÿííûé_ãðàäèåíò_233-49);
      }

      .cls-38 {
        fill: url(#_Áåçûìÿííûé_ãðàäèåíò_233-41);
        opacity: .62;
      }

      .cls-39 {
        fill: #d88f69;
        opacity: .5;
      }

      .cls-40 {
        fill: url(#_Áåçûìÿííûé_ãðàäèåíò_233-28);
        opacity: 0;
      }

      .cls-41 {
        fill: url(#_Áåçûìÿííûé_ãðàäèåíò_233-19);
      }

      .cls-42 {
        fill: url(#_Áåçûìÿííûé_ãðàäèåíò_233-20);
      }

      .cls-43 {
        fill: url(#_Áåçûìÿííûé_ãðàäèåíò_233-2);
      }

      .cls-44 {
        fill: url(#_Áåçûìÿííûé_ãðàäèåíò_233-17);
      }

      .cls-45 {
        fill: url(#_Áåçûìÿííûé_ãðàäèåíò_233-13);
      }

      .cls-46 {
        fill: url(#_Áåçûìÿííûé_ãðàäèåíò_233-38);
        opacity: .48;
      }

      .cls-47 {
        fill: url(#_Áåçûìÿííûé_ãðàäèåíò_233-40);
        opacity: .57;
      }

      .cls-48 {
        fill: url(#_Áåçûìÿííûé_ãðàäèåíò_233-4);
      }

      .cls-49 {
        fill: url(#_Áåçûìÿííûé_ãðàäèåíò_233-30);
        opacity: .1;
      }

      .cls-50 {
        fill: #d0202d;
      }

      .cls-51 {
        fill: url(#_Áåçûìÿííûé_ãðàäèåíò_233-22);
      }

      .cls-52 {
        fill: url(#_Áåçûìÿííûé_ãðàäèåíò_233-10);
      }

      .cls-53 {
        fill: url(#_Áåçûìÿííûé_ãðàäèåíò_233-37);
        opacity: .43;
      }

      .cls-54 {
        fill: url(#_Áåçûìÿííûé_ãðàäèåíò_233-36);
        opacity: .38;
      }

      .cls-55 {
        fill: url(#_Áåçûìÿííûé_ãðàäèåíò_233-29);
        opacity: .05;
      }

      .cls-56 {
        fill: #f99d3d;
      }

      .cls-57 {
        fill: #a9d0e5;
      }

      .cls-58 {
        fill: url(#_Áåçûìÿííûé_ãðàäèåíò_233-23);
      }
    </style>
    <linearGradient id="_Áåçûìÿííûé_ãðàäèåíò_233" data-name="Áåçûìÿííûé ãðàäèåíò 233" x1="87.71" y1="87.71" x2="15.25" y2="15.25" gradientUnits="userSpaceOnUse">
      <stop offset="0" stop-color="#fff"/>
      <stop offset="1" stop-color="#cccfdb"/>
    </linearGradient>
    <linearGradient id="_Áåçûìÿííûé_ãðàäèåíò_233-2" data-name="Áåçûìÿííûé ãðàäèåíò 233" x1="87.37" y1="87.37" x2="15.76" y2="15.76" xlink:href="#_Áåçûìÿííûé_ãðàäèåíò_233"/>
    <linearGradient id="_Áåçûìÿííûé_ãðàäèåíò_233-3" data-name="Áåçûìÿííûé ãðàäèåíò 233" x1="87.04" y1="87.04" x2="16.27" y2="16.27" xlink:href="#_Áåçûìÿííûé_ãðàäèåíò_233"/>
    <linearGradient id="_Áåçûìÿííûé_ãðàäèåíò_233-4" data-name="Áåçûìÿííûé ãðàäèåíò 233" x1="86.7" y1="86.7" x2="16.78" y2="16.78" xlink:href="#_Áåçûìÿííûé_ãðàäèåíò_233"/>
    <linearGradient id="_Áåçûìÿííûé_ãðàäèåíò_233-5" data-name="Áåçûìÿííûé ãðàäèåíò 233" x1="86.37" y1="86.37" x2="17.29" y2="17.29" xlink:href="#_Áåçûìÿííûé_ãðàäèåíò_233"/>
    <linearGradient id="_Áåçûìÿííûé_ãðàäèåíò_233-6" data-name="Áåçûìÿííûé ãðàäèåíò 233" x1="86.03" y1="86.03" x2="17.79" y2="17.79" xlink:href="#_Áåçûìÿííûé_ãðàäèåíò_233"/>
    <linearGradient id="_Áåçûìÿííûé_ãðàäèåíò_233-7" data-name="Áåçûìÿííûé ãðàäèåíò 233" x1="85.7" y1="85.7" x2="18.29" y2="18.29" xlink:href="#_Áåçûìÿííûé_ãðàäèåíò_233"/>
    <linearGradient id="_Áåçûìÿííûé_ãðàäèåíò_233-8" data-name="Áåçûìÿííûé ãðàäèåíò 233" x1="85.36" y1="85.36" x2="18.78" y2="18.78" xlink:href="#_Áåçûìÿííûé_ãðàäèåíò_233"/>
    <linearGradient id="_Áåçûìÿííûé_ãðàäèåíò_233-9" data-name="Áåçûìÿííûé ãðàäèåíò 233" x1="85.02" y1="85.02" x2="19.28" y2="19.28" xlink:href="#_Áåçûìÿííûé_ãðàäèåíò_233"/>
    <linearGradient id="_Áåçûìÿííûé_ãðàäèåíò_233-10" data-name="Áåçûìÿííûé ãðàäèåíò 233" x1="84.68" y1="84.68" x2="19.77" y2="19.76" xlink:href="#_Áåçûìÿííûé_ãðàäèåíò_233"/>
    <linearGradient id="_Áåçûìÿííûé_ãðàäèåíò_233-11" data-name="Áåçûìÿííûé ãðàäèåíò 233" x1="84.35" y1="84.34" x2="20.25" y2="20.25" xlink:href="#_Áåçûìÿííûé_ãðàäèåíò_233"/>
    <linearGradient id="_Áåçûìÿííûé_ãðàäèåíò_233-12" data-name="Áåçûìÿííûé ãðàäèåíò 233" x1="84.01" y1="84.01" x2="20.74" y2="20.74" xlink:href="#_Áåçûìÿííûé_ãðàäèåíò_233"/>
    <linearGradient id="_Áåçûìÿííûé_ãðàäèåíò_233-13" data-name="Áåçûìÿííûé ãðàäèåíò 233" x1="83.67" y1="83.67" x2="21.22" y2="21.22" xlink:href="#_Áåçûìÿííûé_ãðàäèåíò_233"/>
    <linearGradient id="_Áåçûìÿííûé_ãðàäèåíò_233-14" data-name="Áåçûìÿííûé ãðàäèåíò 233" x1="83.33" y1="83.33" x2="21.7" y2="21.7" xlink:href="#_Áåçûìÿííûé_ãðàäèåíò_233"/>
    <linearGradient id="_Áåçûìÿííûé_ãðàäèåíò_233-15" data-name="Áåçûìÿííûé ãðàäèåíò 233" x1="82.99" y1="82.99" x2="22.17" y2="22.17" xlink:href="#_Áåçûìÿííûé_ãðàäèåíò_233"/>
    <linearGradient id="_Áåçûìÿííûé_ãðàäèåíò_233-16" data-name="Áåçûìÿííûé ãðàäèåíò 233" x1="82.65" y1="82.65" x2="22.64" y2="22.64" xlink:href="#_Áåçûìÿííûé_ãðàäèåíò_233"/>
    <linearGradient id="_Áåçûìÿííûé_ãðàäèåíò_233-17" data-name="Áåçûìÿííûé ãðàäèåíò 233" x1="82.3" y1="82.3" x2="23.11" y2="23.11" xlink:href="#_Áåçûìÿííûé_ãðàäèåíò_233"/>
    <linearGradient id="_Áåçûìÿííûé_ãðàäèåíò_233-18" data-name="Áåçûìÿííûé ãðàäèåíò 233" x1="81.96" y1="81.96" x2="23.58" y2="23.58" xlink:href="#_Áåçûìÿííûé_ãðàäèåíò_233"/>
    <linearGradient id="_Áåçûìÿííûé_ãðàäèåíò_233-19" data-name="Áåçûìÿííûé ãðàäèåíò 233" x1="81.62" y1="81.62" x2="24.04" y2="24.04" xlink:href="#_Áåçûìÿííûé_ãðàäèåíò_233"/>
    <linearGradient id="_Áåçûìÿííûé_ãðàäèåíò_233-20" data-name="Áåçûìÿííûé ãðàäèåíò 233" x1="81.28" y1="81.28" x2="24.5" y2="24.5" xlink:href="#_Áåçûìÿííûé_ãðàäèåíò_233"/>
    <linearGradient id="_Áåçûìÿííûé_ãðàäèåíò_233-21" data-name="Áåçûìÿííûé ãðàäèåíò 233" x1="80.93" y1="80.93" x2="24.96" y2="24.96" xlink:href="#_Áåçûìÿííûé_ãðàäèåíò_233"/>
    <linearGradient id="_Áåçûìÿííûé_ãðàäèåíò_233-22" data-name="Áåçûìÿííûé ãðàäèåíò 233" x1="80.59" y1="80.59" x2="25.42" y2="25.41" xlink:href="#_Áåçûìÿííûé_ãðàäèåíò_233"/>
    <linearGradient id="_Áåçûìÿííûé_ãðàäèåíò_233-23" data-name="Áåçûìÿííûé ãðàäèåíò 233" x1="80.25" y1="80.25" x2="25.87" y2="25.87" xlink:href="#_Áåçûìÿííûé_ãðàäèåíò_233"/>
    <linearGradient id="_Áåçûìÿííûé_ãðàäèåíò_233-24" data-name="Áåçûìÿííûé ãðàäèåíò 233" x1="79.9" y1="79.9" x2="26.32" y2="26.32" xlink:href="#_Áåçûìÿííûé_ãðàäèåíò_233"/>
    <linearGradient id="_Áåçûìÿííûé_ãðàäèåíò_233-25" data-name="Áåçûìÿííûé ãðàäèåíò 233" x1="79.56" y1="79.56" x2="26.76" y2="26.76" xlink:href="#_Áåçûìÿííûé_ãðàäèåíò_233"/>
    <linearGradient id="_Áåçûìÿííûé_ãðàäèåíò_233-26" data-name="Áåçûìÿííûé ãðàäèåíò 233" x1="79.21" y1="79.21" x2="27.2" y2="27.2" xlink:href="#_Áåçûìÿííûé_ãðàäèåíò_233"/>
    <linearGradient id="_Áåçûìÿííûé_ãðàäèåíò_233-27" data-name="Áåçûìÿííûé ãðàäèåíò 233" x1="78.86" y1="78.86" x2="27.64" y2="27.64" xlink:href="#_Áåçûìÿííûé_ãðàäèåíò_233"/>
    <linearGradient id="_Áåçûìÿííûé_ãðàäèåíò_233-28" data-name="Áåçûìÿííûé ãðàäèåíò 233" x1="-1543.05" y1="-1319.65" x2="-1607.7" y2="-1384.31" gradientTransform="translate(-1525 -1301.6) rotate(-180)" xlink:href="#_Áåçûìÿííûé_ãðàäèåíò_233"/>
    <linearGradient id="_Áåçûìÿííûé_ãðàäèåíò_233-29" data-name="Áåçûìÿííûé ãðàäèåíò 233" x1="-1543.4" y1="-1320" x2="-1607.39" y2="-1384" gradientTransform="translate(-1525 -1301.6) rotate(-180)" xlink:href="#_Áåçûìÿííûé_ãðàäèåíò_233"/>
    <linearGradient id="_Áåçûìÿííûé_ãðàäèåíò_233-30" data-name="Áåçûìÿííûé ãðàäèåíò 233" x1="-1543.74" y1="-1320.35" x2="-1607.07" y2="-1383.68" gradientTransform="translate(-1525 -1301.6) rotate(-180)" xlink:href="#_Áåçûìÿííûé_ãðàäèåíò_233"/>
    <linearGradient id="_Áåçûìÿííûé_ãðàäèåíò_233-31" data-name="Áåçûìÿííûé ãðàäèåíò 233" x1="-1544.09" y1="-1320.7" x2="-1606.76" y2="-1383.37" gradientTransform="translate(-1525 -1301.6) rotate(-180)" xlink:href="#_Áåçûìÿííûé_ãðàäèåíò_233"/>
    <linearGradient id="_Áåçûìÿííûé_ãðàäèåíò_233-32" data-name="Áåçûìÿííûé ãðàäèåíò 233" x1="-1544.44" y1="-1321.05" x2="-1606.44" y2="-1383.05" gradientTransform="translate(-1525 -1301.6) rotate(-180)" xlink:href="#_Áåçûìÿííûé_ãðàäèåíò_233"/>
    <linearGradient id="_Áåçûìÿííûé_ãðàäèåíò_233-33" data-name="Áåçûìÿííûé ãðàäèåíò 233" x1="-1544.79" y1="-1321.39" x2="-1606.13" y2="-1382.73" gradientTransform="translate(-1525 -1301.6) rotate(-180)" xlink:href="#_Áåçûìÿííûé_ãðàäèåíò_233"/>
    <linearGradient id="_Áåçûìÿííûé_ãðàäèåíò_233-34" data-name="Áåçûìÿííûé ãðàäèåíò 233" x1="-1545.14" y1="-1321.74" x2="-1605.81" y2="-1382.42" gradientTransform="translate(-1525 -1301.6) rotate(-180)" xlink:href="#_Áåçûìÿííûé_ãðàäèåíò_233"/>
    <linearGradient id="_Áåçûìÿííûé_ãðàäèåíò_233-35" data-name="Áåçûìÿííûé ãðàäèåíò 233" x1="-1545.48" y1="-1322.09" x2="-1605.5" y2="-1382.1" gradientTransform="translate(-1525 -1301.6) rotate(-180)" xlink:href="#_Áåçûìÿííûé_ãðàäèåíò_233"/>
    <linearGradient id="_Áåçûìÿííûé_ãðàäèåíò_233-36" data-name="Áåçûìÿííûé ãðàäèåíò 233" x1="-1545.83" y1="-1322.44" x2="-1605.18" y2="-1381.79" gradientTransform="translate(-1525 -1301.6) rotate(-180)" xlink:href="#_Áåçûìÿííûé_ãðàäèåíò_233"/>
    <linearGradient id="_Áåçûìÿííûé_ãðàäèåíò_233-37" data-name="Áåçûìÿííûé ãðàäèåíò 233" x1="-1546.18" y1="-1322.79" x2="-1604.87" y2="-1381.47" gradientTransform="translate(-1525 -1301.6) rotate(-180)" xlink:href="#_Áåçûìÿííûé_ãðàäèåíò_233"/>
    <linearGradient id="_Áåçûìÿííûé_ãðàäèåíò_233-38" data-name="Áåçûìÿííûé ãðàäèåíò 233" x1="-1546.53" y1="-1323.13" x2="-1604.55" y2="-1381.16" gradientTransform="translate(-1525 -1301.6) rotate(-180)" xlink:href="#_Áåçûìÿííûé_ãðàäèåíò_233"/>
    <linearGradient id="_Áåçûìÿííûé_ãðàäèåíò_233-39" data-name="Áåçûìÿííûé ãðàäèåíò 233" x1="-1546.88" y1="-1323.48" x2="-1604.24" y2="-1380.84" gradientTransform="translate(-1525 -1301.6) rotate(-180)" xlink:href="#_Áåçûìÿííûé_ãðàäèåíò_233"/>
    <linearGradient id="_Áåçûìÿííûé_ãðàäèåíò_233-40" data-name="Áåçûìÿííûé ãðàäèåíò 233" x1="-1547.22" y1="-1323.83" x2="-1603.92" y2="-1380.53" gradientTransform="translate(-1525 -1301.6) rotate(-180)" xlink:href="#_Áåçûìÿííûé_ãðàäèåíò_233"/>
    <linearGradient id="_Áåçûìÿííûé_ãðàäèåíò_233-41" data-name="Áåçûìÿííûé ãðàäèåíò 233" x1="-1547.57" y1="-1324.18" x2="-1603.61" y2="-1380.21" gradientTransform="translate(-1525 -1301.6) rotate(-180)" xlink:href="#_Áåçûìÿííûé_ãðàäèåíò_233"/>
    <linearGradient id="_Áåçûìÿííûé_ãðàäèåíò_233-42" data-name="Áåçûìÿííûé ãðàäèåíò 233" x1="-1547.92" y1="-1324.53" x2="-1603.29" y2="-1379.9" gradientTransform="translate(-1525 -1301.6) rotate(-180)" xlink:href="#_Áåçûìÿííûé_ãðàäèåíò_233"/>
    <linearGradient id="_Áåçûìÿííûé_ãðàäèåíò_233-43" data-name="Áåçûìÿííûé ãðàäèåíò 233" x1="-1548.27" y1="-1324.87" x2="-1602.98" y2="-1379.58" gradientTransform="translate(-1525 -1301.6) rotate(-180)" xlink:href="#_Áåçûìÿííûé_ãðàäèåíò_233"/>
    <linearGradient id="_Áåçûìÿííûé_ãðàäèåíò_233-44" data-name="Áåçûìÿííûé ãðàäèåíò 233" x1="-1548.61" y1="-1325.22" x2="-1602.66" y2="-1379.27" gradientTransform="translate(-1525 -1301.6) rotate(-180)" xlink:href="#_Áåçûìÿííûé_ãðàäèåíò_233"/>
    <linearGradient id="_Áåçûìÿííûé_ãðàäèåíò_233-45" data-name="Áåçûìÿííûé ãðàäèåíò 233" x1="-1548.96" y1="-1325.57" x2="-1602.35" y2="-1378.95" gradientTransform="translate(-1525 -1301.6) rotate(-180)" xlink:href="#_Áåçûìÿííûé_ãðàäèåíò_233"/>
    <linearGradient id="_Áåçûìÿííûé_ãðàäèåíò_233-46" data-name="Áåçûìÿííûé ãðàäèåíò 233" x1="-1549.31" y1="-1325.92" x2="-1602.03" y2="-1378.64" gradientTransform="translate(-1525 -1301.6) rotate(-180)" xlink:href="#_Áåçûìÿííûé_ãðàäèåíò_233"/>
    <linearGradient id="_Áåçûìÿííûé_ãðàäèåíò_233-47" data-name="Áåçûìÿííûé ãðàäèåíò 233" x1="-1549.66" y1="-1326.26" x2="-1601.72" y2="-1378.32" gradientTransform="translate(-1525 -1301.6) rotate(-180)" xlink:href="#_Áåçûìÿííûé_ãðàäèåíò_233"/>
    <linearGradient id="_Áåçûìÿííûé_ãðàäèåíò_233-48" data-name="Áåçûìÿííûé ãðàäèåíò 233" x1="-1550.01" y1="-1326.61" x2="-1601.4" y2="-1378.01" gradientTransform="translate(-1525 -1301.6) rotate(-180)" xlink:href="#_Áåçûìÿííûé_ãðàäèåíò_233"/>
    <linearGradient id="_Áåçûìÿííûé_ãðàäèåíò_233-49" data-name="Áåçûìÿííûé ãðàäèåíò 233" x1="-1550.35" y1="-1326.96" x2="-1601.09" y2="-1377.69" gradientTransform="translate(-1525 -1301.6) rotate(-180)" xlink:href="#_Áåçûìÿííûé_ãðàäèåíò_233"/>
  </defs>
  <g id="Capa_1-2" data-name="Capa 1">
    <g>
      <g>
        <path class="cls-4" d="M103.97,51.98c0,28.71-23.27,51.98-51.98,51.98S0,80.69,0,51.98,23.27,0,51.98,0s51.98,23.27,51.98,51.98Z"/>
        <path class="cls-43" d="M103.45,51.98c0,28.42-23.04,51.46-51.46,51.46S.52,80.4.52,51.98,23.56.52,51.98.52s51.46,23.04,51.46,51.46Z"/>
        <path class="cls-12" d="M102.92,51.98c0,28.13-22.81,50.94-50.94,50.94S1.04,80.12,1.04,51.98,23.85,1.04,51.98,1.04s50.94,22.81,50.94,50.94Z"/>
        <path class="cls-48" d="M102.4,51.98c0,27.84-22.57,50.42-50.42,50.42S1.57,79.83,1.57,51.98,24.14,1.57,51.98,1.57s50.42,22.57,50.42,50.42Z"/>
        <path class="cls-2" d="M101.88,51.98c0,27.56-22.34,49.9-49.9,49.9S2.09,79.54,2.09,51.98,24.43,2.09,51.98,2.09s49.9,22.34,49.9,49.9Z"/>
        <path class="cls-33" d="M101.36,51.98c0,27.27-22.11,49.37-49.37,49.37S2.61,79.25,2.61,51.98,24.72,2.61,51.98,2.61s49.37,22.11,49.37,49.37Z"/>
        <path class="cls-21" d="M100.84,51.98c0,26.98-21.87,48.85-48.85,48.85S3.13,78.96,3.13,51.98,25,3.13,51.98,3.13s48.85,21.87,48.85,48.85Z"/>
        <path class="cls-31" d="M100.31,51.98c0,26.69-21.64,48.33-48.33,48.33S3.65,78.68,3.65,51.98,25.29,3.65,51.98,3.65s48.33,21.64,48.33,48.33Z"/>
        <path class="cls-9" d="M99.79,51.98c0,26.4-21.4,47.81-47.81,47.81S4.18,78.39,4.18,51.98,25.58,4.18,51.98,4.18s47.81,21.4,47.81,47.81Z"/>
        <path class="cls-52" d="M99.27,51.98c0,26.12-21.17,47.29-47.29,47.29S4.7,78.1,4.7,51.98,25.87,4.7,51.98,4.7s47.29,21.17,47.29,47.29Z"/>
        <path class="cls-26" d="M98.75,51.98c0,25.83-20.94,46.76-46.76,46.76S5.22,77.81,5.22,51.98,26.16,5.22,51.98,5.22s46.76,20.94,46.76,46.76Z"/>
        <path class="cls-13" d="M98.23,51.98c0,25.54-20.7,46.24-46.24,46.24S5.74,77.52,5.74,51.98,26.45,5.74,51.98,5.74s46.24,20.7,46.24,46.24Z"/>
        <path class="cls-45" d="M97.7,51.98c0,25.25-20.47,45.72-45.72,45.72S6.26,77.23,6.26,51.98,26.73,6.26,51.98,6.26s45.72,20.47,45.72,45.72Z"/>
        <path class="cls-10" d="M97.18,51.98c0,24.96-20.24,45.2-45.2,45.2S6.79,76.95,6.79,51.98,27.02,6.79,51.98,6.79s45.2,20.24,45.2,45.2Z"/>
        <path class="cls-1" d="M96.66,51.98c0,24.67-20,44.68-44.68,44.68S7.31,76.66,7.31,51.98,27.31,7.31,51.98,7.31s44.68,20,44.68,44.68Z"/>
        <path class="cls-22" d="M96.14,51.98c0,24.39-19.77,44.15-44.15,44.15S7.83,76.37,7.83,51.98,27.6,7.83,51.98,7.83s44.15,19.77,44.15,44.15Z"/>
        <path class="cls-44" d="M95.62,51.98c0,24.1-19.53,43.63-43.63,43.63S8.35,76.08,8.35,51.98,27.89,8.35,51.98,8.35s43.63,19.54,43.63,43.63Z"/>
        <path class="cls-27" d="M95.09,51.98c0,23.81-19.3,43.11-43.11,43.11S8.87,75.79,8.87,51.98,28.17,8.87,51.98,8.87s43.11,19.3,43.11,43.11Z"/>
        <path class="cls-41" d="M94.57,51.98c0,23.52-19.07,42.59-42.59,42.59S9.4,75.5,9.4,51.98,28.46,9.39,51.98,9.39s42.59,19.07,42.59,42.59Z"/>
        <path class="cls-42" d="M94.05,51.98c0,23.23-18.83,42.07-42.07,42.07S9.92,75.22,9.92,51.98,28.75,9.92,51.98,9.92s42.07,18.83,42.07,42.07Z"/>
        <path class="cls-19" d="M93.53,51.98c0,22.94-18.6,41.54-41.54,41.54S10.44,74.93,10.44,51.98,29.04,10.44,51.98,10.44s41.54,18.6,41.54,41.54Z"/>
        <path class="cls-51" d="M93.01,51.98c0,22.66-18.37,41.02-41.02,41.02S10.96,74.64,10.96,51.98,29.33,10.96,51.98,10.96s41.02,18.37,41.02,41.02Z"/>
        <path class="cls-58" d="M92.48,51.98c0,22.37-18.13,40.5-40.5,40.5S11.48,74.35,11.48,51.98,29.62,11.48,51.98,11.48s40.5,18.13,40.5,40.5Z"/>
        <path class="cls-23" d="M91.96,51.98c0,22.08-17.9,39.98-39.98,39.98S12.01,74.06,12.01,51.98,29.9,12,51.98,12s39.98,17.9,39.98,39.98Z"/>
        <path class="cls-3" d="M91.44,51.98c0,21.79-17.67,39.46-39.46,39.46S12.53,73.77,12.53,51.98,30.19,12.53,51.98,12.53s39.46,17.67,39.46,39.46Z"/>
        <path class="cls-7" d="M90.92,51.98c0,21.5-17.43,38.94-38.93,38.94S13.05,73.49,13.05,51.98,30.48,13.05,51.98,13.05s38.93,17.43,38.93,38.93Z"/>
        <path class="cls-16" d="M90.4,51.98c0,21.21-17.2,38.41-38.41,38.41S13.57,73.2,13.57,51.98,30.77,13.57,51.98,13.57s38.41,17.2,38.41,38.41Z"/>
      </g>
      <g>
        <path class="cls-40" d="M3.49,51.98C3.49,25.2,25.2,3.49,51.98,3.49s48.49,21.71,48.49,48.49-21.71,48.49-48.49,48.49S3.49,78.76,3.49,51.98Z"/>
        <path class="cls-55" d="M3.99,51.98C3.99,25.48,25.48,3.99,51.98,3.99s47.99,21.49,47.99,47.99-21.49,47.99-47.99,47.99S3.99,78.49,3.99,51.98Z"/>
        <path class="cls-49" d="M4.49,51.98C4.49,25.75,25.75,4.49,51.98,4.49s47.5,21.27,47.5,47.5-21.26,47.5-47.5,47.5S4.49,78.21,4.49,51.98Z"/>
        <path class="cls-34" d="M4.99,51.98C4.99,26.03,26.03,4.98,51.98,4.98s47,21.04,47,47-21.04,47-47,47S4.99,77.94,4.99,51.98Z"/>
        <path class="cls-24" d="M5.48,51.98C5.48,26.3,26.3,5.48,51.98,5.48s46.5,20.82,46.5,46.5-20.82,46.5-46.5,46.5S5.48,77.66,5.48,51.98Z"/>
        <path class="cls-15" d="M5.98,51.98C5.98,26.58,26.58,5.98,51.98,5.98s46,20.6,46,46-20.6,46-46,46S5.98,77.39,5.98,51.98Z"/>
        <path class="cls-6" d="M6.48,51.98C6.48,26.85,26.85,6.48,51.98,6.48s45.51,20.37,45.51,45.51-20.37,45.51-45.51,45.51S6.48,77.12,6.48,51.98Z"/>
        <path class="cls-28" d="M6.97,51.98C6.97,27.13,27.13,6.97,51.98,6.97s45.01,20.15,45.01,45.01-20.15,45.01-45.01,45.01S6.97,76.84,6.97,51.98Z"/>
        <path class="cls-54" d="M7.47,51.98C7.47,27.4,27.4,7.47,51.98,7.47s44.51,19.93,44.51,44.51-19.93,44.51-44.51,44.51S7.47,76.57,7.47,51.98Z"/>
        <path class="cls-53" d="M7.97,51.98C7.97,27.67,27.67,7.97,51.98,7.97s44.02,19.71,44.02,44.02-19.71,44.02-44.02,44.02S7.97,76.29,7.97,51.98Z"/>
        <path class="cls-46" d="M8.47,51.98c0-24.03,19.48-43.52,43.52-43.52s43.52,19.48,43.52,43.52-19.48,43.52-43.52,43.52S8.47,76.02,8.47,51.98Z"/>
        <path class="cls-36" d="M8.96,51.98c0-23.76,19.26-43.02,43.02-43.02s43.02,19.26,43.02,43.02-19.26,43.02-43.02,43.02S8.96,75.74,8.96,51.98Z"/>
        <path class="cls-47" d="M9.46,51.98c0-23.49,19.04-42.52,42.52-42.52s42.52,19.04,42.52,42.52-19.04,42.52-42.52,42.52S9.46,75.47,9.46,51.98Z"/>
        <path class="cls-38" d="M9.96,51.98c0-23.21,18.82-42.03,42.03-42.03s42.03,18.82,42.03,42.03-18.82,42.03-42.03,42.03S9.96,75.19,9.96,51.98Z"/>
        <path class="cls-14" d="M10.45,51.98c0-22.94,18.59-41.53,41.53-41.53s41.53,18.59,41.53,41.53-18.59,41.53-41.53,41.53S10.45,74.92,10.45,51.98Z"/>
        <path class="cls-30" d="M10.95,51.98c0-22.66,18.37-41.03,41.03-41.03s41.03,18.37,41.03,41.03-18.37,41.03-41.03,41.03S10.95,74.64,10.95,51.98Z"/>
        <path class="cls-25" d="M11.45,51.98c0-22.39,18.15-40.54,40.54-40.54s40.53,18.15,40.53,40.54-18.15,40.53-40.53,40.53S11.45,74.37,11.45,51.98Z"/>
        <path class="cls-20" d="M11.95,51.98c0-22.11,17.93-40.04,40.04-40.04s40.04,17.93,40.04,40.04-17.93,40.04-40.04,40.04S11.95,74.1,11.95,51.98Z"/>
        <path class="cls-32" d="M12.44,51.98c0-21.84,17.7-39.54,39.54-39.54s39.54,17.7,39.54,39.54-17.7,39.54-39.54,39.54S12.44,73.82,12.44,51.98Z"/>
        <path class="cls-29" d="M12.94,51.98c0-21.56,17.48-39.04,39.04-39.04s39.04,17.48,39.04,39.04-17.48,39.04-39.04,39.04S12.94,73.55,12.94,51.98Z"/>
        <path class="cls-11" d="M13.44,51.98c0-21.29,17.26-38.55,38.55-38.55s38.55,17.26,38.55,38.55-17.26,38.55-38.55,38.55S13.44,73.27,13.44,51.98Z"/>
        <path class="cls-37" d="M13.93,51.98c0-21.01,17.03-38.05,38.05-38.05s38.05,17.04,38.05,38.05-17.04,38.05-38.05,38.05S13.93,73,13.93,51.98Z"/>
      </g>
    </g>
    <g>
      <path class="cls-56" d="M93.71,52.93c0,.67-.02,1.35-.06,2.02-1.04,22.08-19.27,39.65-41.61,39.65-15.06,0-28.28-8.01-35.6-19.98-3.86-6.32-6.08-13.75-6.08-21.69,0-23.01,18.66-41.67,41.67-41.67s41.67,18.66,41.67,41.67Z"/>
      <g>
        <path class="cls-17" d="M64.06,76.41c-1.85-2.33,0-15.82,0-15.82h-25.98s1.85,13.49,0,15.82c0,0,5.46,7.31,12.12,7.47,6.65.16,13.86-7.47,13.86-7.47Z"/>
        <path class="cls-8" d="M35.56,48.76s-.52-1.98-1.7-2.14c-1.18-.15-2.41,1.33-1.61,5.23.8,3.9,1.61,4.49,1.92,5.45.31.96,1.52,2.44,2.6.15l-1.21-8.7Z"/>
        <path class="cls-39" d="M35.56,48.76s-.52-1.98-1.7-2.14c-1.18-.15-2.41,1.33-1.61,5.23.8,3.9,1.61,4.49,1.92,5.45.31.96,1.52,2.44,2.6.15l-1.21-8.7Z"/>
        <path class="cls-17" d="M35.56,48.76s-.52-1.98-1.7-2.14c-1.18-.15-2.41,1.33-1.61,5.23.8,3.9,1.61,4.49,1.92,5.45.31.96,1.52,2.44,2.6.15l-1.21-8.7Z"/>
        <path class="cls-18" d="M66.3,48.76s.53-1.98,1.7-2.14c1.18-.15,2.41,1.33,1.61,5.23-.8,3.9-1.61,4.49-1.92,5.45-.31.96-1.52,2.44-2.6.15l1.21-8.7Z"/>
        <path class="cls-57" d="M51.06,23.92c5.82,0,12.17,3.25,14.71,8.98,2.54,5.74,1.54,10.32,1.39,12.35-.15,2.03-.5,5.37-1.01,7.98-.5,2.61-.65,7.16-1.66,10.2-1,3.03-3.01,4.06-5.58,5.95-2.57,1.88-6.56,2.88-7.86,2.88s-5.29-1-7.86-2.88c-2.57-1.88-4.58-2.91-5.59-5.95-1-3.04-1.15-7.58-1.65-10.2-.5-2.61-.86-5.95-1-7.98-.15-2.03-1.15-6.61,1.39-12.35,2.54-5.73,8.89-8.98,14.71-8.98Z"/>
        <path class="cls-39" d="M48.66,71.84h0c-6.8-2.72-7.62-9.43-7.76-12.23-.14-2.8-2.52-4.89-3.89-6.97-1.38-2.08-1.42-9.41-1.42-9.41l-.85-.16c.08.9.18,1.63.22,2.18.15,2.03.5,5.37,1,7.98.5,2.61.65,7.16,1.65,10.2,1.01,3.03,3.01,4.06,5.59,5.95,1.6,1.17,3.76,2,5.46,2.46Z"/>
        <path class="cls-18" d="M58.91,69.37c2.57-1.88,4.58-2.91,5.58-5.95,1.01-3.04,1.15-7.58,1.66-10.2.5-2.61.86-5.95,1.01-7.98.04-.56.15-1.31.22-2.23l-1.09.21s-.05,7.33-1.42,9.41c-1.38,2.08-3.75,4.16-3.89,6.97-.14,2.8-.96,9.52-7.76,12.23-.12.05-.23.09-.34.14,1.78-.42,4.25-1.3,6.03-2.61Z"/>
        <path class="cls-17" d="M50.54,57.66s-1.14-1.05-1.14-1.95.55-4.73.66-7.62c.11-2.89-.67-2.78-2.87-3.63-2.19-.84-6.79-1.52-8.48-1.68-1.31-.13-.42-4.27.35-6.85,1.02.64,3.5,1.72,9.1,2.29,8.28.84,15.75-4.06,15.75-4.06l-25.16-1.23-.12.91-2.31-.91c-2.52,5.72-1.52,10.28-1.37,12.31.15,2.03.5,5.37,1,7.98.5,2.61.65,7.16,1.65,10.2,1.01,3.03,3.01,4.06,5.59,5.95,2.56,1.88,6.54,2.88,7.84,2.88-.06-3.41-.31-11.05-.31-11.05l-.19-3.55Z"/>
        <path class="cls-35" d="M69.05,39.03c.69-3.87.06-19-17.4-18.81-17.46-.19-19.49,13.99-18.8,17.85.43,2.43.69,8.01,1.22,8.55,0,0,.74.17.92.84.18.66.47,2.79.47,2.79,0,0,.59-5.69.87-7.4.29-1.71.47-2.04.68-4.75.2-2.7,1.03-4.51,3.12-5.69,2.09-1.19,8.02.57,10.06.85h1.71c2.04-.28,7.97-2.04,10.06-.85,2.09,1.19,2.92,2.99,3.12,5.69.2,2.71.39,3.04.67,4.75.29,1.71.85,7.4.85,7.4,0,0,.27-2.13.45-2.79.18-.66.93-.84.93-.84.52-.54.62-5.16,1.05-7.59Z"/>
        <path class="cls-35" d="M57.03,29.77h-15.28l-5.49,3.97c20.64,8.56,29.56-1.07,29.56-1.07l-8.79-2.9Z"/>
        <path class="cls-35" d="M29.53,79.29c6.03,4.38,13.44,6.96,21.45,6.96s15.52-2.62,21.57-7.05l-8.79-3.36s-7.77,8.02-12.71,8.02-12.97-8.02-12.97-8.02l-8.55,3.44Z"/>
        <polygon class="cls-50" points="69.81 27.26 73.41 27.26 73.41 30.86 74.08 30.86 74.08 26.59 69.81 26.59 69.81 27.26"/>
        <polygon class="cls-5" points="66.97 25.88 74.79 25.88 74.79 33.7 75.46 33.7 75.46 25.21 66.97 25.21 66.97 25.88"/>
        <polygon class="cls-50" points="32.15 27.26 28.55 27.26 28.55 30.86 27.89 30.86 27.89 26.59 32.15 26.59 32.15 27.26"/>
        <polygon class="cls-5" points="35 25.88 27.18 25.88 27.18 33.7 26.51 33.7 26.51 25.21 35 25.21 35 25.88"/>
        <polygon class="cls-50" points="69.81 72.12 73.41 72.12 73.41 68.52 74.08 68.52 74.08 72.79 69.81 72.79 69.81 72.12"/>
        <polygon class="cls-5" points="66.97 73.5 74.79 73.5 74.79 65.68 75.46 65.68 75.46 74.16 66.97 74.16 66.97 73.5"/>
        <polygon class="cls-50" points="32.15 72.12 28.55 72.12 28.55 68.52 27.89 68.52 27.89 72.79 32.15 72.79 32.15 72.12"/>
        <polygon class="cls-5" points="35 73.5 27.18 73.5 27.18 65.68 26.51 65.68 26.51 74.16 35 74.16 35 73.5"/>
        <path class="cls-5" d="M66.12,49.36c0-.57-.46-1.03-1.02-1.03-.32,0-.6.15-.79.38l-5.7-3.63c.07-.13.11-.28.11-.45,0-.57-.46-1.02-1.03-1.02-.53,0-.95.4-1.01.91h-11.75c-.06-.51-.49-.91-1.01-.91-.57,0-1.03.46-1.03,1.02,0,.16.04.31.11.45l-5.7,3.63c-.19-.23-.47-.38-.79-.38-.57,0-1.03.46-1.03,1.03s.44,1.01,1,1.02l.85,9.81c-.39.14-.68.52-.68.96,0,.57.46,1.03,1.03,1.03.14,0,.27-.03.39-.08l3.11,4.32c-.21.19-.34.46-.34.75,0,.57.46,1.03,1.03,1.03.39,0,.73-.22.9-.55l7.04,2.74c-.02.08-.04.17-.04.26,0,.57.46,1.03,1.03,1.03s1.03-.46,1.03-1.03c0-.09-.01-.17-.04-.26l7.06-2.74c.17.32.51.55.9.55.57,0,1.03-.46,1.03-1.03,0-.31-.14-.58-.35-.76l3.03-4.36c.14.08.31.13.48.13.57,0,1.02-.46,1.02-1.03,0-.49-.35-.9-.81-1l.97-9.76c.56,0,1.01-.46,1.01-1.02ZM63.09,60.56l-4-2.88c.08-.15.13-.32.13-.5,0-.26-.1-.5-.27-.68l5.55-6.29c.11.08.23.13.37.16l-.97,9.76c-.34,0-.63.17-.82.43ZM44.35,56.84l5.44-2.96c.1.41.45.71.87.76v6.01c-.28.03-.53.18-.69.39l-5.66-3.43c.06-.13.1-.28.1-.43,0-.12-.02-.23-.06-.34ZM44.92,44.76h11.75c.03.23.13.44.28.6l-5.87,7.28c-.09-.03-.19-.05-.29-.05-.09,0-.17.01-.25.03l-5.9-7.27c.15-.16.25-.37.28-.6ZM50.9,60.65v-6.01c.43-.05.78-.36.88-.77l5.47,2.93c-.05.12-.07.24-.07.38,0,.15.04.3.09.42l-5.68,3.43c-.16-.21-.41-.35-.68-.39ZM64.17,48.92c-.07.14-.11.28-.11.45,0,.26.1.5.27.68l-5.55,6.29c-.17-.12-.37-.18-.58-.18-.35,0-.66.17-.84.44l-5.55-2.98c0-.37-.21-.69-.5-.87l5.83-7.23c.16.1.34.16.55.16.32,0,.6-.15.79-.38l5.7,3.63ZM43.11,45.29c.19.23.47.38.79.38.2,0,.39-.06.55-.16l5.86,7.21c-.32.17-.55.51-.55.9l-5.51,3c-.18-.28-.5-.47-.86-.47-.19,0-.38.06-.53.15l-5.6-6.26c.16-.18.26-.42.26-.68,0-.16-.04-.31-.11-.45l5.7-3.63ZM36.7,50.37c.14-.03.27-.09.38-.17l5.58,6.25c-.19.19-.31.44-.31.73,0,.19.05.36.14.51l-4.11,2.74c-.19-.19-.44-.3-.73-.3-.04,0-.08,0-.11.01l-.85-9.77ZM38.26,61.98c.26-.19.43-.49.43-.83,0-.2-.06-.38-.15-.53l4.11-2.74c.15.15.34.26.55.31l-1.3,7.97s-.03,0-.05,0c-.18,0-.35.05-.5.13l-3.09-4.3ZM42.84,67.43c.02-.08.04-.17.04-.26,0-.47-.32-.86-.75-.98l1.3-8c.31-.01.58-.16.75-.39l5.66,3.43c-.06.13-.09.27-.09.42,0,.53.4.96.91,1.01v6.96c-.34.04-.63.24-.79.53l-7.04-2.74ZM51.68,70.17c-.15-.29-.44-.5-.78-.54v-6.96c.51-.06.91-.49.91-1.01,0-.15-.04-.29-.09-.42l5.68-3.43c.19.24.48.4.81.4.01,0,.02,0,.04,0l1.23,7.99c-.43.12-.75.51-.75.98,0,.09.02.17.04.26l-7.06,2.74ZM60.21,66.28c-.14-.08-.31-.13-.48-.13-.01,0-.02,0-.04,0l-1.23-7.99c.19-.05.35-.15.48-.3l4.02,2.9c-.05.12-.08.25-.08.39,0,.31.14.58.35.77l-3.03,4.36Z"/>
      </g>
    </g>
  </g>
</svg>