<?xml version="1.0" encoding="UTF-8"?>
<svg id="Capa_2" data-name="Capa 2" xmlns="http://www.w3.org/2000/svg" xmlns:xlink="http://www.w3.org/1999/xlink" viewBox="0 0 171.98 172.38">
  <defs>
    <style>
      .cls-1 {
        fill: url(#linear-gradient-14);
        opacity: .18;
      }

      .cls-2 {
        fill: url(#Degradado_sin_nombre_90);
      }

      .cls-2, .cls-3, .cls-4 {
        opacity: .09;
      }

      .cls-5 {
        mask: url(#mask-15);
      }

      .cls-6 {
        fill: url(#Degradado_sin_nombre_97);
      }

      .cls-6, .cls-7, .cls-8 {
        opacity: .55;
      }

      .cls-9 {
        fill: url(#Degradado_sin_nombre_82);
      }

      .cls-9, .cls-10, .cls-11 {
        opacity: .73;
      }

      .cls-12 {
        mask: url(#mask-5);
      }

      .cls-13 {
        mask: url(#mask-13);
      }

      .cls-14 {
        fill: url(#Degradado_sin_nombre_93);
      }

      .cls-14, .cls-15, .cls-16 {
        opacity: .91;
      }

      .cls-17 {
        fill: url(#linear-gradient-16);
        opacity: .27;
      }

      .cls-18 {
        fill: url(#linear-gradient-2);
      }

      .cls-19 {
        fill: url(#linear-gradient-9);
      }

      .cls-19, .cls-20, .cls-21, .cls-22, .cls-23, .cls-24, .cls-25, .cls-26, .cls-27, .cls-28, .cls-29 {
        mix-blend-mode: multiply;
      }

      .cls-20 {
        fill: url(#linear-gradient-13);
      }

      .cls-30 {
        mask: url(#mask-1);
      }

      .cls-7 {
        fill: url(#Degradado_sin_nombre_85-2);
      }

      .cls-31 {
        fill: url(#linear-gradient-7);
      }

      .cls-31, .cls-32, .cls-33, .cls-34 {
        opacity: 0;
      }

      .cls-3 {
        fill: url(#Degradado_sin_nombre_102);
      }

      .cls-10 {
        fill: url(#Degradado_sin_nombre_95);
      }

      .cls-35 {
        filter: url(#luminosity-noclip-21);
      }

      .cls-36 {
        fill: url(#Degradado_sin_nombre_99);
      }

      .cls-36, .cls-37, .cls-38 {
        opacity: .36;
      }

      .cls-39 {
        fill: url(#Degradado_sin_nombre_96);
      }

      .cls-39, .cls-40, .cls-41 {
        opacity: .64;
      }

      .cls-42 {
        opacity: .3;
      }

      .cls-43 {
        mask: url(#mask-10);
      }

      .cls-44 {
        mask: url(#mask-6);
      }

      .cls-45 {
        mask: url(#mask-7);
      }

      .cls-46 {
        mask: url(#mask-18);
      }

      .cls-47 {
        filter: url(#luminosity-noclip-15);
      }

      .cls-48 {
        filter: url(#luminosity-noclip-5);
      }

      .cls-49 {
        fill: #fff;
      }

      .cls-50 {
        mask: url(#mask-17);
      }

      .cls-51 {
        mask: url(#mask);
      }

      .cls-52 {
        fill: url(#Degradado_sin_nombre_101);
      }

      .cls-52, .cls-53, .cls-54 {
        opacity: .18;
      }

      .cls-21 {
        fill: url(#linear-gradient-25);
      }

      .cls-55 {
        mask: url(#mask-20);
      }

      .cls-56 {
        fill: url(#linear-gradient-4);
      }

      .cls-57 {
        fill: #b6c6f2;
      }

      .cls-15 {
        fill: url(#Degradado_sin_nombre_70-2);
      }

      .cls-32 {
        fill: url(#linear-gradient-10);
      }

      .cls-58 {
        fill: url(#Degradado_sin_nombre_86);
      }

      .cls-58, .cls-59, .cls-60 {
        opacity: .45;
      }

      .cls-61 {
        fill: url(#radial-gradient);
      }

      .cls-62 {
        mask: url(#mask-8);
      }

      .cls-63 {
        filter: url(#luminosity-noclip-11);
      }

      .cls-64 {
        mask: url(#mask-2);
      }

      .cls-65 {
        filter: url(#luminosity-noclip-3);
      }

      .cls-66 {
        fill: url(#linear-gradient-20);
        opacity: .45;
      }

      .cls-53 {
        fill: url(#Degradado_sin_nombre_89);
      }

      .cls-67 {
        mask: url(#mask-9);
      }

      .cls-68 {
        fill: url(#linear-gradient-3);
      }

      .cls-69 {
        fill: url(#Degradado_sin_nombre_88);
      }

      .cls-69, .cls-70, .cls-71 {
        opacity: .27;
      }

      .cls-72 {
        mask: url(#mask-21);
      }

      .cls-70 {
        fill: url(#Degradado_sin_nombre_100);
      }

      .cls-73 {
        fill: url(#linear-gradient-30);
        opacity: .91;
      }

      .cls-22 {
        fill: url(#linear-gradient-21);
      }

      .cls-23 {
        fill: url(#linear-gradient-29);
      }

      .cls-74 {
        fill: url(#linear-gradient-8);
      }

      .cls-75 {
        filter: url(#luminosity-noclip-17);
      }

      .cls-76 {
        filter: url(#luminosity-noclip-13);
      }

      .cls-77 {
        fill: url(#Degradado_sin_nombre_94);
      }

      .cls-77, .cls-78, .cls-79 {
        opacity: .82;
      }

      .cls-80 {
        filter: url(#luminosity-noclip-19);
      }

      .cls-81 {
        fill: url(#radial-gradient-2);
      }

      .cls-24 {
        fill: url(#linear-gradient-23);
      }

      .cls-82 {
        fill: url(#linear-gradient-18);
        opacity: .36;
      }

      .cls-37 {
        fill: url(#Degradado_sin_nombre_87);
      }

      .cls-83 {
        filter: url(#luminosity-noclip-9);
      }

      .cls-84 {
        mask: url(#mask-16);
      }

      .cls-33 {
        fill: url(#linear-gradient);
      }

      .cls-85 {
        mask: url(#mask-19);
      }

      .cls-25 {
        fill: url(#linear-gradient-27);
      }

      .cls-26 {
        fill: url(#linear-gradient-11);
      }

      .cls-16 {
        fill: url(#Degradado_sin_nombre_70);
      }

      .cls-78 {
        fill: url(#Degradado_sin_nombre_81);
      }

      .cls-86 {
        fill: url(#linear-gradient-6);
      }

      .cls-54 {
        fill: url(#Degradado_sin_nombre_89-2);
      }

      .cls-40 {
        fill: url(#Degradado_sin_nombre_83-2);
      }

      .cls-87 {
        fill: url(#linear-gradient-12);
        opacity: .09;
      }

      .cls-38 {
        fill: url(#Degradado_sin_nombre_87-2);
      }

      .cls-27 {
        fill: url(#linear-gradient-17);
      }

      .cls-88 {
        mask: url(#mask-11);
      }

      .cls-41 {
        fill: url(#Degradado_sin_nombre_83);
      }

      .cls-89 {
        mask: url(#mask-12);
      }

      .cls-90 {
        mask: url(#mask-4);
      }

      .cls-34 {
        fill: url(#linear-gradient-5);
      }

      .cls-28 {
        fill: url(#linear-gradient-15);
      }

      .cls-79 {
        fill: url(#Degradado_sin_nombre_81-2);
      }

      .cls-91 {
        fill: url(#linear-gradient-22);
        opacity: .55;
      }

      .cls-92 {
        fill: url(#linear-gradient-32);
      }

      .cls-93 {
        fill: url(#linear-gradient-24);
        opacity: .64;
      }

      .cls-29 {
        fill: url(#linear-gradient-19);
      }

      .cls-94 {
        mask: url(#mask-14);
      }

      .cls-8 {
        fill: url(#Degradado_sin_nombre_85);
      }

      .cls-71 {
        fill: url(#Degradado_sin_nombre_88-2);
      }

      .cls-95 {
        fill: url(#linear-gradient-31);
      }

      .cls-96 {
        filter: url(#luminosity-noclip-7);
      }

      .cls-97 {
        fill: url(#linear-gradient-28);
        opacity: .82;
      }

      .cls-4 {
        fill: url(#Degradado_sin_nombre_90-2);
      }

      .cls-11 {
        fill: url(#Degradado_sin_nombre_82-2);
      }

      .cls-59 {
        fill: url(#Degradado_sin_nombre_98);
      }

      .cls-98 {
        fill: url(#linear-gradient-26);
        opacity: .73;
      }

      .cls-99 {
        mask: url(#mask-3);
      }

      .cls-100 {
        filter: url(#luminosity-noclip);
      }

      .cls-60 {
        fill: url(#Degradado_sin_nombre_86-2);
      }
    </style>
    <linearGradient id="linear-gradient" x1="-17.15" y1="45.22" x2="199.26" y2="131.18" gradientUnits="userSpaceOnUse">
      <stop offset="0" stop-color="#f8fbff"/>
      <stop offset=".34" stop-color="#eef4fd"/>
      <stop offset=".9" stop-color="#d6e3fa"/>
      <stop offset="1" stop-color="#d1e0fa"/>
    </linearGradient>
    <linearGradient id="Degradado_sin_nombre_102" data-name="Degradado sin nombre 102" x1="-15.48" y1="42.65" x2="196.49" y2="133.6" gradientUnits="userSpaceOnUse">
      <stop offset="0" stop-color="#f8fbff"/>
      <stop offset=".33" stop-color="#eff5fd"/>
      <stop offset=".85" stop-color="#d9e5fb"/>
      <stop offset="1" stop-color="#d1e0fa"/>
    </linearGradient>
    <linearGradient id="Degradado_sin_nombre_101" data-name="Degradado sin nombre 101" x1="-13.66" y1="40.19" x2="193.6" y2="135.87" gradientUnits="userSpaceOnUse">
      <stop offset="0" stop-color="#f8fbff"/>
      <stop offset=".32" stop-color="#f0f5fe"/>
      <stop offset=".8" stop-color="#dbe7fb"/>
      <stop offset="1" stop-color="#d1e0fa"/>
    </linearGradient>
    <linearGradient id="Degradado_sin_nombre_100" data-name="Degradado sin nombre 100" x1="-11.7" y1="37.82" x2="190.58" y2="137.97" gradientUnits="userSpaceOnUse">
      <stop offset="0" stop-color="#f8fbff"/>
      <stop offset=".31" stop-color="#f0f6fe"/>
      <stop offset=".77" stop-color="#dde8fb"/>
      <stop offset="1" stop-color="#d1e0fa"/>
    </linearGradient>
    <linearGradient id="Degradado_sin_nombre_99" data-name="Degradado sin nombre 99" x1="-9.61" y1="35.57" x2="187.45" y2="139.91" gradientUnits="userSpaceOnUse">
      <stop offset="0" stop-color="#f8fbff"/>
      <stop offset=".31" stop-color="#f1f6fe"/>
      <stop offset=".74" stop-color="#dfe9fb"/>
      <stop offset="1" stop-color="#d1e0fa"/>
    </linearGradient>
    <linearGradient id="Degradado_sin_nombre_98" data-name="Degradado sin nombre 98" x1="-7.4" y1="33.45" x2="184.22" y2="141.67" gradientUnits="userSpaceOnUse">
      <stop offset="0" stop-color="#f8fbff"/>
      <stop offset=".31" stop-color="#f1f6fe"/>
      <stop offset=".72" stop-color="#e0ebfc"/>
      <stop offset="1" stop-color="#d1e0fa"/>
    </linearGradient>
    <linearGradient id="Degradado_sin_nombre_97" data-name="Degradado sin nombre 97" x1="-5.06" y1="31.44" x2="180.9" y2="143.26" gradientUnits="userSpaceOnUse">
      <stop offset="0" stop-color="#f8fbff"/>
      <stop offset=".3" stop-color="#f2f7fe"/>
      <stop offset=".7" stop-color="#e2ebfc"/>
      <stop offset="1" stop-color="#d1e0fa"/>
    </linearGradient>
    <linearGradient id="Degradado_sin_nombre_96" data-name="Degradado sin nombre 96" x1="-2.62" y1="29.57" x2="177.52" y2="144.67" gradientUnits="userSpaceOnUse">
      <stop offset="0" stop-color="#f8fbff"/>
      <stop offset=".3" stop-color="#f2f7fe"/>
      <stop offset=".68" stop-color="#e3ecfc"/>
      <stop offset="1" stop-color="#d1e0fa"/>
    </linearGradient>
    <linearGradient id="Degradado_sin_nombre_95" data-name="Degradado sin nombre 95" x1="-.08" y1="27.84" x2="174.07" y2="145.9" gradientUnits="userSpaceOnUse">
      <stop offset="0" stop-color="#f8fbff"/>
      <stop offset=".31" stop-color="#f3f7fe"/>
      <stop offset=".67" stop-color="#e4edfc"/>
      <stop offset="1" stop-color="#d1e0fa"/>
    </linearGradient>
    <linearGradient id="Degradado_sin_nombre_94" data-name="Degradado sin nombre 94" x1="2.55" y1="26.25" x2="170.57" y2="146.95" gradientUnits="userSpaceOnUse">
      <stop offset="0" stop-color="#f8fbff"/>
      <stop offset=".31" stop-color="#f3f7fe"/>
      <stop offset=".66" stop-color="#e5eefc"/>
      <stop offset="1" stop-color="#d1e0fa"/>
    </linearGradient>
    <linearGradient id="Degradado_sin_nombre_93" data-name="Degradado sin nombre 93" x1="5.26" y1="24.8" x2="167.03" y2="147.82" gradientUnits="userSpaceOnUse">
      <stop offset="0" stop-color="#f8fbff"/>
      <stop offset=".31" stop-color="#f3f7fe"/>
      <stop offset=".65" stop-color="#e6eefc"/>
      <stop offset="1" stop-color="#d1e0fa"/>
    </linearGradient>
    <linearGradient id="linear-gradient-2" x1="8.05" y1="23.5" x2="163.47" y2="148.51" gradientUnits="userSpaceOnUse">
      <stop offset="0" stop-color="#f8fbff"/>
      <stop offset=".32" stop-color="#f3f8fe"/>
      <stop offset=".65" stop-color="#e7effc"/>
      <stop offset=".98" stop-color="#d2e1fa"/>
      <stop offset="1" stop-color="#d1e0fa"/>
    </linearGradient>
    <linearGradient id="linear-gradient-3" x1="-54.27" y1="29.34" x2="215.74" y2="138.79" gradientUnits="userSpaceOnUse">
      <stop offset="0" stop-color="#dee8f9"/>
      <stop offset="1" stop-color="#f8fbff"/>
    </linearGradient>
    <linearGradient id="linear-gradient-4" x1="-21.37" y1="-17.11" x2="185.64" y2="66.8" gradientUnits="userSpaceOnUse">
      <stop offset="0" stop-color="#f7bd4e"/>
      <stop offset="1" stop-color="#f49554"/>
    </linearGradient>
    <linearGradient id="linear-gradient-5" x1="24.79" y1="128.63" x2="47.54" y2="128.63" gradientUnits="userSpaceOnUse">
      <stop offset="0" stop-color="#fff"/>
      <stop offset=".32" stop-color="#fbfbfd"/>
      <stop offset=".61" stop-color="#eff2f9"/>
      <stop offset=".9" stop-color="#dde3f2"/>
      <stop offset="1" stop-color="#d5ddef"/>
    </linearGradient>
    <linearGradient id="Degradado_sin_nombre_90" data-name="Degradado sin nombre 90" x1="25.25" y1="127.85" x2="47.09" y2="129.41" gradientUnits="userSpaceOnUse">
      <stop offset="0" stop-color="#fff"/>
      <stop offset=".32" stop-color="#fbfbfd"/>
      <stop offset=".62" stop-color="#eff2f9"/>
      <stop offset=".91" stop-color="#dce3f1"/>
      <stop offset="1" stop-color="#d5ddef"/>
    </linearGradient>
    <linearGradient id="Degradado_sin_nombre_89" data-name="Degradado sin nombre 89" x1="25.76" y1="127.13" x2="46.59" y2="130.13" gradientUnits="userSpaceOnUse">
      <stop offset="0" stop-color="#fff"/>
      <stop offset=".31" stop-color="#fbfbfd"/>
      <stop offset=".62" stop-color="#eff2f9"/>
      <stop offset=".91" stop-color="#dce3f1"/>
      <stop offset="1" stop-color="#d5ddef"/>
    </linearGradient>
    <linearGradient id="Degradado_sin_nombre_88" data-name="Degradado sin nombre 88" x1="26.3" y1="126.48" x2="46.06" y2="130.78" gradientUnits="userSpaceOnUse">
      <stop offset="0" stop-color="#fff"/>
      <stop offset=".31" stop-color="#fbfbfd"/>
      <stop offset=".62" stop-color="#eff2f9"/>
      <stop offset=".91" stop-color="#dce2f1"/>
      <stop offset="1" stop-color="#d5ddef"/>
    </linearGradient>
    <linearGradient id="Degradado_sin_nombre_87" data-name="Degradado sin nombre 87" x1="26.88" y1="125.9" x2="45.48" y2="131.36" gradientUnits="userSpaceOnUse">
      <stop offset="0" stop-color="#fff"/>
      <stop offset=".31" stop-color="#fbfbfd"/>
      <stop offset=".62" stop-color="#eff2f9"/>
      <stop offset=".92" stop-color="#dbe2f1"/>
      <stop offset="1" stop-color="#d5ddef"/>
    </linearGradient>
    <linearGradient id="Degradado_sin_nombre_86" data-name="Degradado sin nombre 86" x1="27.49" y1="125.39" x2="44.89" y2="131.88" gradientUnits="userSpaceOnUse">
      <stop offset="0" stop-color="#fff"/>
      <stop offset=".31" stop-color="#fbfbfd"/>
      <stop offset=".62" stop-color="#eff2f9"/>
      <stop offset=".92" stop-color="#dbe2f1"/>
      <stop offset="1" stop-color="#d5ddef"/>
    </linearGradient>
    <linearGradient id="Degradado_sin_nombre_85" data-name="Degradado sin nombre 85" x1="28.11" y1="124.95" x2="44.27" y2="132.33" gradientUnits="userSpaceOnUse">
      <stop offset="0" stop-color="#fff"/>
      <stop offset=".31" stop-color="#fbfbfd"/>
      <stop offset=".62" stop-color="#eff2f8"/>
      <stop offset=".92" stop-color="#dbe2f1"/>
      <stop offset="1" stop-color="#d5ddef"/>
    </linearGradient>
    <linearGradient id="Degradado_sin_nombre_83" data-name="Degradado sin nombre 83" x1="28.74" y1="124.58" x2="43.63" y2="132.71" gradientUnits="userSpaceOnUse">
      <stop offset="0" stop-color="#fff"/>
      <stop offset=".31" stop-color="#fafbfd"/>
      <stop offset=".62" stop-color="#eef1f8"/>
      <stop offset=".93" stop-color="#dae1f1"/>
      <stop offset="1" stop-color="#d5ddef"/>
    </linearGradient>
    <linearGradient id="Degradado_sin_nombre_82" data-name="Degradado sin nombre 82" x1="29.39" y1="124.27" x2="43" y2="133.02" gradientUnits="userSpaceOnUse">
      <stop offset="0" stop-color="#fff"/>
      <stop offset=".31" stop-color="#fafbfd"/>
      <stop offset=".62" stop-color="#eef1f8"/>
      <stop offset=".93" stop-color="#dae1f1"/>
      <stop offset="1" stop-color="#d5ddef"/>
    </linearGradient>
    <linearGradient id="Degradado_sin_nombre_81" data-name="Degradado sin nombre 81" x1="30.03" y1="124.03" x2="42.36" y2="133.26" gradientUnits="userSpaceOnUse">
      <stop offset="0" stop-color="#fff"/>
      <stop offset=".31" stop-color="#fafbfd"/>
      <stop offset=".62" stop-color="#eef1f8"/>
      <stop offset=".93" stop-color="#dae1f0"/>
      <stop offset="1" stop-color="#d5ddef"/>
    </linearGradient>
    <linearGradient id="Degradado_sin_nombre_70" data-name="Degradado sin nombre 70" x1="30.66" y1="123.86" x2="41.72" y2="133.44" gradientUnits="userSpaceOnUse">
      <stop offset="0" stop-color="#fff"/>
      <stop offset=".3" stop-color="#fafbfd"/>
      <stop offset=".62" stop-color="#eef1f8"/>
      <stop offset=".94" stop-color="#d9e0f0"/>
      <stop offset="1" stop-color="#d5ddef"/>
    </linearGradient>
    <linearGradient id="linear-gradient-6" x1="31.29" y1="123.75" x2="41.1" y2="133.56" gradientUnits="userSpaceOnUse">
      <stop offset="0" stop-color="#fff"/>
      <stop offset=".3" stop-color="#fafbfd"/>
      <stop offset=".62" stop-color="#eef1f8"/>
      <stop offset=".94" stop-color="#d9e0f0"/>
      <stop offset="1" stop-color="#d5ddef"/>
    </linearGradient>
    <radialGradient id="radial-gradient" cx="27.02" cy="113.93" fx="27.02" fy="113.93" r="24.35" gradientUnits="userSpaceOnUse">
      <stop offset="0" stop-color="#d5ddef"/>
      <stop offset=".06" stop-color="#d9e0f0"/>
      <stop offset=".38" stop-color="#eef1f8"/>
      <stop offset=".7" stop-color="#fafbfd"/>
      <stop offset="1" stop-color="#fff"/>
    </radialGradient>
    <linearGradient id="linear-gradient-7" y1="93.45" y2="93.45" xlink:href="#linear-gradient-5"/>
    <linearGradient id="Degradado_sin_nombre_90-2" data-name="Degradado sin nombre 90" x1="25.25" y1="92.67" x2="47.09" y2="94.23" xlink:href="#Degradado_sin_nombre_90"/>
    <linearGradient id="Degradado_sin_nombre_89-2" data-name="Degradado sin nombre 89" x1="25.76" y1="91.96" x2="46.59" y2="94.95" xlink:href="#Degradado_sin_nombre_89"/>
    <linearGradient id="Degradado_sin_nombre_88-2" data-name="Degradado sin nombre 88" x1="26.3" y1="91.31" x2="46.06" y2="95.6" xlink:href="#Degradado_sin_nombre_88"/>
    <linearGradient id="Degradado_sin_nombre_87-2" data-name="Degradado sin nombre 87" x1="26.88" y1="90.73" x2="45.48" y2="96.19" xlink:href="#Degradado_sin_nombre_87"/>
    <linearGradient id="Degradado_sin_nombre_86-2" data-name="Degradado sin nombre 86" x1="27.49" y1="90.22" x2="44.89" y2="96.71" xlink:href="#Degradado_sin_nombre_86"/>
    <linearGradient id="Degradado_sin_nombre_85-2" data-name="Degradado sin nombre 85" x1="28.11" y1="89.77" x2="44.27" y2="97.15" xlink:href="#Degradado_sin_nombre_85"/>
    <linearGradient id="Degradado_sin_nombre_83-2" data-name="Degradado sin nombre 83" x1="28.74" y1="89.4" x2="43.63" y2="97.53" xlink:href="#Degradado_sin_nombre_83"/>
    <linearGradient id="Degradado_sin_nombre_82-2" data-name="Degradado sin nombre 82" x1="29.39" y1="89.1" x2="43" y2="97.84" xlink:href="#Degradado_sin_nombre_82"/>
    <linearGradient id="Degradado_sin_nombre_81-2" data-name="Degradado sin nombre 81" x1="30.03" y1="88.86" x2="42.36" y2="98.09" xlink:href="#Degradado_sin_nombre_81"/>
    <linearGradient id="Degradado_sin_nombre_70-2" data-name="Degradado sin nombre 70" x1="30.66" y1="88.69" x2="41.72" y2="98.27" xlink:href="#Degradado_sin_nombre_70"/>
    <linearGradient id="linear-gradient-8" x1="31.29" y1="88.57" x2="41.1" y2="98.39" xlink:href="#linear-gradient-6"/>
    <radialGradient id="radial-gradient-2" cy="78.76" fy="78.76" r="24.35" xlink:href="#radial-gradient"/>
    <filter id="luminosity-noclip" x="24.83" y="46.95" width="22.67" height="22.67" color-interpolation-filters="sRGB" filterUnits="userSpaceOnUse">
      <feFlood flood-color="#fff" result="bg"/>
      <feBlend in="SourceGraphic" in2="bg"/>
    </filter>
    <filter id="luminosity-noclip-2" x="24.83" y="-7359.3" width="22.67" height="32766" color-interpolation-filters="sRGB" filterUnits="userSpaceOnUse">
      <feFlood flood-color="#fff" result="bg"/>
      <feBlend in="SourceGraphic" in2="bg"/>
    </filter>
    <mask id="mask-1" x="24.83" y="-7359.3" width="22.67" height="32766" maskUnits="userSpaceOnUse"/>
    <linearGradient id="linear-gradient-9" x1="24.83" y1="58.28" x2="47.5" y2="58.28" gradientUnits="userSpaceOnUse">
      <stop offset="0" stop-color="#000"/>
      <stop offset="1" stop-color="#000"/>
    </linearGradient>
    <mask id="mask" x="24.83" y="46.95" width="22.67" height="22.67" maskUnits="userSpaceOnUse">
      <g class="cls-100">
        <g class="cls-30">
          <path class="cls-19" d="M47.5,58.28c0-6.26-5.07-11.33-11.33-11.33s-11.33,5.07-11.33,11.33,5.07,11.33,11.33,11.33,11.33-5.07,11.33-11.33Z"/>
        </g>
      </g>
    </mask>
    <linearGradient id="linear-gradient-10" x1="24.83" y1="58.28" x2="47.5" y2="58.28" gradientUnits="userSpaceOnUse">
      <stop offset="0" stop-color="#5252db"/>
      <stop offset="1" stop-color="#9797ff"/>
    </linearGradient>
    <filter id="luminosity-noclip-3" x="25.18" y="47.29" width="21.98" height="21.98" color-interpolation-filters="sRGB" filterUnits="userSpaceOnUse">
      <feFlood flood-color="#fff" result="bg"/>
      <feBlend in="SourceGraphic" in2="bg"/>
    </filter>
    <filter id="luminosity-noclip-4" x="25.18" y="-7359.3" width="21.98" height="32766" color-interpolation-filters="sRGB" filterUnits="userSpaceOnUse">
      <feFlood flood-color="#fff" result="bg"/>
      <feBlend in="SourceGraphic" in2="bg"/>
    </filter>
    <mask id="mask-3" x="25.18" y="-7359.3" width="21.98" height="32766" maskUnits="userSpaceOnUse"/>
    <linearGradient id="linear-gradient-11" x1="25.29" y1="57.5" x2="47.05" y2="59.06" gradientUnits="userSpaceOnUse">
      <stop offset="0" stop-color="#171717"/>
      <stop offset="1" stop-color="#171717"/>
    </linearGradient>
    <mask id="mask-2" x="25.18" y="47.29" width="21.98" height="21.98" maskUnits="userSpaceOnUse">
      <g class="cls-65">
        <g class="cls-99">
          <path class="cls-26" d="M47.15,58.28c0-6.07-4.92-10.99-10.99-10.99s-10.99,4.92-10.99,10.99,4.92,10.99,10.99,10.99,10.99-4.92,10.99-10.99Z"/>
        </g>
      </g>
    </mask>
    <linearGradient id="linear-gradient-12" x1="25.29" y1="57.5" x2="47.05" y2="59.06" xlink:href="#linear-gradient-10"/>
    <filter id="luminosity-noclip-5" x="25.52" y="47.64" width="21.29" height="21.29" color-interpolation-filters="sRGB" filterUnits="userSpaceOnUse">
      <feFlood flood-color="#fff" result="bg"/>
      <feBlend in="SourceGraphic" in2="bg"/>
    </filter>
    <filter id="luminosity-noclip-6" x="25.52" y="-7359.3" width="21.29" height="32766" color-interpolation-filters="sRGB" filterUnits="userSpaceOnUse">
      <feFlood flood-color="#fff" result="bg"/>
      <feBlend in="SourceGraphic" in2="bg"/>
    </filter>
    <mask id="mask-5" x="25.52" y="-7359.3" width="21.29" height="32766" maskUnits="userSpaceOnUse"/>
    <linearGradient id="linear-gradient-13" x1="25.79" y1="56.79" x2="46.56" y2="59.77" gradientUnits="userSpaceOnUse">
      <stop offset="0" stop-color="#2e2e2e"/>
      <stop offset="1" stop-color="#2e2e2e"/>
    </linearGradient>
    <mask id="mask-4" x="25.52" y="47.64" width="21.29" height="21.29" maskUnits="userSpaceOnUse">
      <g class="cls-48">
        <g class="cls-12">
          <path class="cls-20" d="M46.81,58.28c0-5.88-4.76-10.64-10.64-10.64s-10.64,4.76-10.64,10.64,4.76,10.64,10.64,10.64,10.64-4.76,10.64-10.64Z"/>
        </g>
      </g>
    </mask>
    <linearGradient id="linear-gradient-14" x1="25.79" y1="56.79" x2="46.56" y2="59.77" xlink:href="#linear-gradient-10"/>
    <filter id="luminosity-noclip-7" x="25.87" y="47.98" width="20.6" height="20.6" color-interpolation-filters="sRGB" filterUnits="userSpaceOnUse">
      <feFlood flood-color="#fff" result="bg"/>
      <feBlend in="SourceGraphic" in2="bg"/>
    </filter>
    <filter id="luminosity-noclip-8" x="25.87" y="-7359.3" width="20.6" height="32766" color-interpolation-filters="sRGB" filterUnits="userSpaceOnUse">
      <feFlood flood-color="#fff" result="bg"/>
      <feBlend in="SourceGraphic" in2="bg"/>
    </filter>
    <mask id="mask-7" x="25.87" y="-7359.3" width="20.6" height="32766" maskUnits="userSpaceOnUse"/>
    <linearGradient id="linear-gradient-15" x1="26.33" y1="56.14" x2="46.03" y2="60.42" gradientUnits="userSpaceOnUse">
      <stop offset="0" stop-color="#464646"/>
      <stop offset="1" stop-color="#464646"/>
    </linearGradient>
    <mask id="mask-6" x="25.87" y="47.98" width="20.6" height="20.6" maskUnits="userSpaceOnUse">
      <g class="cls-96">
        <g class="cls-45">
          <path class="cls-28" d="M46.47,58.28c0-5.69-4.61-10.3-10.3-10.3s-10.3,4.61-10.3,10.3,4.61,10.3,10.3,10.3,10.3-4.61,10.3-10.3Z"/>
        </g>
      </g>
    </mask>
    <linearGradient id="linear-gradient-16" x1="26.33" y1="56.14" x2="46.03" y2="60.42" xlink:href="#linear-gradient-10"/>
    <filter id="luminosity-noclip-9" x="26.21" y="48.32" width="19.91" height="19.91" color-interpolation-filters="sRGB" filterUnits="userSpaceOnUse">
      <feFlood flood-color="#fff" result="bg"/>
      <feBlend in="SourceGraphic" in2="bg"/>
    </filter>
    <filter id="luminosity-noclip-10" x="26.21" y="-7359.3" width="19.91" height="32766" color-interpolation-filters="sRGB" filterUnits="userSpaceOnUse">
      <feFlood flood-color="#fff" result="bg"/>
      <feBlend in="SourceGraphic" in2="bg"/>
    </filter>
    <mask id="mask-9" x="26.21" y="-7359.3" width="19.91" height="32766" maskUnits="userSpaceOnUse"/>
    <linearGradient id="linear-gradient-17" x1="26.91" y1="55.56" x2="45.46" y2="61.01" gradientUnits="userSpaceOnUse">
      <stop offset="0" stop-color="#5d5d5d"/>
      <stop offset="1" stop-color="#5d5d5d"/>
    </linearGradient>
    <mask id="mask-8" x="26.21" y="48.32" width="19.91" height="19.91" maskUnits="userSpaceOnUse">
      <g class="cls-83">
        <g class="cls-67">
          <path class="cls-27" d="M46.12,58.28c0-5.5-4.46-9.95-9.96-9.95s-9.96,4.46-9.96,9.95,4.46,9.96,9.96,9.96,9.96-4.46,9.96-9.96Z"/>
        </g>
      </g>
    </mask>
    <linearGradient id="linear-gradient-18" x1="26.91" y1="55.56" x2="45.46" y2="61.01" xlink:href="#linear-gradient-10"/>
    <filter id="luminosity-noclip-11" x="26.55" y="48.67" width="19.22" height="19.22" color-interpolation-filters="sRGB" filterUnits="userSpaceOnUse">
      <feFlood flood-color="#fff" result="bg"/>
      <feBlend in="SourceGraphic" in2="bg"/>
    </filter>
    <filter id="luminosity-noclip-12" x="26.55" y="-7359.3" width="19.22" height="32766" color-interpolation-filters="sRGB" filterUnits="userSpaceOnUse">
      <feFlood flood-color="#fff" result="bg"/>
      <feBlend in="SourceGraphic" in2="bg"/>
    </filter>
    <mask id="mask-11" x="26.55" y="-7359.3" width="19.22" height="32766" maskUnits="userSpaceOnUse"/>
    <linearGradient id="linear-gradient-19" x1="27.51" y1="55.05" x2="44.86" y2="61.52" gradientUnits="userSpaceOnUse">
      <stop offset="0" stop-color="#747474"/>
      <stop offset="1" stop-color="#747474"/>
    </linearGradient>
    <mask id="mask-10" x="26.55" y="48.67" width="19.22" height="19.22" maskUnits="userSpaceOnUse">
      <g class="cls-63">
        <g class="cls-88">
          <path class="cls-29" d="M45.78,58.28c0-5.31-4.3-9.61-9.61-9.61s-9.61,4.3-9.61,9.61,4.3,9.61,9.61,9.61,9.61-4.3,9.61-9.61Z"/>
        </g>
      </g>
    </mask>
    <linearGradient id="linear-gradient-20" x1="27.51" y1="55.05" x2="44.86" y2="61.52" xlink:href="#linear-gradient-10"/>
    <filter id="luminosity-noclip-13" x="26.9" y="49.01" width="18.53" height="18.53" color-interpolation-filters="sRGB" filterUnits="userSpaceOnUse">
      <feFlood flood-color="#fff" result="bg"/>
      <feBlend in="SourceGraphic" in2="bg"/>
    </filter>
    <filter id="luminosity-noclip-14" x="26.9" y="-7359.3" width="18.53" height="32766" color-interpolation-filters="sRGB" filterUnits="userSpaceOnUse">
      <feFlood flood-color="#fff" result="bg"/>
      <feBlend in="SourceGraphic" in2="bg"/>
    </filter>
    <mask id="mask-13" x="26.9" y="-7359.3" width="18.53" height="32766" maskUnits="userSpaceOnUse"/>
    <linearGradient id="linear-gradient-21" x1="28.13" y1="54.61" x2="44.25" y2="61.97" gradientUnits="userSpaceOnUse">
      <stop offset="0" stop-color="#8b8b8b"/>
      <stop offset="1" stop-color="#8b8b8b"/>
    </linearGradient>
    <mask id="mask-12" x="26.9" y="49.01" width="18.53" height="18.53" maskUnits="userSpaceOnUse">
      <g class="cls-76">
        <g class="cls-13">
          <path class="cls-22" d="M45.43,58.28c0-5.12-4.15-9.26-9.27-9.26s-9.27,4.15-9.27,9.26,4.15,9.27,9.27,9.27,9.27-4.15,9.27-9.27Z"/>
        </g>
      </g>
    </mask>
    <linearGradient id="linear-gradient-22" x1="28.13" y1="54.61" x2="44.25" y2="61.97" xlink:href="#linear-gradient-10"/>
    <filter id="luminosity-noclip-15" x="27.24" y="49.36" width="17.84" height="17.84" color-interpolation-filters="sRGB" filterUnits="userSpaceOnUse">
      <feFlood flood-color="#fff" result="bg"/>
      <feBlend in="SourceGraphic" in2="bg"/>
    </filter>
    <filter id="luminosity-noclip-16" x="27.24" y="-7359.3" width="17.84" height="32766" color-interpolation-filters="sRGB" filterUnits="userSpaceOnUse">
      <feFlood flood-color="#fff" result="bg"/>
      <feBlend in="SourceGraphic" in2="bg"/>
    </filter>
    <mask id="mask-15" x="27.24" y="-7359.3" width="17.84" height="32766" maskUnits="userSpaceOnUse"/>
    <linearGradient id="linear-gradient-23" x1="28.76" y1="54.23" x2="43.62" y2="62.35" gradientUnits="userSpaceOnUse">
      <stop offset="0" stop-color="#a2a2a2"/>
      <stop offset="1" stop-color="#a2a2a2"/>
    </linearGradient>
    <mask id="mask-14" x="27.24" y="49.36" width="17.84" height="17.84" maskUnits="userSpaceOnUse">
      <g class="cls-47">
        <g class="cls-5">
          <path class="cls-24" d="M45.09,58.28c0-4.93-3.99-8.92-8.92-8.92s-8.92,4-8.92,8.92,4,8.92,8.92,8.92,8.92-4,8.92-8.92Z"/>
        </g>
      </g>
    </mask>
    <linearGradient id="linear-gradient-24" x1="28.76" y1="54.23" x2="43.62" y2="62.35" xlink:href="#linear-gradient-10"/>
    <filter id="luminosity-noclip-17" x="27.59" y="49.7" width="17.15" height="17.15" color-interpolation-filters="sRGB" filterUnits="userSpaceOnUse">
      <feFlood flood-color="#fff" result="bg"/>
      <feBlend in="SourceGraphic" in2="bg"/>
    </filter>
    <filter id="luminosity-noclip-18" x="27.59" y="-7359.3" width="17.15" height="32766" color-interpolation-filters="sRGB" filterUnits="userSpaceOnUse">
      <feFlood flood-color="#fff" result="bg"/>
      <feBlend in="SourceGraphic" in2="bg"/>
    </filter>
    <mask id="mask-17" x="27.59" y="-7359.3" width="17.15" height="32766" maskUnits="userSpaceOnUse"/>
    <linearGradient id="linear-gradient-25" x1="29.4" y1="53.93" x2="42.99" y2="62.66" gradientUnits="userSpaceOnUse">
      <stop offset="0" stop-color="#b9b9b9"/>
      <stop offset="1" stop-color="#b9b9b9"/>
    </linearGradient>
    <mask id="mask-16" x="27.59" y="49.7" width="17.15" height="17.15" maskUnits="userSpaceOnUse">
      <g class="cls-75">
        <g class="cls-50">
          <path class="cls-21" d="M44.74,58.28c0-4.74-3.84-8.58-8.58-8.58s-8.58,3.84-8.58,8.58,3.84,8.58,8.58,8.58,8.58-3.84,8.58-8.58Z"/>
        </g>
      </g>
    </mask>
    <linearGradient id="linear-gradient-26" x1="29.4" y1="53.93" x2="42.99" y2="62.66" xlink:href="#linear-gradient-10"/>
    <filter id="luminosity-noclip-19" x="27.93" y="50.05" width="16.47" height="16.47" color-interpolation-filters="sRGB" filterUnits="userSpaceOnUse">
      <feFlood flood-color="#fff" result="bg"/>
      <feBlend in="SourceGraphic" in2="bg"/>
    </filter>
    <filter id="luminosity-noclip-20" x="27.93" y="-7359.3" width="16.47" height="32766" color-interpolation-filters="sRGB" filterUnits="userSpaceOnUse">
      <feFlood flood-color="#fff" result="bg"/>
      <feBlend in="SourceGraphic" in2="bg"/>
    </filter>
    <mask id="mask-19" x="27.93" y="-7359.3" width="16.47" height="32766" maskUnits="userSpaceOnUse"/>
    <linearGradient id="linear-gradient-27" x1="30.03" y1="53.69" x2="42.35" y2="62.91" gradientUnits="userSpaceOnUse">
      <stop offset="0" stop-color="#d1d1d1"/>
      <stop offset="1" stop-color="#d1d1d1"/>
    </linearGradient>
    <mask id="mask-18" x="27.93" y="50.05" width="16.47" height="16.47" maskUnits="userSpaceOnUse">
      <g class="cls-80">
        <g class="cls-85">
          <path class="cls-25" d="M44.4,58.28c0-4.54-3.69-8.23-8.23-8.23s-8.23,3.69-8.23,8.23,3.69,8.23,8.23,8.23,8.23-3.69,8.23-8.23Z"/>
        </g>
      </g>
    </mask>
    <linearGradient id="linear-gradient-28" x1="30.03" y1="53.69" x2="42.35" y2="62.91" xlink:href="#linear-gradient-10"/>
    <filter id="luminosity-noclip-21" x="28.28" y="50.39" width="15.77" height="15.77" color-interpolation-filters="sRGB" filterUnits="userSpaceOnUse">
      <feFlood flood-color="#fff" result="bg"/>
      <feBlend in="SourceGraphic" in2="bg"/>
    </filter>
    <filter id="luminosity-noclip-22" x="28.28" y="-7359.3" width="15.77" height="32766" color-interpolation-filters="sRGB" filterUnits="userSpaceOnUse">
      <feFlood flood-color="#fff" result="bg"/>
      <feBlend in="SourceGraphic" in2="bg"/>
    </filter>
    <mask id="mask-21" x="28.28" y="-7359.3" width="15.77" height="32766" maskUnits="userSpaceOnUse"/>
    <linearGradient id="linear-gradient-29" x1="30.67" y1="53.51" x2="41.72" y2="63.09" gradientUnits="userSpaceOnUse">
      <stop offset="0" stop-color="#e8e8e8"/>
      <stop offset="1" stop-color="#e8e8e8"/>
    </linearGradient>
    <mask id="mask-20" x="28.28" y="50.39" width="15.77" height="15.77" maskUnits="userSpaceOnUse">
      <g class="cls-35">
        <g class="cls-72">
          <path class="cls-23" d="M44.05,58.28c0-4.35-3.53-7.89-7.89-7.89s-7.89,3.53-7.89,7.89,3.53,7.89,7.89,7.89,7.89-3.53,7.89-7.89Z"/>
        </g>
      </g>
    </mask>
    <linearGradient id="linear-gradient-30" x1="30.67" y1="53.51" x2="41.72" y2="63.09" xlink:href="#linear-gradient-10"/>
    <linearGradient id="linear-gradient-31" x1="31.29" y1="53.4" x2="41.1" y2="63.21" xlink:href="#linear-gradient-10"/>
    <linearGradient id="linear-gradient-32" x1="28.87" y1="58.28" x2="43.46" y2="58.28" xlink:href="#linear-gradient-10"/>
  </defs>
  <g id="Capa_1-2" data-name="Capa 1">
    <g>
      <g>
        <g>
          <rect class="cls-33" width="171.98" height="172.38" rx="9.48" ry="9.48"/>
          <rect class="cls-3" x="1.11" y="1.14" width="169.76" height="170.11" rx="9" ry="9"/>
          <rect class="cls-52" x="2.22" y="2.27" width="167.55" height="167.84" rx="8.51" ry="8.51"/>
          <rect class="cls-70" x="3.33" y="3.41" width="165.33" height="165.57" rx="8.02" ry="8.02"/>
          <rect class="cls-36" x="4.43" y="4.54" width="163.11" height="163.29" rx="7.53" ry="7.53"/>
          <rect class="cls-59" x="5.54" y="5.68" width="160.89" height="161.02" rx="7.05" ry="7.05"/>
          <rect class="cls-6" x="6.65" y="6.82" width="158.68" height="158.75" rx="6.56" ry="6.56"/>
          <rect class="cls-39" x="7.76" y="7.95" width="156.46" height="156.48" rx="6.07" ry="6.07"/>
          <rect class="cls-10" x="8.87" y="9.09" width="154.24" height="154.21" rx="5.59" ry="5.59"/>
          <rect class="cls-77" x="9.98" y="10.22" width="152.02" height="151.93" rx="5.1" ry="5.1"/>
          <rect class="cls-14" x="11.09" y="11.36" width="149.81" height="149.66" rx="4.61" ry="4.61"/>
          <rect class="cls-18" x="12.2" y="12.5" width="147.59" height="147.39" rx="4.13" ry="4.13"/>
        </g>
        <path class="cls-68" d="M14.26,12.5h143.45c1.14,0,2.07.93,2.07,2.07v143.25c0,1.14-.93,2.07-2.07,2.07H14.26c-1.14,0-2.07-.93-2.07-2.07V14.56c0-1.14.93-2.07,2.07-2.07Z"/>
        <path class="cls-56" d="M14.27,12.5h143.45c1.14,0,2.07.93,2.07,2.07v25.09H12.2V14.56c0-1.14.93-2.07,2.07-2.07Z"/>
      </g>
      <g>
        <rect class="cls-57" x="35.56" y="63.96" width="1.22" height="1.22"/>
        <path class="cls-57" d="M36.78,126.55h-1.22v-2.36h1.22v2.36ZM36.78,121.83h-1.22v-2.36h1.22v2.36ZM36.78,117.11h-1.22v-2.36h1.22v2.36ZM36.78,112.39h-1.22v-2.36h1.22v2.36ZM36.78,107.67h-1.22v-2.36h1.22v2.36ZM36.78,102.95h-1.22v-2.36h1.22v2.36ZM36.78,98.23h-1.22v-2.36h1.22v2.36ZM36.78,93.5h-1.22v-2.36h1.22v2.36ZM36.78,88.78h-1.22v-2.36h1.22v2.36ZM36.78,84.06h-1.22v-2.36h1.22v2.36ZM36.78,79.34h-1.22v-2.36h1.22v2.36ZM36.78,74.62h-1.22v-2.36h1.22v2.36ZM36.78,69.9h-1.22v-2.36h1.22v2.36Z"/>
        <rect class="cls-57" x="35.56" y="128.91" width="1.22" height="1.22"/>
      </g>
      <path class="cls-49" d="M144.87,22.81l-3.72,4.72c-.08.1,0,.26.12.26h7.43c.13,0,.21-.15.12-.26l-3.72-4.72c-.06-.08-.18-.08-.25,0Z"/>
      <g>
        <g>
          <path class="cls-34" d="M47.54,128.63c0-6.28-5.09-11.37-11.38-11.37s-11.38,5.09-11.38,11.37,5.09,11.38,11.38,11.38,11.38-5.09,11.38-11.38Z"/>
          <path class="cls-2" d="M47.19,128.63c0-6.09-4.94-11.03-11.03-11.03s-11.03,4.94-11.03,11.03,4.94,11.03,11.03,11.03,11.03-4.94,11.03-11.03Z"/>
          <path class="cls-53" d="M46.84,128.63c0-5.9-4.78-10.68-10.68-10.68s-10.68,4.78-10.68,10.68,4.78,10.68,10.68,10.68,10.68-4.78,10.68-10.68Z"/>
          <path class="cls-69" d="M46.5,128.63c0-5.7-4.63-10.33-10.33-10.33s-10.33,4.63-10.33,10.33,4.63,10.33,10.33,10.33,10.33-4.63,10.33-10.33Z"/>
          <path class="cls-37" d="M46.15,128.63c0-5.51-4.47-9.98-9.98-9.98s-9.98,4.47-9.98,9.98,4.47,9.98,9.98,9.98,9.98-4.47,9.98-9.98Z"/>
          <path class="cls-58" d="M45.8,128.63c0-5.32-4.31-9.63-9.63-9.63s-9.63,4.31-9.63,9.63,4.31,9.63,9.63,9.63,9.63-4.31,9.63-9.63Z"/>
          <path class="cls-8" d="M45.45,128.63c0-5.13-4.16-9.28-9.29-9.28s-9.29,4.16-9.29,9.28,4.16,9.29,9.29,9.29,9.29-4.16,9.29-9.29Z"/>
          <path class="cls-41" d="M45.1,128.63c0-4.93-4-8.94-8.94-8.94s-8.94,4-8.94,8.94,4,8.94,8.94,8.94,8.94-4,8.94-8.94Z"/>
          <path class="cls-9" d="M44.75,128.63c0-4.74-3.84-8.59-8.59-8.59s-8.59,3.85-8.59,8.59,3.85,8.59,8.59,8.59,8.59-3.85,8.59-8.59Z"/>
          <path class="cls-78" d="M44.4,128.63c0-4.55-3.69-8.24-8.24-8.24s-8.24,3.69-8.24,8.24,3.69,8.24,8.24,8.24,8.24-3.69,8.24-8.24Z"/>
          <path class="cls-16" d="M44.06,128.63c0-4.36-3.53-7.89-7.89-7.89s-7.89,3.53-7.89,7.89,3.53,7.89,7.89,7.89,7.89-3.53,7.89-7.89Z"/>
          <path class="cls-86" d="M43.71,128.63c0-4.16-3.38-7.54-7.54-7.54s-7.54,3.38-7.54,7.54,3.38,7.54,7.54,7.54,7.54-3.38,7.54-7.54Z"/>
        </g>
        <path class="cls-61" d="M42.82,131.61c1.65-3.68,0-8-3.67-9.64-3.68-1.65-7.99,0-9.64,3.67-1.65,3.68,0,8,3.67,9.64,3.68,1.65,8,0,9.64-3.67Z"/>
      </g>
      <g>
        <g>
          <path class="cls-31" d="M47.54,93.45c0-6.28-5.09-11.38-11.38-11.38s-11.38,5.09-11.38,11.38,5.09,11.38,11.38,11.38,11.38-5.09,11.38-11.38Z"/>
          <path class="cls-4" d="M47.19,93.45c0-6.09-4.94-11.03-11.03-11.03s-11.03,4.94-11.03,11.03,4.94,11.03,11.03,11.03,11.03-4.94,11.03-11.03Z"/>
          <path class="cls-54" d="M46.84,93.45c0-5.9-4.78-10.68-10.68-10.68s-10.68,4.78-10.68,10.68,4.78,10.68,10.68,10.68,10.68-4.78,10.68-10.68Z"/>
          <path class="cls-71" d="M46.5,93.45c0-5.7-4.63-10.33-10.33-10.33s-10.33,4.63-10.33,10.33,4.63,10.33,10.33,10.33,10.33-4.63,10.33-10.33Z"/>
          <path class="cls-38" d="M46.15,93.45c0-5.51-4.47-9.98-9.98-9.98s-9.98,4.47-9.98,9.98,4.47,9.98,9.98,9.98,9.98-4.47,9.98-9.98Z"/>
          <path class="cls-60" d="M45.8,93.45c0-5.32-4.31-9.63-9.63-9.63s-9.63,4.31-9.63,9.63,4.31,9.63,9.63,9.63,9.63-4.31,9.63-9.63Z"/>
          <path class="cls-7" d="M45.45,93.45c0-5.13-4.16-9.29-9.29-9.29s-9.29,4.16-9.29,9.29,4.16,9.29,9.29,9.29,9.29-4.16,9.29-9.29Z"/>
          <path class="cls-40" d="M45.1,93.45c0-4.93-4-8.94-8.94-8.94s-8.94,4-8.94,8.94,4,8.94,8.94,8.94,8.94-4,8.94-8.94Z"/>
          <path class="cls-11" d="M44.75,93.45c0-4.74-3.84-8.59-8.59-8.59s-8.59,3.85-8.59,8.59,3.85,8.59,8.59,8.59,8.59-3.85,8.59-8.59Z"/>
          <path class="cls-79" d="M44.4,93.45c0-4.55-3.69-8.24-8.24-8.24s-8.24,3.69-8.24,8.24,3.69,8.24,8.24,8.24,8.24-3.69,8.24-8.24Z"/>
          <path class="cls-15" d="M44.06,93.45c0-4.36-3.53-7.89-7.89-7.89s-7.89,3.53-7.89,7.89,3.53,7.89,7.89,7.89,7.89-3.53,7.89-7.89Z"/>
          <path class="cls-74" d="M43.71,93.45c0-4.16-3.38-7.54-7.54-7.54s-7.54,3.38-7.54,7.54,3.38,7.54,7.54,7.54,7.54-3.38,7.54-7.54Z"/>
        </g>
        <path class="cls-81" d="M42.82,96.44c1.65-3.68,0-8-3.67-9.64-3.68-1.65-7.99,0-9.64,3.67-1.65,3.68,0,8,3.67,9.65,3.68,1.65,8,0,9.64-3.67Z"/>
      </g>
      <g>
        <g class="cls-42">
          <g>
            <g class="cls-51">
              <path class="cls-32" d="M47.5,58.28c0-6.26-5.07-11.33-11.33-11.33s-11.33,5.07-11.33,11.33,5.07,11.33,11.33,11.33,11.33-5.07,11.33-11.33Z"/>
            </g>
            <g class="cls-64">
              <path class="cls-87" d="M47.15,58.28c0-6.07-4.92-10.99-10.99-10.99s-10.99,4.92-10.99,10.99,4.92,10.99,10.99,10.99,10.99-4.92,10.99-10.99Z"/>
            </g>
            <g class="cls-90">
              <path class="cls-1" d="M46.81,58.28c0-5.88-4.76-10.64-10.64-10.64s-10.64,4.76-10.64,10.64,4.76,10.64,10.64,10.64,10.64-4.76,10.64-10.64Z"/>
            </g>
            <g class="cls-44">
              <path class="cls-17" d="M46.47,58.28c0-5.69-4.61-10.3-10.3-10.3s-10.3,4.61-10.3,10.3,4.61,10.3,10.3,10.3,10.3-4.61,10.3-10.3Z"/>
            </g>
            <g class="cls-62">
              <path class="cls-82" d="M46.12,58.28c0-5.5-4.46-9.95-9.96-9.95s-9.96,4.46-9.96,9.95,4.46,9.96,9.96,9.96,9.96-4.46,9.96-9.96Z"/>
            </g>
            <g class="cls-43">
              <path class="cls-66" d="M45.78,58.28c0-5.31-4.3-9.61-9.61-9.61s-9.61,4.3-9.61,9.61,4.3,9.61,9.61,9.61,9.61-4.3,9.61-9.61Z"/>
            </g>
            <g class="cls-89">
              <path class="cls-91" d="M45.43,58.28c0-5.12-4.15-9.26-9.27-9.26s-9.27,4.15-9.27,9.26,4.15,9.27,9.27,9.27,9.27-4.15,9.27-9.27Z"/>
            </g>
            <g class="cls-94">
              <path class="cls-93" d="M45.09,58.28c0-4.93-3.99-8.92-8.92-8.92s-8.92,4-8.92,8.92,4,8.92,8.92,8.92,8.92-4,8.92-8.92Z"/>
            </g>
            <g class="cls-84">
              <path class="cls-98" d="M44.74,58.28c0-4.74-3.84-8.58-8.58-8.58s-8.58,3.84-8.58,8.58,3.84,8.58,8.58,8.58,8.58-3.84,8.58-8.58Z"/>
            </g>
            <g class="cls-46">
              <path class="cls-97" d="M44.4,58.28c0-4.54-3.69-8.23-8.23-8.23s-8.23,3.69-8.23,8.23,3.69,8.23,8.23,8.23,8.23-3.69,8.23-8.23Z"/>
            </g>
            <g class="cls-55">
              <path class="cls-73" d="M44.05,58.28c0-4.35-3.53-7.89-7.89-7.89s-7.89,3.53-7.89,7.89,3.53,7.89,7.89,7.89,7.89-3.53,7.89-7.89Z"/>
            </g>
            <path class="cls-95" d="M43.71,58.28c0-4.16-3.38-7.54-7.54-7.54s-7.54,3.38-7.54,7.54,3.38,7.54,7.54,7.54,7.54-3.38,7.54-7.54Z"/>
          </g>
        </g>
        <path class="cls-92" d="M42.82,61.26c1.65-3.68,0-8-3.67-9.64-3.68-1.65-7.99,0-9.64,3.67-1.65,3.68,0,8,3.67,9.65,3.68,1.65,8,0,9.64-3.67Z"/>
      </g>
      <path class="cls-49" d="M35.6,61.58c-.23,0-.46-.09-.63-.25l-2.92-2.74c-.37-.35-.39-.93-.04-1.3.35-.37.93-.39,1.3-.04l2.2,2.06,3.44-4.34c.32-.4.9-.47,1.29-.15.4.32.47.9.15,1.29l-4.06,5.12c-.16.2-.4.33-.65.35-.02,0-.04,0-.07,0Z"/>
    </g>
  </g>
</svg>