<?xml version="1.0" encoding="UTF-8"?>
<svg id="Capa_2" data-name="Capa 2" xmlns="http://www.w3.org/2000/svg" xmlns:xlink="http://www.w3.org/1999/xlink" viewBox="0 0 181.82 75.27">
  <defs>
    <style>
      .cls-1 {
        fill: url(#Degradado_sin_nombre_18);
        opacity: .88;
      }

      .cls-2 {
        fill: url(#Degradado_sin_nombre_327);
        opacity: .44;
      }

      .cls-3 {
        fill: url(#_Áåçûìÿííûé_ãðàäèåíò_233);
      }

      .cls-4 {
        fill: url(#_Áåçûìÿííûé_ãðàäèåíò_31-2);
      }

      .cls-4, .cls-5 {
        opacity: 0;
      }

      .cls-5 {
        fill: url(#_Áåçûìÿííûé_ãðàäèåíò_31);
      }

      .cls-6 {
        fill: url(#Degradado_sin_nombre_60);
        opacity: .19;
      }

      .cls-7 {
        fill: url(#Degradado_sin_nombre_56-2);
        opacity: .56;
      }

      .cls-8 {
        fill: url(#Degradado_sin_nombre_59);
        opacity: .38;
      }

      .cls-9 {
        fill: url(#Degradado_sin_nombre_5);
        opacity: .75;
      }

      .cls-10 {
        fill: url(#Degradado_sin_nombre_56);
        opacity: .56;
      }

      .cls-11 {
        fill: url(#Degradado_sin_nombre_329);
        opacity: .22;
      }

      .cls-12 {
        fill: url(#_Áåçûìÿííûé_ãðàäèåíò_278);
      }

      .cls-13 {
        fill: url(#Degradado_sin_nombre_54);
        opacity: .69;
      }

      .cls-14 {
        fill: url(#Degradado_sin_nombre_12);
        opacity: .31;
      }

      .cls-15 {
        fill: url(#Degradado_sin_nombre_58);
        opacity: .44;
      }

      .cls-16 {
        fill: url(#_Áåçûìÿííûé_ãðàäèåíò_3958);
      }

      .cls-17 {
        fill: url(#Degradado_sin_nombre_13);
        opacity: .25;
      }

      .cls-18 {
        fill: url(#Degradado_sin_nombre_325);
        opacity: .78;
      }

      .cls-19 {
        fill: url(#_Áåçûìÿííûé_ãðàäèåíò_3958-2);
      }

      .cls-20 {
        fill: url(#Degradado_sin_nombre_328);
        opacity: .33;
      }

      .cls-21 {
        fill: url(#Degradado_sin_nombre_55);
        opacity: .62;
      }

      .cls-22 {
        fill: url(#Degradado_sin_nombre_57);
        opacity: .5;
      }

      .cls-23 {
        fill: url(#Degradado_sin_nombre_20);
        opacity: .81;
      }

      .cls-24 {
        fill: url(#Degradado_sin_nombre_326);
        opacity: .67;
      }

      .cls-25 {
        fill: url(#Degradado_sin_nombre_61);
        opacity: .12;
      }

      .cls-26 {
        fill: url(#Degradado_sin_nombre_62);
        opacity: .06;
      }

      .cls-27 {
        fill: url(#Degradado_sin_nombre_324);
        opacity: .89;
      }

      .cls-28 {
        fill: url(#Degradado_sin_nombre_330);
        opacity: .11;
      }

      .cls-29 {
        fill: url(#Degradado_sin_nombre_17);
        opacity: .94;
      }
    </style>
    <linearGradient id="_Áåçûìÿííûé_ãðàäèåíò_31" data-name="Áåçûìÿííûé ãðàäèåíò 31" x1="158.25" y1="8.77" x2="168.79" y2="19.3" gradientUnits="userSpaceOnUse">
      <stop offset="0" stop-color="#fff"/>
      <stop offset=".2" stop-color="#f2f2f4"/>
      <stop offset=".56" stop-color="#cfd0da"/>
      <stop offset="1" stop-color="#9ea0b3"/>
    </linearGradient>
    <linearGradient id="Degradado_sin_nombre_330" data-name="Degradado sin nombre 330" x1="158.52" y1="9.04" x2="169.15" y2="19.67" gradientUnits="userSpaceOnUse">
      <stop offset="0" stop-color="#fff"/>
      <stop offset=".19" stop-color="#f2f2f4"/>
      <stop offset=".54" stop-color="#d0d1da"/>
      <stop offset=".82" stop-color="#b0b2c1"/>
      <stop offset="1" stop-color="#9d9fb2"/>
    </linearGradient>
    <linearGradient id="Degradado_sin_nombre_329" data-name="Degradado sin nombre 329" x1="158.79" y1="9.31" x2="169.47" y2="19.99" gradientUnits="userSpaceOnUse">
      <stop offset="0" stop-color="#fff"/>
      <stop offset=".18" stop-color="#f2f2f4"/>
      <stop offset=".52" stop-color="#d0d1d9"/>
      <stop offset=".82" stop-color="#adafbe"/>
      <stop offset="1" stop-color="#9c9eb1"/>
    </linearGradient>
    <linearGradient id="Degradado_sin_nombre_328" data-name="Degradado sin nombre 328" x1="159.06" y1="9.58" x2="169.74" y2="20.27" gradientUnits="userSpaceOnUse">
      <stop offset="0" stop-color="#fff"/>
      <stop offset=".18" stop-color="#f2f2f4"/>
      <stop offset=".5" stop-color="#d0d1da"/>
      <stop offset=".82" stop-color="#a9abbc"/>
      <stop offset="1" stop-color="#9b9db0"/>
    </linearGradient>
    <linearGradient id="Degradado_sin_nombre_327" data-name="Degradado sin nombre 327" x1="159.32" y1="9.85" x2="169.97" y2="20.5" gradientUnits="userSpaceOnUse">
      <stop offset="0" stop-color="#fff"/>
      <stop offset=".17" stop-color="#f2f2f4"/>
      <stop offset=".49" stop-color="#cfd0d9"/>
      <stop offset=".82" stop-color="#a6a8b9"/>
      <stop offset="1" stop-color="#9a9caf"/>
    </linearGradient>
    <linearGradient id="Degradado_sin_nombre_56" data-name="Degradado sin nombre 56" x1="159.59" y1="10.12" x2="170.16" y2="20.7" gradientUnits="userSpaceOnUse">
      <stop offset="0" stop-color="#fff"/>
      <stop offset=".17" stop-color="#f2f2f4"/>
      <stop offset=".48" stop-color="#cfd0d9"/>
      <stop offset=".82" stop-color="#a3a5b6"/>
      <stop offset="1" stop-color="#9a9caf"/>
    </linearGradient>
    <linearGradient id="Degradado_sin_nombre_326" data-name="Degradado sin nombre 326" x1="159.86" y1="10.4" x2="170.31" y2="20.85" gradientUnits="userSpaceOnUse">
      <stop offset="0" stop-color="#fff"/>
      <stop offset=".16" stop-color="#f2f2f4"/>
      <stop offset=".46" stop-color="#cfd0d9"/>
      <stop offset=".82" stop-color="#a0a2b3"/>
      <stop offset="1" stop-color="#999bae"/>
    </linearGradient>
    <linearGradient id="Degradado_sin_nombre_325" data-name="Degradado sin nombre 325" x1="160.12" y1="10.67" x2="170.41" y2="20.96" gradientUnits="userSpaceOnUse">
      <stop offset="0" stop-color="#fff"/>
      <stop offset=".16" stop-color="#f2f2f4"/>
      <stop offset=".45" stop-color="#cfd0d9"/>
      <stop offset=".82" stop-color="#9c9eb1"/>
      <stop offset="1" stop-color="#989aad"/>
    </linearGradient>
    <linearGradient id="Degradado_sin_nombre_324" data-name="Degradado sin nombre 324" x1="160.39" y1="10.94" x2="170.47" y2="21.02" gradientUnits="userSpaceOnUse">
      <stop offset="0" stop-color="#fff"/>
      <stop offset=".15" stop-color="#f2f2f4"/>
      <stop offset=".44" stop-color="#cfd0d9"/>
      <stop offset=".82" stop-color="#999bae"/>
      <stop offset="1" stop-color="#9799ac"/>
    </linearGradient>
    <linearGradient id="_Áåçûìÿííûé_ãðàäèåíò_3958" data-name="Áåçûìÿííûé ãðàäèåíò 3958" x1="160.66" y1="11.21" x2="170.49" y2="21.04" gradientUnits="userSpaceOnUse">
      <stop offset="0" stop-color="#fff"/>
      <stop offset=".15" stop-color="#f2f2f4"/>
      <stop offset=".43" stop-color="#cfd0d9"/>
      <stop offset=".8" stop-color="#989aad"/>
      <stop offset=".82" stop-color="#9698ab"/>
    </linearGradient>
    <linearGradient id="_Áåçûìÿííûé_ãðàäèåíò_31-2" data-name="Áåçûìÿííûé ãðàäèåíò 31" x1="20.95" y1="-14.69" x2="158.32" y2="88.06" xlink:href="#_Áåçûìÿííûé_ãðàäèåíò_31"/>
    <linearGradient id="Degradado_sin_nombre_62" data-name="Degradado sin nombre 62" x1="21.8" y1="-14.29" x2="157.64" y2="87.77" gradientUnits="userSpaceOnUse">
      <stop offset="0" stop-color="#fff"/>
      <stop offset=".19" stop-color="#f2f2f4"/>
      <stop offset=".54" stop-color="#d0d1da"/>
      <stop offset=".82" stop-color="#b1b3c2"/>
      <stop offset="1" stop-color="#9ea0b3"/>
    </linearGradient>
    <linearGradient id="Degradado_sin_nombre_61" data-name="Degradado sin nombre 61" x1="22.65" y1="-13.89" x2="156.95" y2="87.48" gradientUnits="userSpaceOnUse">
      <stop offset="0" stop-color="#fff"/>
      <stop offset=".19" stop-color="#f2f2f4"/>
      <stop offset=".53" stop-color="#d0d1da"/>
      <stop offset=".82" stop-color="#afb1c1"/>
      <stop offset="1" stop-color="#9d9fb2"/>
    </linearGradient>
    <linearGradient id="Degradado_sin_nombre_60" data-name="Degradado sin nombre 60" x1="23.49" y1="-13.49" x2="156.26" y2="87.19" gradientUnits="userSpaceOnUse">
      <stop offset="0" stop-color="#fff"/>
      <stop offset=".19" stop-color="#f2f2f4"/>
      <stop offset=".53" stop-color="#d0d1d9"/>
      <stop offset=".82" stop-color="#aeb0bf"/>
      <stop offset="1" stop-color="#9d9fb2"/>
    </linearGradient>
    <linearGradient id="Degradado_sin_nombre_13" data-name="Degradado sin nombre 13" x1="24.33" y1="-13.08" x2="155.57" y2="86.89" gradientUnits="userSpaceOnUse">
      <stop offset="0" stop-color="#fff"/>
      <stop offset=".18" stop-color="#f2f2f4"/>
      <stop offset=".52" stop-color="#d0d1da"/>
      <stop offset=".82" stop-color="#acaebe"/>
      <stop offset="1" stop-color="#9c9eb1"/>
    </linearGradient>
    <linearGradient id="Degradado_sin_nombre_12" data-name="Degradado sin nombre 12" x1="25.17" y1="-12.67" x2="154.88" y2="86.59" gradientUnits="userSpaceOnUse">
      <stop offset="0" stop-color="#fff"/>
      <stop offset=".18" stop-color="#f2f2f4"/>
      <stop offset=".51" stop-color="#d0d1da"/>
      <stop offset=".82" stop-color="#aaacbc"/>
      <stop offset="1" stop-color="#9c9eb1"/>
    </linearGradient>
    <linearGradient id="Degradado_sin_nombre_59" data-name="Degradado sin nombre 59" x1="26.01" y1="-12.26" x2="154.19" y2="86.28" gradientUnits="userSpaceOnUse">
      <stop offset="0" stop-color="#fff"/>
      <stop offset=".17" stop-color="#f2f2f4"/>
      <stop offset=".5" stop-color="#d0d1da"/>
      <stop offset=".82" stop-color="#a8aabb"/>
      <stop offset="1" stop-color="#9b9db0"/>
    </linearGradient>
    <linearGradient id="Degradado_sin_nombre_58" data-name="Degradado sin nombre 58" x1="26.84" y1="-11.84" x2="153.5" y2="85.97" gradientUnits="userSpaceOnUse">
      <stop offset="0" stop-color="#fff"/>
      <stop offset=".17" stop-color="#f2f2f4"/>
      <stop offset=".49" stop-color="#cfd0d9"/>
      <stop offset=".82" stop-color="#a6a8b9"/>
      <stop offset="1" stop-color="#9b9db0"/>
    </linearGradient>
    <linearGradient id="Degradado_sin_nombre_57" data-name="Degradado sin nombre 57" x1="27.67" y1="-11.42" x2="152.81" y2="85.65" gradientUnits="userSpaceOnUse">
      <stop offset="0" stop-color="#fff"/>
      <stop offset=".17" stop-color="#f2f2f4"/>
      <stop offset=".48" stop-color="#cfd1da"/>
      <stop offset=".82" stop-color="#a4a7b8"/>
      <stop offset="1" stop-color="#9a9caf"/>
    </linearGradient>
    <linearGradient id="Degradado_sin_nombre_56-2" data-name="Degradado sin nombre 56" x1="28.5" y1="-11" x2="152.12" y2="85.33" xlink:href="#Degradado_sin_nombre_56"/>
    <linearGradient id="Degradado_sin_nombre_55" data-name="Degradado sin nombre 55" x1="29.33" y1="-10.57" x2="151.42" y2="85.01" gradientUnits="userSpaceOnUse">
      <stop offset="0" stop-color="#fff"/>
      <stop offset=".16" stop-color="#f2f2f4"/>
      <stop offset=".47" stop-color="#cfd0d9"/>
      <stop offset=".82" stop-color="#a1a3b4"/>
      <stop offset="1" stop-color="#999bae"/>
    </linearGradient>
    <linearGradient id="Degradado_sin_nombre_54" data-name="Degradado sin nombre 54" x1="30.15" y1="-10.15" x2="150.73" y2="84.68" gradientUnits="userSpaceOnUse">
      <stop offset="0" stop-color="#fff"/>
      <stop offset=".16" stop-color="#f2f2f4"/>
      <stop offset=".46" stop-color="#cfd0d9"/>
      <stop offset=".82" stop-color="#9fa1b3"/>
      <stop offset="1" stop-color="#999bae"/>
    </linearGradient>
    <linearGradient id="Degradado_sin_nombre_5" data-name="Degradado sin nombre 5" x1="30.97" y1="-9.71" x2="150.04" y2="84.34" gradientUnits="userSpaceOnUse">
      <stop offset="0" stop-color="#fff"/>
      <stop offset=".16" stop-color="#f2f2f4"/>
      <stop offset=".45" stop-color="#cfd0d9"/>
      <stop offset=".82" stop-color="#9d9fb1"/>
      <stop offset="1" stop-color="#989aad"/>
    </linearGradient>
    <linearGradient id="Degradado_sin_nombre_20" data-name="Degradado sin nombre 20" x1="31.79" y1="-9.28" x2="149.34" y2="84" gradientUnits="userSpaceOnUse">
      <stop offset="0" stop-color="#fff"/>
      <stop offset=".16" stop-color="#f2f2f4"/>
      <stop offset=".45" stop-color="#cfd0d9"/>
      <stop offset=".82" stop-color="#9b9db0"/>
      <stop offset="1" stop-color="#989aac"/>
    </linearGradient>
    <linearGradient id="Degradado_sin_nombre_18" data-name="Degradado sin nombre 18" x1="32.6" y1="-8.84" x2="148.65" y2="83.66" gradientUnits="userSpaceOnUse">
      <stop offset="0" stop-color="#fff"/>
      <stop offset=".16" stop-color="#f2f2f4"/>
      <stop offset=".44" stop-color="#cfd0d9"/>
      <stop offset=".82" stop-color="#9a9cae"/>
      <stop offset="1" stop-color="#9799ac"/>
    </linearGradient>
    <linearGradient id="Degradado_sin_nombre_17" data-name="Degradado sin nombre 17" x1="33.42" y1="-8.4" x2="147.95" y2="83.31" gradientUnits="userSpaceOnUse">
      <stop offset="0" stop-color="#fff"/>
      <stop offset=".15" stop-color="#f2f2f4"/>
      <stop offset=".43" stop-color="#cfd0d9"/>
      <stop offset=".81" stop-color="#989aad"/>
      <stop offset=".82" stop-color="#989aad"/>
      <stop offset="1" stop-color="#9799ab"/>
    </linearGradient>
    <linearGradient id="_Áåçûìÿííûé_ãðàäèåíò_3958-2" data-name="Áåçûìÿííûé ãðàäèåíò 3958" x1="34.23" y1="-7.96" x2="147.26" y2="82.96" xlink:href="#_Áåçûìÿííûé_ãðàäèåíò_3958"/>
    <linearGradient id="_Áåçûìÿííûé_ãðàäèåíò_233" data-name="Áåçûìÿííûé ãðàäèåíò 233" x1="12.17" y1="37.63" x2="169.65" y2="37.63" gradientUnits="userSpaceOnUse">
      <stop offset="0" stop-color="#fff"/>
      <stop offset="1" stop-color="#cccfdb"/>
    </linearGradient>
    <linearGradient id="_Áåçûìÿííûé_ãðàäèåíò_278" data-name="Áåçûìÿííûé ãðàäèåíò 278" x1="165.08" y1="25.69" x2="165.08" y2="11.65" gradientUnits="userSpaceOnUse">
      <stop offset="0" stop-color="#ff0672"/>
      <stop offset="1" stop-color="#ffc936"/>
    </linearGradient>
  </defs>
  <g id="Capa_1-2" data-name="Capa 1">
    <g>
      <g>
        <path class="cls-5" d="M164.96,31.74c-.52,0-1.03-.07-1.53-.21-2.05-.56-11.51-7.48-13.32-11.26-1.26-2.64-1.41-5.62-.43-8.38.98-2.76,2.97-4.97,5.62-6.23,1.49-.71,3.07-1.06,4.7-1.06,1.74,0,3.44.42,4.95,1.19,1.52-.77,3.21-1.19,4.95-1.19,1.64,0,3.22.36,4.7,1.06,2.64,1.26,4.64,3.47,5.62,6.23.98,2.76.83,5.74-.43,8.38-1.79,3.76-11.24,10.68-13.3,11.25-.5.14-1.02.21-1.54.21Z"/>
        <path class="cls-28" d="M155.55,6.18c1.47-.7,3.03-1.03,4.63-.98,1.7.04,3.34.52,4.78,1.34,1.43-.82,3.08-1.3,4.78-1.34,1.6-.04,3.17.29,4.63.98h0c2.51,1.19,4.4,3.29,5.33,5.91.93,2.62.78,5.44-.41,7.94-1.69,3.56-10.66,10.16-12.78,10.84-.48.15-.97.23-1.46.25-.35.02-.69,0-1.01-.05-.08-.01-.15-.03-.23-.04-.07-.02-.15-.03-.22-.05-1.87-.51-11.21-7.31-12.95-10.95-1.19-2.51-1.34-5.33-.41-7.94.93-2.61,2.82-4.71,5.32-5.91Z"/>
        <path class="cls-11" d="M155.8,6.7c1.45-.69,3-.99,4.56-.9,1.66.09,3.25.61,4.61,1.49,1.35-.88,2.94-1.41,4.6-1.49,1.56-.08,3.11.22,4.56.9h0c2.37,1.13,4.15,3.11,5.03,5.58.88,2.47.74,5.14-.39,7.5-1.6,3.35-10.07,9.63-12.26,10.43-.46.17-.93.26-1.38.29-.35.05-.67.04-.96,0-.07-.01-.14-.02-.22-.03-.07-.01-.14-.03-.21-.05-1.69-.46-10.92-7.14-12.58-10.64-1.13-2.37-1.26-5.03-.39-7.5.88-2.47,2.66-4.45,5.03-5.58Z"/>
        <path class="cls-20" d="M156.05,7.22c1.43-.68,2.96-.95,4.49-.82,1.62.13,3.16.71,4.43,1.65,1.27-.94,2.81-1.52,4.43-1.65,1.53-.12,3.06.15,4.48.82h0c2.23,1.06,3.91,2.93,4.74,5.25.82,2.33.7,4.84-.37,7.06-1.5,3.14-9.49,9.1-11.73,10.03-.44.18-.88.28-1.31.33-.34.07-.65.08-.9.05-.07,0-.14-.01-.21-.03-.07-.01-.14-.03-.21-.05-1.5-.41-10.62-6.98-12.22-10.34-1.06-2.23-1.19-4.74-.36-7.06.82-2.33,2.51-4.19,4.73-5.25Z"/>
        <path class="cls-2" d="M156.29,7.74c1.41-.67,2.92-.91,4.41-.74,1.58.17,3.07.8,4.26,1.8,1.19-1,2.68-1.63,4.25-1.8,1.49-.16,3,.07,4.41.74h0c2.09,1,3.67,2.74,4.44,4.92.77,2.18.65,4.53-.34,6.62-1.4,2.94-8.9,8.57-11.21,9.62-.42.19-.84.31-1.23.37-.34.09-.63.12-.85.1-.07,0-.13,0-.2-.02-.07,0-.13-.02-.2-.04-1.32-.36-10.32-6.81-11.85-10.03-.99-2.09-1.12-4.44-.34-6.62.77-2.18,2.35-3.93,4.44-4.92Z"/>
        <path class="cls-10" d="M156.54,8.26c1.39-.66,2.89-.87,4.34-.66,1.54.21,2.97.9,4.08,1.95,1.11-1.06,2.54-1.74,4.08-1.95,1.45-.2,2.95,0,4.34.66h0c1.95.93,3.42,2.56,4.15,4.6.72,2.04.61,4.23-.32,6.18-1.3,2.73-8.32,8.02-10.68,9.21-.4.2-.79.33-1.15.41-.34.12-.61.16-.8.15-.06,0-.13,0-.19-.01-.06,0-.13-.02-.19-.04-1.14-.31-10.02-6.65-11.48-9.72-.93-1.95-1.04-4.15-.32-6.18.72-2.04,2.19-3.67,4.14-4.6Z"/>
        <path class="cls-24" d="M156.79,8.78c1.37-.65,2.85-.83,4.27-.58,1.5.26,2.88.99,3.91,2.1,1.03-1.11,2.41-1.85,3.91-2.1,1.41-.24,2.9-.07,4.27.58h0c1.81.86,3.18,2.38,3.85,4.27.67,1.89.56,3.93-.3,5.74-1.2,2.52-7.74,7.47-10.16,8.8-.38.21-.75.35-1.08.45-.33.14-.59.2-.74.2-.06,0-.12,0-.18,0-.06,0-.12-.02-.18-.03-.96-.26-9.72-6.48-11.12-9.42-.86-1.81-.97-3.85-.3-5.74.67-1.89,2.04-3.41,3.85-4.27Z"/>
        <path class="cls-18" d="M157.04,9.3c1.35-.64,2.82-.79,4.19-.5,1.46.3,2.79,1.09,3.73,2.26.94-1.17,2.27-1.96,3.73-2.26,1.38-.28,2.84-.14,4.19.5h0c1.67.8,2.94,2.2,3.56,3.94.62,1.75.52,3.63-.28,5.3-1.1,2.32-7.17,6.92-9.64,8.39-.36.22-.7.38-1,.49-.33.16-.57.24-.69.25-.06,0-.11,0-.17,0-.06,0-.11-.01-.17-.03-.78-.21-9.42-6.32-10.75-9.11-.8-1.67-.89-3.56-.27-5.3.62-1.75,1.88-3.15,3.55-3.94Z"/>
        <path class="cls-27" d="M157.28,9.82c1.33-.63,2.78-.75,4.12-.42,1.42.34,2.7,1.18,3.56,2.41.86-1.23,2.14-2.07,3.56-2.41,1.34-.32,2.79-.21,4.12.42h0c1.53.73,2.69,2.01,3.26,3.62.57,1.6.48,3.33-.25,4.86-1,2.11-6.6,6.36-9.11,7.98-.35.22-.66.4-.92.53-.32.19-.55.29-.63.3-.05,0-.11.02-.16.01-.05,0-.11,0-.16-.02-.59-.16-9.12-6.15-10.38-8.8-.73-1.53-.82-3.26-.25-4.86.57-1.6,1.73-2.89,3.26-3.62Z"/>
        <path class="cls-16" d="M164.96,26.56c-.05,0-.1,0-.15-.02-.41-.11-8.82-5.99-10.02-8.49-.66-1.39-.74-2.97-.23-4.42.52-1.46,1.57-2.62,2.96-3.29,2.7-1.28,5.91-.29,7.43,2.22,1.52-2.5,4.73-3.5,7.43-2.22h0c1.4.66,2.45,1.83,2.97,3.29.52,1.46.43,3.03-.23,4.42-1.18,2.49-9.6,8.38-10.01,8.49-.05.01-.1.02-.15.02Z"/>
      </g>
      <g>
        <g>
          <g>
            <path class="cls-4" d="M17.71,0h146.4c9.77,0,17.71,7.94,17.71,17.71v39.85c0,9.78-7.94,17.71-17.71,17.71H17.71c-9.77,0-17.71-7.94-17.71-17.71V17.71C0,7.94,7.94,0,17.71,0Z"/>
            <rect class="cls-26" x=".76" y=".78" width="180.3" height="73.71" rx="17.06" ry="17.06"/>
            <path class="cls-25" d="M17.92,1.56h145.97c9.05,0,16.4,7.35,16.4,16.4v39.35c0,9.05-7.35,16.4-16.4,16.4H17.92c-9.05,0-16.4-7.35-16.4-16.4V17.96C1.52,8.91,8.87,1.56,17.92,1.56Z"/>
            <path class="cls-6" d="M18.03,2.34h145.76c8.69,0,15.75,7.06,15.75,15.75v39.1c0,8.69-7.06,15.75-15.75,15.75H18.03c-8.69,0-15.75-7.06-15.75-15.75V18.09c0-8.69,7.06-15.75,15.75-15.75Z"/>
            <rect class="cls-17" x="3.04" y="3.12" width="175.74" height="69.04" rx="15.09" ry="15.09"/>
            <path class="cls-14" d="M18.24,3.9h145.34c7.97,0,14.44,6.47,14.44,14.44v38.6c0,7.97-6.47,14.44-14.44,14.44H18.24c-7.97,0-14.44-6.47-14.44-14.44V18.34c0-7.97,6.47-14.44,14.44-14.44Z"/>
            <rect class="cls-8" x="4.56" y="4.68" width="172.69" height="65.92" rx="13.79" ry="13.79"/>
            <path class="cls-15" d="M18.46,5.45h144.91c7.25,0,13.13,5.88,13.13,13.13v38.1c0,7.25-5.88,13.13-13.13,13.13H18.45c-7.25,0-13.13-5.88-13.13-13.13V18.59c0-7.25,5.88-13.13,13.13-13.13Z"/>
            <path class="cls-22" d="M18.56,6.23h144.7c6.89,0,12.48,5.59,12.48,12.48v37.85c0,6.89-5.59,12.48-12.48,12.48H18.56c-6.89,0-12.48-5.59-12.48-12.48V18.71c0-6.89,5.59-12.48,12.48-12.48Z"/>
            <rect class="cls-7" x="6.85" y="7.01" width="168.13" height="61.25" rx="11.82" ry="11.82"/>
            <path class="cls-21" d="M18.77,7.79h144.27c6.16,0,11.17,5,11.17,11.17v37.35c0,6.16-5,11.17-11.17,11.17H18.77c-6.16,0-11.17-5-11.17-11.17V18.96c0-6.16,5-11.17,11.17-11.17Z"/>
            <path class="cls-13" d="M18.88,8.57h144.06c5.8,0,10.51,4.71,10.51,10.51v37.1c0,5.8-4.71,10.51-10.51,10.51H18.88c-5.8,0-10.51-4.71-10.51-10.51V19.08c0-5.8,4.71-10.51,10.51-10.51Z"/>
            <rect class="cls-9" x="9.13" y="9.35" width="163.57" height="56.57" rx="9.86" ry="9.86"/>
            <path class="cls-23" d="M19.09,10.13h143.64c5.08,0,9.2,4.12,9.2,9.2v36.6c0,5.08-4.12,9.2-9.2,9.2H19.09c-5.08,0-9.2-4.12-9.2-9.2V19.33c0-5.08,4.12-9.21,9.21-9.21Z"/>
            <path class="cls-1" d="M19.2,10.91h143.42c4.72,0,8.55,3.83,8.55,8.55v36.35c0,4.72-3.83,8.55-8.55,8.55H19.2c-4.72,0-8.55-3.83-8.55-8.55V19.46c0-4.72,3.83-8.55,8.55-8.55Z"/>
            <rect class="cls-29" x="11.41" y="11.69" width="159" height="51.9" rx="7.9" ry="7.9"/>
            <path class="cls-19" d="M19.41,12.47h143c4,0,7.24,3.24,7.24,7.24v35.86c0,4-3.24,7.24-7.24,7.24H19.41c-4,0-7.24-3.24-7.24-7.24V19.71c0-4,3.25-7.24,7.24-7.24Z"/>
          </g>
          <rect class="cls-3" x="12.17" y="12.47" width="157.48" height="50.34" rx="7.24" ry="7.24"/>
        </g>
        <path class="cls-12" d="M165.08,25.63c-1.3-.77-8.44-5.92-9.43-7.99-.58-1.21-.65-2.57-.2-3.83.45-1.26,1.36-2.27,2.57-2.85.68-.32,1.4-.49,2.14-.49,1.75,0,3.39.92,4.29,2.4l.63,1.03.63-1.03c.9-1.48,2.54-2.4,4.29-2.4.75,0,1.47.16,2.14.49,1.21.57,2.12,1.59,2.57,2.85.45,1.26.38,2.62-.2,3.83-.99,2.07-8.13,7.23-9.43,7.99Z"/>
      </g>
    </g>
  </g>
</svg>