<?xml version="1.0" encoding="UTF-8"?>
<svg id="Capa_2" data-name="Capa 2" xmlns="http://www.w3.org/2000/svg" xmlns:xlink="http://www.w3.org/1999/xlink" viewBox="0 0 181.82 75.27">
  <defs>
    <style>
      .cls-1 {
        fill: url(#Degradado_sin_nombre_18);
        opacity: .88;
      }

      .cls-2 {
        fill: url(#_Áåçûìÿííûé_ãðàäèåíò_233);
      }

      .cls-3 {
        fill: url(#Degradado_sin_nombre_56);
        opacity: .56;
      }

      .cls-4 {
        fill: url(#_Áåçûìÿííûé_ãðàäèåíò_31);
        opacity: 0;
      }

      .cls-5 {
        fill: url(#Degradado_sin_nombre_60);
        opacity: .19;
      }

      .cls-6 {
        fill: url(#Degradado_sin_nombre_59);
        opacity: .38;
      }

      .cls-7 {
        fill: url(#Degradado_sin_nombre_5);
        opacity: .75;
      }

      .cls-8 {
        fill: url(#Degradado_sin_nombre_54);
        opacity: .69;
      }

      .cls-9 {
        fill: url(#Degradado_sin_nombre_12);
        opacity: .31;
      }

      .cls-10 {
        fill: url(#Degradado_sin_nombre_58);
        opacity: .44;
      }

      .cls-11 {
        fill: url(#_Áåçûìÿííûé_ãðàäèåíò_3958);
      }

      .cls-12 {
        fill: url(#Degradado_sin_nombre_13);
        opacity: .25;
      }

      .cls-13 {
        fill: url(#Degradado_sin_nombre_55);
        opacity: .62;
      }

      .cls-14 {
        fill: url(#Degradado_sin_nombre_57);
        opacity: .5;
      }

      .cls-15 {
        fill: url(#Degradado_sin_nombre_20);
        opacity: .81;
      }

      .cls-16 {
        fill: url(#Degradado_sin_nombre_61);
        opacity: .12;
      }

      .cls-17 {
        fill: url(#Degradado_sin_nombre_62);
        opacity: .06;
      }

      .cls-18 {
        fill: url(#Degradado_sin_nombre_17);
        opacity: .94;
      }
    </style>
    <linearGradient id="_Áåçûìÿííûé_ãðàäèåíò_31" data-name="Áåçûìÿííûé ãðàäèåíò 31" x1="20.95" y1="-14.69" x2="158.32" y2="88.06" gradientUnits="userSpaceOnUse">
      <stop offset="0" stop-color="#fff"/>
      <stop offset=".2" stop-color="#f2f2f4"/>
      <stop offset=".56" stop-color="#cfd0da"/>
      <stop offset="1" stop-color="#9ea0b3"/>
    </linearGradient>
    <linearGradient id="Degradado_sin_nombre_62" data-name="Degradado sin nombre 62" x1="21.8" y1="-14.29" x2="157.64" y2="87.77" gradientUnits="userSpaceOnUse">
      <stop offset="0" stop-color="#fff"/>
      <stop offset=".19" stop-color="#f2f2f4"/>
      <stop offset=".54" stop-color="#d0d1da"/>
      <stop offset=".82" stop-color="#b1b3c2"/>
      <stop offset="1" stop-color="#9ea0b3"/>
    </linearGradient>
    <linearGradient id="Degradado_sin_nombre_61" data-name="Degradado sin nombre 61" x1="22.65" y1="-13.89" x2="156.95" y2="87.48" gradientUnits="userSpaceOnUse">
      <stop offset="0" stop-color="#fff"/>
      <stop offset=".19" stop-color="#f2f2f4"/>
      <stop offset=".53" stop-color="#d0d1da"/>
      <stop offset=".82" stop-color="#afb1c1"/>
      <stop offset="1" stop-color="#9d9fb2"/>
    </linearGradient>
    <linearGradient id="Degradado_sin_nombre_60" data-name="Degradado sin nombre 60" x1="23.49" y1="-13.49" x2="156.26" y2="87.19" gradientUnits="userSpaceOnUse">
      <stop offset="0" stop-color="#fff"/>
      <stop offset=".19" stop-color="#f2f2f4"/>
      <stop offset=".53" stop-color="#d0d1d9"/>
      <stop offset=".82" stop-color="#aeb0bf"/>
      <stop offset="1" stop-color="#9d9fb2"/>
    </linearGradient>
    <linearGradient id="Degradado_sin_nombre_13" data-name="Degradado sin nombre 13" x1="24.33" y1="-13.08" x2="155.57" y2="86.89" gradientUnits="userSpaceOnUse">
      <stop offset="0" stop-color="#fff"/>
      <stop offset=".18" stop-color="#f2f2f4"/>
      <stop offset=".52" stop-color="#d0d1da"/>
      <stop offset=".82" stop-color="#acaebe"/>
      <stop offset="1" stop-color="#9c9eb1"/>
    </linearGradient>
    <linearGradient id="Degradado_sin_nombre_12" data-name="Degradado sin nombre 12" x1="25.17" y1="-12.67" x2="154.88" y2="86.59" gradientUnits="userSpaceOnUse">
      <stop offset="0" stop-color="#fff"/>
      <stop offset=".18" stop-color="#f2f2f4"/>
      <stop offset=".51" stop-color="#d0d1da"/>
      <stop offset=".82" stop-color="#aaacbc"/>
      <stop offset="1" stop-color="#9c9eb1"/>
    </linearGradient>
    <linearGradient id="Degradado_sin_nombre_59" data-name="Degradado sin nombre 59" x1="26.01" y1="-12.26" x2="154.19" y2="86.28" gradientUnits="userSpaceOnUse">
      <stop offset="0" stop-color="#fff"/>
      <stop offset=".17" stop-color="#f2f2f4"/>
      <stop offset=".5" stop-color="#d0d1da"/>
      <stop offset=".82" stop-color="#a8aabb"/>
      <stop offset="1" stop-color="#9b9db0"/>
    </linearGradient>
    <linearGradient id="Degradado_sin_nombre_58" data-name="Degradado sin nombre 58" x1="26.84" y1="-11.84" x2="153.5" y2="85.97" gradientUnits="userSpaceOnUse">
      <stop offset="0" stop-color="#fff"/>
      <stop offset=".17" stop-color="#f2f2f4"/>
      <stop offset=".49" stop-color="#cfd0d9"/>
      <stop offset=".82" stop-color="#a6a8b9"/>
      <stop offset="1" stop-color="#9b9db0"/>
    </linearGradient>
    <linearGradient id="Degradado_sin_nombre_57" data-name="Degradado sin nombre 57" x1="27.67" y1="-11.42" x2="152.81" y2="85.65" gradientUnits="userSpaceOnUse">
      <stop offset="0" stop-color="#fff"/>
      <stop offset=".17" stop-color="#f2f2f4"/>
      <stop offset=".48" stop-color="#cfd1da"/>
      <stop offset=".82" stop-color="#a4a7b8"/>
      <stop offset="1" stop-color="#9a9caf"/>
    </linearGradient>
    <linearGradient id="Degradado_sin_nombre_56" data-name="Degradado sin nombre 56" x1="28.5" y1="-11" x2="152.12" y2="85.33" gradientUnits="userSpaceOnUse">
      <stop offset="0" stop-color="#fff"/>
      <stop offset=".17" stop-color="#f2f2f4"/>
      <stop offset=".48" stop-color="#cfd0d9"/>
      <stop offset=".82" stop-color="#a3a5b6"/>
      <stop offset="1" stop-color="#9a9caf"/>
    </linearGradient>
    <linearGradient id="Degradado_sin_nombre_55" data-name="Degradado sin nombre 55" x1="29.33" y1="-10.57" x2="151.42" y2="85.01" gradientUnits="userSpaceOnUse">
      <stop offset="0" stop-color="#fff"/>
      <stop offset=".16" stop-color="#f2f2f4"/>
      <stop offset=".47" stop-color="#cfd0d9"/>
      <stop offset=".82" stop-color="#a1a3b4"/>
      <stop offset="1" stop-color="#999bae"/>
    </linearGradient>
    <linearGradient id="Degradado_sin_nombre_54" data-name="Degradado sin nombre 54" x1="30.15" y1="-10.15" x2="150.73" y2="84.68" gradientUnits="userSpaceOnUse">
      <stop offset="0" stop-color="#fff"/>
      <stop offset=".16" stop-color="#f2f2f4"/>
      <stop offset=".46" stop-color="#cfd0d9"/>
      <stop offset=".82" stop-color="#9fa1b3"/>
      <stop offset="1" stop-color="#999bae"/>
    </linearGradient>
    <linearGradient id="Degradado_sin_nombre_5" data-name="Degradado sin nombre 5" x1="30.97" y1="-9.71" x2="150.04" y2="84.34" gradientUnits="userSpaceOnUse">
      <stop offset="0" stop-color="#fff"/>
      <stop offset=".16" stop-color="#f2f2f4"/>
      <stop offset=".45" stop-color="#cfd0d9"/>
      <stop offset=".82" stop-color="#9d9fb1"/>
      <stop offset="1" stop-color="#989aad"/>
    </linearGradient>
    <linearGradient id="Degradado_sin_nombre_20" data-name="Degradado sin nombre 20" x1="31.79" y1="-9.28" x2="149.34" y2="84" gradientUnits="userSpaceOnUse">
      <stop offset="0" stop-color="#fff"/>
      <stop offset=".16" stop-color="#f2f2f4"/>
      <stop offset=".45" stop-color="#cfd0d9"/>
      <stop offset=".82" stop-color="#9b9db0"/>
      <stop offset="1" stop-color="#989aac"/>
    </linearGradient>
    <linearGradient id="Degradado_sin_nombre_18" data-name="Degradado sin nombre 18" x1="32.6" y1="-8.84" x2="148.65" y2="83.66" gradientUnits="userSpaceOnUse">
      <stop offset="0" stop-color="#fff"/>
      <stop offset=".16" stop-color="#f2f2f4"/>
      <stop offset=".44" stop-color="#cfd0d9"/>
      <stop offset=".82" stop-color="#9a9cae"/>
      <stop offset="1" stop-color="#9799ac"/>
    </linearGradient>
    <linearGradient id="Degradado_sin_nombre_17" data-name="Degradado sin nombre 17" x1="33.42" y1="-8.4" x2="147.95" y2="83.31" gradientUnits="userSpaceOnUse">
      <stop offset="0" stop-color="#fff"/>
      <stop offset=".15" stop-color="#f2f2f4"/>
      <stop offset=".43" stop-color="#cfd0d9"/>
      <stop offset=".81" stop-color="#989aad"/>
      <stop offset=".82" stop-color="#989aad"/>
      <stop offset="1" stop-color="#9799ab"/>
    </linearGradient>
    <linearGradient id="_Áåçûìÿííûé_ãðàäèåíò_3958" data-name="Áåçûìÿííûé ãðàäèåíò 3958" x1="34.23" y1="-7.96" x2="147.26" y2="82.96" gradientUnits="userSpaceOnUse">
      <stop offset="0" stop-color="#fff"/>
      <stop offset=".15" stop-color="#f2f2f4"/>
      <stop offset=".43" stop-color="#cfd0d9"/>
      <stop offset=".8" stop-color="#989aad"/>
      <stop offset=".82" stop-color="#9698ab"/>
    </linearGradient>
    <linearGradient id="_Áåçûìÿííûé_ãðàäèåíò_233" data-name="Áåçûìÿííûé ãðàäèåíò 233" x1="12.17" y1="37.63" x2="169.65" y2="37.63" gradientUnits="userSpaceOnUse">
      <stop offset="0" stop-color="#fff"/>
      <stop offset="1" stop-color="#cccfdb"/>
    </linearGradient>
  </defs>
  <g id="Capa_1-2" data-name="Capa 1">
    <g>
      <g>
        <path class="cls-4" d="M17.71,0h146.4c9.77,0,17.71,7.94,17.71,17.71v39.85c0,9.78-7.94,17.71-17.71,17.71H17.71c-9.77,0-17.71-7.94-17.71-17.71V17.71C0,7.94,7.94,0,17.71,0Z"/>
        <rect class="cls-17" x=".76" y=".78" width="180.3" height="73.71" rx="17.06" ry="17.06"/>
        <path class="cls-16" d="M17.92,1.56h145.97c9.05,0,16.4,7.35,16.4,16.4v39.35c0,9.05-7.35,16.4-16.4,16.4H17.92c-9.05,0-16.4-7.35-16.4-16.4V17.96C1.52,8.91,8.87,1.56,17.92,1.56Z"/>
        <path class="cls-5" d="M18.03,2.34h145.76c8.69,0,15.75,7.06,15.75,15.75v39.1c0,8.69-7.06,15.75-15.75,15.75H18.03c-8.69,0-15.75-7.06-15.75-15.75V18.09c0-8.69,7.06-15.75,15.75-15.75Z"/>
        <rect class="cls-12" x="3.04" y="3.12" width="175.74" height="69.04" rx="15.09" ry="15.09"/>
        <path class="cls-9" d="M18.24,3.9h145.34c7.97,0,14.44,6.47,14.44,14.44v38.6c0,7.97-6.47,14.44-14.44,14.44H18.24c-7.97,0-14.44-6.47-14.44-14.44V18.34c0-7.97,6.47-14.44,14.44-14.44Z"/>
        <rect class="cls-6" x="4.56" y="4.68" width="172.69" height="65.92" rx="13.79" ry="13.79"/>
        <path class="cls-10" d="M18.46,5.45h144.91c7.25,0,13.13,5.88,13.13,13.13v38.1c0,7.25-5.88,13.13-13.13,13.13H18.45c-7.25,0-13.13-5.88-13.13-13.13V18.59c0-7.25,5.88-13.13,13.13-13.13Z"/>
        <path class="cls-14" d="M18.56,6.23h144.7c6.89,0,12.48,5.59,12.48,12.48v37.85c0,6.89-5.59,12.48-12.48,12.48H18.56c-6.89,0-12.48-5.59-12.48-12.48V18.71c0-6.89,5.59-12.48,12.48-12.48Z"/>
        <rect class="cls-3" x="6.85" y="7.01" width="168.13" height="61.25" rx="11.82" ry="11.82"/>
        <path class="cls-13" d="M18.77,7.79h144.27c6.16,0,11.17,5,11.17,11.17v37.35c0,6.16-5,11.17-11.17,11.17H18.77c-6.16,0-11.17-5-11.17-11.17V18.96c0-6.16,5-11.17,11.17-11.17Z"/>
        <path class="cls-8" d="M18.88,8.57h144.06c5.8,0,10.51,4.71,10.51,10.51v37.1c0,5.8-4.71,10.51-10.51,10.51H18.88c-5.8,0-10.51-4.71-10.51-10.51V19.08c0-5.8,4.71-10.51,10.51-10.51Z"/>
        <rect class="cls-7" x="9.13" y="9.35" width="163.57" height="56.57" rx="9.86" ry="9.86"/>
        <path class="cls-15" d="M19.09,10.13h143.64c5.08,0,9.2,4.12,9.2,9.2v36.6c0,5.08-4.12,9.2-9.2,9.2H19.09c-5.08,0-9.2-4.12-9.2-9.2V19.33c0-5.08,4.12-9.21,9.21-9.21Z"/>
        <path class="cls-1" d="M19.2,10.91h143.42c4.72,0,8.55,3.83,8.55,8.55v36.35c0,4.72-3.83,8.55-8.55,8.55H19.2c-4.72,0-8.55-3.83-8.55-8.55V19.46c0-4.72,3.83-8.55,8.55-8.55Z"/>
        <rect class="cls-18" x="11.41" y="11.69" width="159" height="51.9" rx="7.9" ry="7.9"/>
        <path class="cls-11" d="M19.41,12.47h143c4,0,7.24,3.24,7.24,7.24v35.86c0,4-3.24,7.24-7.24,7.24H19.41c-4,0-7.24-3.24-7.24-7.24V19.71c0-4,3.25-7.24,7.24-7.24Z"/>
      </g>
      <rect class="cls-2" x="12.17" y="12.47" width="157.48" height="50.34" rx="7.24" ry="7.24"/>
    </g>
  </g>
</svg>