<?xml version="1.0" encoding="UTF-8"?>
<svg id="Capa_2" data-name="Capa 2" xmlns="http://www.w3.org/2000/svg" xmlns:xlink="http://www.w3.org/1999/xlink" viewBox="0 0 99.84 98.8">
  <defs>
    <style>
      .cls-1 {
        fill: url(#Degradado_sin_nombre_106);
        opacity: .64;
      }

      .cls-2 {
        fill: url(#Degradado_sin_nombre_112);
        opacity: .09;
      }

      .cls-3 {
        fill: url(#Degradado_sin_nombre_109);
        opacity: .36;
      }

      .cls-4 {
        fill: url(#linear-gradient-2);
      }

      .cls-5 {
        fill: url(#Degradado_sin_nombre_110);
        opacity: .27;
      }

      .cls-6 {
        fill: url(#Degradado_sin_nombre_104);
        opacity: .82;
      }

      .cls-7 {
        fill: url(#linear-gradient-3);
      }

      .cls-8 {
        fill: url(#Degradado_sin_nombre_108);
        opacity: .45;
      }

      .cls-9 {
        fill: url(#Degradado_sin_nombre_107);
        opacity: .55;
      }

      .cls-10 {
        fill: url(#linear-gradient);
        opacity: 0;
      }

      .cls-11 {
        fill: url(#Degradado_sin_nombre_111);
        opacity: .18;
      }

      .cls-12 {
        fill: url(#Degradado_sin_nombre_105);
        opacity: .73;
      }

      .cls-13 {
        fill: url(#Degradado_sin_nombre_103);
        opacity: .91;
      }
    </style>
    <linearGradient id="linear-gradient" x1="-2.06" y1="10.52" x2="100.01" y2="86.87" gradientUnits="userSpaceOnUse">
      <stop offset="0" stop-color="#fff"/>
      <stop offset=".73" stop-color="#e2e2f7"/>
      <stop offset="1" stop-color="#d7d7f4"/>
    </linearGradient>
    <linearGradient id="Degradado_sin_nombre_112" data-name="Degradado sin nombre 112" x1="-.74" y1="11.26" x2="98.88" y2="86.26" gradientUnits="userSpaceOnUse">
      <stop offset="0" stop-color="#fff"/>
      <stop offset=".71" stop-color="#e3e3f7"/>
      <stop offset="1" stop-color="#d7d7f4"/>
    </linearGradient>
    <linearGradient id="Degradado_sin_nombre_111" data-name="Degradado sin nombre 111" x1=".58" y1="12" x2="97.74" y2="85.65" gradientUnits="userSpaceOnUse">
      <stop offset="0" stop-color="#fff"/>
      <stop offset=".69" stop-color="#e4e4f7"/>
      <stop offset="1" stop-color="#d7d7f4"/>
    </linearGradient>
    <linearGradient id="Degradado_sin_nombre_110" data-name="Degradado sin nombre 110" x1="1.89" y1="12.75" x2="96.6" y2="85.02" gradientUnits="userSpaceOnUse">
      <stop offset="0" stop-color="#fff"/>
      <stop offset=".67" stop-color="#e5e5f7"/>
      <stop offset="1" stop-color="#d7d7f4"/>
    </linearGradient>
    <linearGradient id="Degradado_sin_nombre_109" data-name="Degradado sin nombre 109" x1="3.2" y1="13.51" x2="95.46" y2="84.38" gradientUnits="userSpaceOnUse">
      <stop offset="0" stop-color="#fff"/>
      <stop offset=".65" stop-color="#e6e6f8"/>
      <stop offset="1" stop-color="#d7d7f4"/>
    </linearGradient>
    <linearGradient id="Degradado_sin_nombre_108" data-name="Degradado sin nombre 108" x1="4.5" y1="14.28" x2="94.32" y2="83.73" gradientUnits="userSpaceOnUse">
      <stop offset="0" stop-color="#fff"/>
      <stop offset=".64" stop-color="#e6e6f8"/>
      <stop offset="1" stop-color="#d7d7f4"/>
    </linearGradient>
    <linearGradient id="Degradado_sin_nombre_107" data-name="Degradado sin nombre 107" x1="5.79" y1="15.05" x2="93.18" y2="83.07" gradientUnits="userSpaceOnUse">
      <stop offset="0" stop-color="#fff"/>
      <stop offset=".62" stop-color="#e7e7f8"/>
      <stop offset="1" stop-color="#d7d7f4"/>
    </linearGradient>
    <linearGradient id="Degradado_sin_nombre_106" data-name="Degradado sin nombre 106" x1="7.08" y1="15.83" x2="92.04" y2="82.4" gradientUnits="userSpaceOnUse">
      <stop offset="0" stop-color="#fff"/>
      <stop offset=".6" stop-color="#e8e8f8"/>
      <stop offset="1" stop-color="#d7d7f4"/>
    </linearGradient>
    <linearGradient id="Degradado_sin_nombre_105" data-name="Degradado sin nombre 105" x1="8.36" y1="16.62" x2="90.89" y2="81.72" gradientUnits="userSpaceOnUse">
      <stop offset="0" stop-color="#fff"/>
      <stop offset=".59" stop-color="#e8e8f8"/>
      <stop offset="1" stop-color="#d7d7f4"/>
    </linearGradient>
    <linearGradient id="Degradado_sin_nombre_104" data-name="Degradado sin nombre 104" x1="9.63" y1="17.42" x2="89.75" y2="81.02" gradientUnits="userSpaceOnUse">
      <stop offset="0" stop-color="#fff"/>
      <stop offset=".58" stop-color="#e9e9f9"/>
      <stop offset="1" stop-color="#d7d7f4"/>
    </linearGradient>
    <linearGradient id="Degradado_sin_nombre_103" data-name="Degradado sin nombre 103" x1="10.9" y1="18.22" x2="88.61" y2="80.32" gradientUnits="userSpaceOnUse">
      <stop offset="0" stop-color="#fff"/>
      <stop offset=".57" stop-color="#eaeaf9"/>
      <stop offset="1" stop-color="#d7d7f4"/>
    </linearGradient>
    <linearGradient id="linear-gradient-2" x1="12.16" y1="19.03" x2="87.46" y2="79.6" gradientUnits="userSpaceOnUse">
      <stop offset="0" stop-color="#fff"/>
      <stop offset=".55" stop-color="#eaeaf9"/>
      <stop offset="1" stop-color="#d7d7f4"/>
    </linearGradient>
    <linearGradient id="linear-gradient-3" x1="1.77" y1="21.61" x2="97.09" y2="76.62" gradientUnits="userSpaceOnUse">
      <stop offset="0" stop-color="#dfdffb"/>
      <stop offset=".3" stop-color="#efeffd"/>
      <stop offset=".64" stop-color="#fbfbfe"/>
      <stop offset="1" stop-color="#fff"/>
    </linearGradient>
  </defs>
  <g id="Capa_1-2" data-name="Capa 1">
    <g>
      <g>
        <rect class="cls-10" width="99.84" height="98.8" rx="9.97" ry="9.97"/>
        <rect class="cls-2" x="1.21" y="1.24" width="97.43" height="96.33" rx="9.41" ry="9.41"/>
        <rect class="cls-11" x="2.41" y="2.47" width="95.02" height="93.86" rx="8.86" ry="8.86"/>
        <path class="cls-5" d="M11.93,3.71h75.99c4.59,0,8.31,3.72,8.31,8.31v74.77c0,4.59-3.72,8.31-8.31,8.31H11.93c-4.59,0-8.31-3.72-8.31-8.31V12.02C3.62,7.43,7.34,3.71,11.93,3.71Z"/>
        <rect class="cls-3" x="4.82" y="4.94" width="90.19" height="88.92" rx="7.76" ry="7.76"/>
        <rect class="cls-8" x="6.03" y="6.18" width="87.78" height="86.45" rx="7.21" ry="7.21"/>
        <rect class="cls-9" x="7.24" y="7.41" width="85.37" height="83.98" rx="6.65" ry="6.65"/>
        <rect class="cls-1" x="8.44" y="8.65" width="82.96" height="81.51" rx="6.1" ry="6.1"/>
        <rect class="cls-12" x="9.65" y="9.88" width="80.55" height="79.04" rx="5.55" ry="5.55"/>
        <rect class="cls-6" x="10.85" y="11.12" width="78.14" height="76.57" rx="5" ry="5"/>
        <rect class="cls-13" x="12.06" y="12.35" width="75.72" height="74.09" rx="4.44" ry="4.44"/>
        <path class="cls-4" d="M17.16,13.59h65.53c2.15,0,3.89,1.74,3.89,3.89v63.84c0,2.15-1.74,3.89-3.89,3.89H17.16c-2.15,0-3.89-1.74-3.89-3.89V17.48c0-2.15,1.74-3.89,3.89-3.89Z"/>
      </g>
      <rect class="cls-7" x="13.26" y="13.59" width="73.31" height="71.62" rx="3.45" ry="3.45"/>
    </g>
  </g>
</svg>