<?xml version="1.0" encoding="UTF-8"?>
<svg id="Capa_2" data-name="Capa 2" xmlns="http://www.w3.org/2000/svg" xmlns:xlink="http://www.w3.org/1999/xlink" viewBox="0 0 185.81 204.51">
  <defs>
    <style>
      .cls-1 {
        fill: url(#linear-gradient-2);
      }

      .cls-2 {
        fill: #fff;
      }

      .cls-3 {
        fill: url(#linear-gradient);
      }
    </style>
    <linearGradient id="linear-gradient" x1="103.68" y1="236.04" x2="103.68" y2="138.94" gradientUnits="userSpaceOnUse">
      <stop offset=".05" stop-color="#5ea5dd"/>
      <stop offset=".31" stop-color="#00fff4" stop-opacity=".53"/>
      <stop offset=".33" stop-color="#14fff4" stop-opacity=".49"/>
      <stop offset=".46" stop-color="#79fff9" stop-opacity=".28"/>
      <stop offset=".57" stop-color="#c1fffc" stop-opacity=".13"/>
      <stop offset=".66" stop-color="#eefffe" stop-opacity=".03"/>
      <stop offset=".71" stop-color="#fff" stop-opacity="0"/>
    </linearGradient>
    <linearGradient id="linear-gradient-2" x1="-32.37" y1="7.9" x2="163.02" y2="203.28" xlink:href="#linear-gradient"/>
  </defs>
  <g id="Capa_1-2" data-name="Capa 1">
    <path class="cls-2" d="M165.28,64.43c63.62,86.6-33.06,183.06-119.85,119.59-1.28-.94-2.41-2.07-3.35-3.34C-21.55,94.07,75.13-2.39,161.93,61.09c1.28.94,2.41,2.07,3.35,3.34Z"/>
    <path class="cls-3" d="M165.28,64.43c63.62,86.6-33.06,183.06-119.85,119.59-1.28-.94-2.41-2.07-3.35-3.34C-21.55,94.07,75.13-2.39,161.93,61.09c1.28.94,2.41,2.07,3.35,3.34Z"/>
    <path class="cls-1" d="M123.55,82.95c0,45.81-37.23,82.95-83.13,82.95-14.67,0-28.46-3.79-40.42-10.46V10.46C11.96,3.79,25.75,0,40.42,0c45.9,0,83.13,37.13,83.13,82.95Z"/>
  </g>
</svg>