<?xml version="1.0" encoding="UTF-8"?>
<svg id="Capa_2" data-name="Capa 2" xmlns="http://www.w3.org/2000/svg" xmlns:xlink="http://www.w3.org/1999/xlink" viewBox="0 0 31.07 31.07">
  <defs>
    <style>
      .cls-1 {
        fill: url(#_Áåçûìÿííûé_ãðàäèåíò_31-14);
        opacity: .65;
      }

      .cls-2 {
        fill: url(#_Áåçûìÿííûé_ãðàäèåíò_31);
        opacity: 0;
      }

      .cls-3 {
        fill: url(#_Áåçûìÿííûé_ãðàäèåíò_31-7);
        opacity: .3;
      }

      .cls-4 {
        fill: url(#_Áåçûìÿííûé_ãðàäèåíò_31-8);
        opacity: .35;
      }

      .cls-5 {
        fill: url(#_Áåçûìÿííûé_ãðàäèåíò_31-16);
        opacity: .75;
      }

      .cls-6 {
        fill: url(#_Áåçûìÿííûé_ãðàäèåíò_5383);
      }

      .cls-7 {
        fill: url(#_Áåçûìÿííûé_ãðàäèåíò_31-15);
        opacity: .7;
      }

      .cls-8 {
        fill: url(#_Áåçûìÿííûé_ãðàäèåíò_31-11);
        opacity: .5;
      }

      .cls-9 {
        fill: url(#_Áåçûìÿííûé_ãðàäèåíò_31-18);
        opacity: .85;
      }

      .cls-10 {
        fill: url(#_Áåçûìÿííûé_ãðàäèåíò_31-9);
        opacity: .4;
      }

      .cls-11 {
        fill: url(#_Áåçûìÿííûé_ãðàäèåíò_31-10);
        opacity: .45;
      }

      .cls-12 {
        fill: url(#_Áåçûìÿííûé_ãðàäèåíò_31-6);
        opacity: .25;
      }

      .cls-13 {
        fill: url(#_Áåçûìÿííûé_ãðàäèåíò_31-4);
        opacity: .15;
      }

      .cls-14 {
        fill: url(#_Áåçûìÿííûé_ãðàäèåíò_31-13);
        opacity: .6;
      }

      .cls-15 {
        fill: url(#_Áåçûìÿííûé_ãðàäèåíò_31-3);
        opacity: .1;
      }

      .cls-16 {
        fill: url(#_Áåçûìÿííûé_ãðàäèåíò_31-21);
      }

      .cls-17 {
        fill: url(#_Áåçûìÿííûé_ãðàäèåíò_31-5);
        opacity: .2;
      }

      .cls-18 {
        fill: url(#_Áåçûìÿííûé_ãðàäèåíò_31-17);
        opacity: .8;
      }

      .cls-19 {
        fill: #f99d3d;
      }

      .cls-20 {
        fill: url(#_Áåçûìÿííûé_ãðàäèåíò_31-20);
        opacity: .95;
      }

      .cls-21 {
        fill: url(#_Áåçûìÿííûé_ãðàäèåíò_31-19);
        opacity: .9;
      }

      .cls-22 {
        fill: url(#_Áåçûìÿííûé_ãðàäèåíò_31-2);
        opacity: .05;
      }

      .cls-23 {
        fill: url(#_Áåçûìÿííûé_ãðàäèåíò_31-12);
        opacity: .55;
      }
    </style>
    <linearGradient id="_Áåçûìÿííûé_ãðàäèåíò_31" data-name="Áåçûìÿííûé ãðàäèåíò 31" x1="-815.33" y1="1360.94" x2="-793.36" y2="1382.9" gradientTransform="translate(-1356.39 819.88) rotate(90) scale(1 -1)" gradientUnits="userSpaceOnUse">
      <stop offset="0" stop-color="#fff"/>
      <stop offset=".2" stop-color="#f2f2f4"/>
      <stop offset=".56" stop-color="#cfd0da"/>
      <stop offset="1" stop-color="#9ea0b3"/>
    </linearGradient>
    <linearGradient id="_Áåçûìÿííûé_ãðàäèåíò_31-2" data-name="Áåçûìÿííûé ãðàäèåíò 31" x1="-815.17" y1="1361.09" x2="-793.52" y2="1382.74" xlink:href="#_Áåçûìÿííûé_ãðàäèåíò_31"/>
    <linearGradient id="_Áåçûìÿííûé_ãðàäèåíò_31-3" data-name="Áåçûìÿííûé ãðàäèåíò 31" x1="-815.01" y1="1361.25" x2="-793.68" y2="1382.58" xlink:href="#_Áåçûìÿííûé_ãðàäèåíò_31"/>
    <linearGradient id="_Áåçûìÿííûé_ãðàäèåíò_31-4" data-name="Áåçûìÿííûé ãðàäèåíò 31" x1="-814.85" y1="1361.41" x2="-793.84" y2="1382.43" xlink:href="#_Áåçûìÿííûé_ãðàäèåíò_31"/>
    <linearGradient id="_Áåçûìÿííûé_ãðàäèåíò_31-5" data-name="Áåçûìÿííûé ãðàäèåíò 31" x1="-814.7" y1="1361.57" x2="-794" y2="1382.27" xlink:href="#_Áåçûìÿííûé_ãðàäèåíò_31"/>
    <linearGradient id="_Áåçûìÿííûé_ãðàäèåíò_31-6" data-name="Áåçûìÿííûé ãðàäèåíò 31" x1="-814.54" y1="1361.73" x2="-794.16" y2="1382.11" xlink:href="#_Áåçûìÿííûé_ãðàäèåíò_31"/>
    <linearGradient id="_Áåçûìÿííûé_ãðàäèåíò_31-7" data-name="Áåçûìÿííûé ãðàäèåíò 31" x1="-814.38" y1="1361.89" x2="-794.32" y2="1381.95" xlink:href="#_Áåçûìÿííûé_ãðàäèåíò_31"/>
    <linearGradient id="_Áåçûìÿííûé_ãðàäèåíò_31-8" data-name="Áåçûìÿííûé ãðàäèåíò 31" x1="-814.22" y1="1362.05" x2="-794.48" y2="1381.79" xlink:href="#_Áåçûìÿííûé_ãðàäèåíò_31"/>
    <linearGradient id="_Áåçûìÿííûé_ãðàäèåíò_31-9" data-name="Áåçûìÿííûé ãðàäèåíò 31" x1="-814.06" y1="1362.21" x2="-794.64" y2="1381.63" xlink:href="#_Áåçûìÿííûé_ãðàäèåíò_31"/>
    <linearGradient id="_Áåçûìÿííûé_ãðàäèåíò_31-10" data-name="Áåçûìÿííûé ãðàäèåíò 31" x1="-813.9" y1="1362.37" x2="-794.8" y2="1381.47" xlink:href="#_Áåçûìÿííûé_ãðàäèåíò_31"/>
    <linearGradient id="_Áåçûìÿííûé_ãðàäèåíò_31-11" data-name="Áåçûìÿííûé ãðàäèåíò 31" x1="-813.74" y1="1362.53" x2="-794.95" y2="1381.31" xlink:href="#_Áåçûìÿííûé_ãðàäèåíò_31"/>
    <linearGradient id="_Áåçûìÿííûé_ãðàäèåíò_31-12" data-name="Áåçûìÿííûé ãðàäèåíò 31" x1="-813.58" y1="1362.69" x2="-795.11" y2="1381.15" xlink:href="#_Áåçûìÿííûé_ãðàäèåíò_31"/>
    <linearGradient id="_Áåçûìÿííûé_ãðàäèåíò_31-13" data-name="Áåçûìÿííûé ãðàäèåíò 31" x1="-813.42" y1="1362.84" x2="-795.27" y2="1380.99" xlink:href="#_Áåçûìÿííûé_ãðàäèåíò_31"/>
    <linearGradient id="_Áåçûìÿííûé_ãðàäèåíò_31-14" data-name="Áåçûìÿííûé ãðàäèåíò 31" x1="-813.26" y1="1363" x2="-795.43" y2="1380.83" xlink:href="#_Áåçûìÿííûé_ãðàäèåíò_31"/>
    <linearGradient id="_Áåçûìÿííûé_ãðàäèåíò_31-15" data-name="Áåçûìÿííûé ãðàäèåíò 31" x1="-813.1" y1="1363.16" x2="-795.59" y2="1380.68" xlink:href="#_Áåçûìÿííûé_ãðàäèåíò_31"/>
    <linearGradient id="_Áåçûìÿííûé_ãðàäèåíò_31-16" data-name="Áåçûìÿííûé ãðàäèåíò 31" x1="-812.94" y1="1363.32" x2="-795.75" y2="1380.52" xlink:href="#_Áåçûìÿííûé_ãðàäèåíò_31"/>
    <linearGradient id="_Áåçûìÿííûé_ãðàäèåíò_31-17" data-name="Áåçûìÿííûé ãðàäèåíò 31" x1="-812.79" y1="1363.48" x2="-795.91" y2="1380.36" xlink:href="#_Áåçûìÿííûé_ãðàäèåíò_31"/>
    <linearGradient id="_Áåçûìÿííûé_ãðàäèåíò_31-18" data-name="Áåçûìÿííûé ãðàäèåíò 31" x1="-812.63" y1="1363.64" x2="-796.07" y2="1380.2" xlink:href="#_Áåçûìÿííûé_ãðàäèåíò_31"/>
    <linearGradient id="_Áåçûìÿííûé_ãðàäèåíò_31-19" data-name="Áåçûìÿííûé ãðàäèåíò 31" x1="-812.47" y1="1363.8" x2="-796.23" y2="1380.04" xlink:href="#_Áåçûìÿííûé_ãðàäèåíò_31"/>
    <linearGradient id="_Áåçûìÿííûé_ãðàäèåíò_31-20" data-name="Áåçûìÿííûé ãðàäèåíò 31" x1="-812.31" y1="1363.96" x2="-796.39" y2="1379.88" xlink:href="#_Áåçûìÿííûé_ãðàäèåíò_31"/>
    <linearGradient id="_Áåçûìÿííûé_ãðàäèåíò_31-21" data-name="Áåçûìÿííûé ãðàäèåíò 31" x1="-812.15" y1="1364.12" x2="-796.55" y2="1379.72" xlink:href="#_Áåçûìÿííûé_ãðàäèåíò_31"/>
    <linearGradient id="_Áåçûìÿííûé_ãðàäèåíò_5383" data-name="Áåçûìÿííûé ãðàäèåíò 5383" x1="22.21" y1="22.21" x2="8.74" y2="8.74" gradientUnits="userSpaceOnUse">
      <stop offset="0" stop-color="#e6e6e6"/>
      <stop offset=".56" stop-color="#d4d6de"/>
      <stop offset="1" stop-color="#cccfdb"/>
    </linearGradient>
  </defs>
  <g id="Capa_1-2" data-name="Capa 1">
    <g>
      <g>
        <path class="cls-2" d="M15.53,31.07c8.58,0,15.53-6.95,15.53-15.53S24.11,0,15.53,0,0,6.95,0,15.53s6.96,15.53,15.53,15.53Z"/>
        <path class="cls-22" d="M15.53,30.84c8.46,0,15.31-6.85,15.31-15.31S23.99.22,15.53.22.23,7.08.23,15.53s6.85,15.31,15.31,15.31Z"/>
        <path class="cls-15" d="M15.53,30.62c8.33,0,15.08-6.75,15.08-15.08S23.86.45,15.53.45.45,7.2.45,15.53s6.75,15.08,15.08,15.08Z"/>
        <path class="cls-13" d="M15.53,30.39c8.21,0,14.86-6.65,14.86-14.86S23.74.67,15.53.67.68,7.33.68,15.53s6.65,14.86,14.86,14.86Z"/>
        <path class="cls-17" d="M15.53,30.17c8.08,0,14.63-6.55,14.63-14.63S23.62.9,15.53.9.9,7.45.9,15.53s6.55,14.63,14.63,14.63Z"/>
        <path class="cls-12" d="M15.53,29.94c7.96,0,14.41-6.45,14.41-14.41S23.49,1.12,15.53,1.12,1.13,7.58,1.13,15.53s6.45,14.41,14.41,14.41Z"/>
        <path class="cls-3" d="M15.53,29.72c7.83,0,14.18-6.35,14.18-14.18S23.37,1.35,15.53,1.35,1.35,7.7,1.35,15.53s6.35,14.18,14.18,14.18Z"/>
        <path class="cls-4" d="M15.53,29.49c7.71,0,13.96-6.25,13.96-13.96S23.24,1.57,15.53,1.57,1.58,7.82,1.58,15.53s6.25,13.96,13.96,13.96Z"/>
        <path class="cls-10" d="M15.53,29.27c7.58,0,13.73-6.15,13.73-13.73S23.12,1.8,15.53,1.8,1.8,7.95,1.8,15.53s6.15,13.73,13.73,13.73Z"/>
        <path class="cls-11" d="M15.53,29.04c7.46,0,13.51-6.05,13.51-13.51S22.99,2.02,15.53,2.02,2.03,8.07,2.03,15.53s6.05,13.51,13.51,13.51Z"/>
        <path class="cls-8" d="M15.53,28.82c7.34,0,13.28-5.95,13.28-13.28S22.87,2.25,15.53,2.25,2.25,8.2,2.25,15.53s5.95,13.28,13.28,13.28Z"/>
        <path class="cls-23" d="M15.53,28.59c7.21,0,13.06-5.85,13.06-13.06S22.75,2.47,15.53,2.47,2.48,8.32,2.48,15.53s5.85,13.06,13.06,13.06Z"/>
        <path class="cls-14" d="M15.53,28.37c7.09,0,12.83-5.75,12.83-12.83S22.62,2.7,15.53,2.7,2.7,8.45,2.7,15.53s5.75,12.83,12.83,12.83Z"/>
        <path class="cls-1" d="M15.53,28.14c6.96,0,12.61-5.64,12.61-12.61S22.5,2.92,15.53,2.92,2.93,8.57,2.93,15.53s5.64,12.61,12.61,12.61Z"/>
        <path class="cls-7" d="M15.53,27.92c6.84,0,12.38-5.54,12.38-12.38S22.37,3.15,15.53,3.15,3.15,8.69,3.15,15.53s5.54,12.38,12.38,12.38Z"/>
        <path class="cls-5" d="M15.53,27.69c6.71,0,12.16-5.44,12.16-12.16S22.25,3.37,15.53,3.37,3.38,8.82,3.38,15.53s5.44,12.16,12.16,12.16Z"/>
        <path class="cls-18" d="M15.53,27.47c6.59,0,11.93-5.34,11.93-11.93S22.12,3.6,15.53,3.6,3.6,8.94,3.6,15.53s5.34,11.93,11.93,11.93Z"/>
        <path class="cls-9" d="M15.53,27.24c6.47,0,11.71-5.24,11.71-11.71S22,3.82,15.53,3.82,3.83,9.07,3.83,15.53s5.24,11.71,11.71,11.71Z"/>
        <path class="cls-21" d="M15.53,27.02c6.34,0,11.48-5.14,11.48-11.48s-5.14-11.48-11.48-11.48S4.05,9.19,4.05,15.53s5.14,11.48,11.48,11.48Z"/>
        <path class="cls-20" d="M15.53,26.79c6.22,0,11.26-5.04,11.26-11.26s-5.04-11.26-11.26-11.26S4.28,9.32,4.28,15.53s5.04,11.26,11.26,11.26Z"/>
        <path class="cls-16" d="M15.53,26.57c6.09,0,11.03-4.94,11.03-11.03s-4.94-11.03-11.03-11.03S4.5,9.44,4.5,15.53s4.94,11.03,11.03,11.03Z"/>
      </g>
      <path class="cls-6" d="M25.27,15.53c0-5.38-4.36-9.74-9.74-9.74S5.79,10.15,5.79,15.53s4.36,9.74,9.74,9.74,9.74-4.36,9.74-9.74Z"/>
    </g>
    <path class="cls-19" d="M14.66,19.37c-.19,0-.39-.07-.54-.2l-3.81-3.25c-.35-.3-.4-.83-.09-1.19.3-.35.83-.4,1.18-.09l3.2,2.73,5.01-5.41c.31-.34.85-.36,1.19-.05.34.32.36.85.05,1.19l-5.56,6c-.17.18-.39.27-.62.27Z"/>
  </g>
</svg>