<?xml version="1.0" encoding="UTF-8"?>
<svg id="Capa_2" data-name="Capa 2" xmlns="http://www.w3.org/2000/svg" xmlns:xlink="http://www.w3.org/1999/xlink" viewBox="0 0 182.67 109.41">
  <defs>
    <style>
      .cls-1 {
        fill: url(#Degradado_sin_nombre_8);
        opacity: .62;
      }

      .cls-2 {
        fill: url(#Degradado_sin_nombre_5);
        opacity: .77;
      }

      .cls-3 {
        fill: url(#Degradado_sin_nombre_11);
        opacity: .38;
      }

      .cls-4 {
        fill: url(#_Áåçûìÿííûé_ãðàäèåíò_233);
      }

      .cls-5 {
        fill: url(#Degradado_sin_nombre_12);
        opacity: .31;
      }

      .cls-6 {
        fill: url(#_Áåçûìÿííûé_ãðàäèåíò_31);
        opacity: 0;
      }

      .cls-7 {
        fill: url(#Degradado_sin_nombre_4);
        opacity: .85;
      }

      .cls-8 {
        fill: url(#Degradado_sin_nombre_10);
        opacity: .46;
      }

      .cls-9 {
        fill: url(#_Áåçûìÿííûé_ãðàäèåíò_3958);
      }

      .cls-10 {
        fill: url(#Degradado_sin_nombre_9);
        opacity: .54;
      }

      .cls-11 {
        fill: url(#Degradado_sin_nombre_3);
        opacity: .92;
      }

      .cls-12 {
        fill: url(#Degradado_sin_nombre_14);
        opacity: .15;
      }

      .cls-13 {
        fill: url(#Degradado_sin_nombre_16);
        opacity: .08;
      }

      .cls-14 {
        fill: url(#Degradado_sin_nombre_13);
        opacity: .23;
      }

      .cls-15 {
        fill: url(#Degradado_sin_nombre_6);
        opacity: .69;
      }
    </style>
    <linearGradient id="_Áåçûìÿííûé_ãðàäèåíò_31" data-name="Áåçûìÿííûé ãðàäèåíò 31" x1="16.21" y1="-20.41" x2="120.3" y2="83.67" gradientUnits="userSpaceOnUse">
      <stop offset="0" stop-color="#fff"/>
      <stop offset=".2" stop-color="#f2f2f4"/>
      <stop offset=".56" stop-color="#cfd0da"/>
      <stop offset="1" stop-color="#9ea0b3"/>
    </linearGradient>
    <linearGradient id="Degradado_sin_nombre_16" data-name="Degradado sin nombre 16" x1="12.03" y1="-15.55" x2="125.49" y2="84.97" gradientUnits="userSpaceOnUse">
      <stop offset="0" stop-color="#fff"/>
      <stop offset=".19" stop-color="#f2f2f4"/>
      <stop offset=".54" stop-color="#d0d1da"/>
      <stop offset=".82" stop-color="#b1b3c2"/>
      <stop offset="1" stop-color="#9d9fb2"/>
    </linearGradient>
    <linearGradient id="Degradado_sin_nombre_14" data-name="Degradado sin nombre 14" x1="8.45" y1="-10.23" x2="130.8" y2="85.63" gradientUnits="userSpaceOnUse">
      <stop offset="0" stop-color="#fff"/>
      <stop offset=".19" stop-color="#f2f2f4"/>
      <stop offset=".53" stop-color="#d0d1da"/>
      <stop offset=".82" stop-color="#afb1c0"/>
      <stop offset="1" stop-color="#9d9fb2"/>
    </linearGradient>
    <linearGradient id="Degradado_sin_nombre_13" data-name="Degradado sin nombre 13" x1="5.54" y1="-4.52" x2="136.12" y2="85.62" gradientUnits="userSpaceOnUse">
      <stop offset="0" stop-color="#fff"/>
      <stop offset=".18" stop-color="#f2f2f4"/>
      <stop offset=".52" stop-color="#d0d1da"/>
      <stop offset=".82" stop-color="#acaebe"/>
      <stop offset="1" stop-color="#9c9eb1"/>
    </linearGradient>
    <linearGradient id="Degradado_sin_nombre_12" data-name="Degradado sin nombre 12" x1="3.31" y1="1.49" x2="141.35" y2="84.94" gradientUnits="userSpaceOnUse">
      <stop offset="0" stop-color="#fff"/>
      <stop offset=".18" stop-color="#f2f2f4"/>
      <stop offset=".51" stop-color="#d0d1da"/>
      <stop offset=".82" stop-color="#aaacbc"/>
      <stop offset="1" stop-color="#9c9eb1"/>
    </linearGradient>
    <linearGradient id="Degradado_sin_nombre_11" data-name="Degradado sin nombre 11" x1="1.79" y1="7.71" x2="146.37" y2="83.59" gradientUnits="userSpaceOnUse">
      <stop offset="0" stop-color="#fff"/>
      <stop offset=".17" stop-color="#f2f2f4"/>
      <stop offset=".5" stop-color="#d0d1d9"/>
      <stop offset=".82" stop-color="#a8aaba"/>
      <stop offset="1" stop-color="#9b9db0"/>
    </linearGradient>
    <linearGradient id="Degradado_sin_nombre_10" data-name="Degradado sin nombre 10" x1="1" y1="14.05" x2="151.1" y2="81.6" gradientUnits="userSpaceOnUse">
      <stop offset="0" stop-color="#fff"/>
      <stop offset=".17" stop-color="#f2f2f4"/>
      <stop offset=".49" stop-color="#cfd0d9"/>
      <stop offset=".82" stop-color="#a6a8b8"/>
      <stop offset="1" stop-color="#9a9caf"/>
    </linearGradient>
    <linearGradient id="Degradado_sin_nombre_9" data-name="Degradado sin nombre 9" x1=".93" y1="20.42" x2="155.41" y2="79.01" gradientUnits="userSpaceOnUse">
      <stop offset="0" stop-color="#fff"/>
      <stop offset=".17" stop-color="#f2f2f4"/>
      <stop offset=".48" stop-color="#cfd0da"/>
      <stop offset=".82" stop-color="#a3a5b7"/>
      <stop offset="1" stop-color="#9a9caf"/>
    </linearGradient>
    <linearGradient id="Degradado_sin_nombre_8" data-name="Degradado sin nombre 8" x1="1.56" y1="26.73" x2="159.24" y2="75.87" gradientUnits="userSpaceOnUse">
      <stop offset="0" stop-color="#fff"/>
      <stop offset=".16" stop-color="#f2f2f4"/>
      <stop offset=".47" stop-color="#cfd0d9"/>
      <stop offset=".82" stop-color="#a1a3b5"/>
      <stop offset="1" stop-color="#999bae"/>
    </linearGradient>
    <linearGradient id="Degradado_sin_nombre_6" data-name="Degradado sin nombre 6" x1="2.89" y1="32.91" x2="162.47" y2="72.24" gradientUnits="userSpaceOnUse">
      <stop offset="0" stop-color="#fff"/>
      <stop offset=".16" stop-color="#f2f2f4"/>
      <stop offset=".46" stop-color="#cfd0d9"/>
      <stop offset=".82" stop-color="#9fa1b3"/>
      <stop offset="1" stop-color="#989aad"/>
    </linearGradient>
    <linearGradient id="Degradado_sin_nombre_5" data-name="Degradado sin nombre 5" x1="4.87" y1="38.86" x2="165.06" y2="68.22" gradientUnits="userSpaceOnUse">
      <stop offset="0" stop-color="#fff"/>
      <stop offset=".16" stop-color="#f2f2f4"/>
      <stop offset=".45" stop-color="#cfd0d9"/>
      <stop offset=".82" stop-color="#9d9fb1"/>
      <stop offset="1" stop-color="#989aad"/>
    </linearGradient>
    <linearGradient id="Degradado_sin_nombre_4" data-name="Degradado sin nombre 4" x1="7.48" y1="44.52" x2="166.93" y2="63.89" gradientUnits="userSpaceOnUse">
      <stop offset="0" stop-color="#fff"/>
      <stop offset=".16" stop-color="#f2f2f4"/>
      <stop offset=".44" stop-color="#cfd0d9"/>
      <stop offset=".82" stop-color="#9a9caf"/>
      <stop offset="1" stop-color="#9799ac"/>
    </linearGradient>
    <linearGradient id="Degradado_sin_nombre_3" data-name="Degradado sin nombre 3" x1="10.65" y1="49.83" x2="168.03" y2="59.35" gradientUnits="userSpaceOnUse">
      <stop offset="0" stop-color="#fff"/>
      <stop offset=".15" stop-color="#f2f2f4"/>
      <stop offset=".43" stop-color="#cfd0d9"/>
      <stop offset=".81" stop-color="#989aad"/>
      <stop offset=".82" stop-color="#989aad"/>
      <stop offset="1" stop-color="#9799ac"/>
    </linearGradient>
    <linearGradient id="_Áåçûìÿííûé_ãðàäèåíò_3958" data-name="Áåçûìÿííûé ãðàäèåíò 3958" x1="14.33" y1="54.71" x2="168.34" y2="54.71" gradientUnits="userSpaceOnUse">
      <stop offset="0" stop-color="#fff"/>
      <stop offset=".15" stop-color="#f2f2f4"/>
      <stop offset=".43" stop-color="#cfd0d9"/>
      <stop offset=".8" stop-color="#989aad"/>
      <stop offset=".82" stop-color="#9698ab"/>
    </linearGradient>
    <linearGradient id="_Áåçûìÿííûé_ãðàäèåíò_233" data-name="Áåçûìÿííûé ãðàäèåíò 233" x1="14.33" y1="54.71" x2="168.34" y2="54.71" gradientTransform="translate(36.63 146.04) rotate(-90)" gradientUnits="userSpaceOnUse">
      <stop offset="0" stop-color="#fff"/>
      <stop offset="1" stop-color="#cccfdb"/>
    </linearGradient>
  </defs>
  <g id="Capa_1-2" data-name="Capa 1">
    <g>
      <g>
        <path class="cls-6" d="M5.35,0h171.97c2.95,0,5.35,2.4,5.35,5.35v98.72c0,2.95-2.4,5.35-5.35,5.35H5.35C2.4,109.41,0,107.02,0,104.07V5.35C0,2.4,2.4,0,5.35,0Z"/>
        <path class="cls-13" d="M6.21.83h170.25c2.82,0,5.11,2.29,5.11,5.11v97.53c0,2.82-2.29,5.11-5.11,5.11H6.21c-2.82,0-5.11-2.29-5.11-5.11V5.94C1.1,3.12,3.39.83,6.21.83Z"/>
        <path class="cls-12" d="M7.08,1.66h168.52c2.69,0,4.87,2.18,4.87,4.87v96.35c0,2.69-2.18,4.87-4.87,4.87H7.08c-2.69,0-4.87-2.18-4.87-4.87V6.53C2.21,3.85,4.39,1.66,7.08,1.66Z"/>
        <rect class="cls-14" x="3.31" y="2.49" width="176.06" height="104.43" rx="4.63" ry="4.63"/>
        <path class="cls-5" d="M8.8,3.32h165.06c2.42,0,4.39,1.97,4.39,4.39v93.98c0,2.42-1.97,4.39-4.39,4.39H8.8c-2.42,0-4.39-1.97-4.39-4.39V7.72c0-2.42,1.97-4.39,4.39-4.39Z"/>
        <path class="cls-3" d="M9.67,4.16h163.33c2.29,0,4.16,1.86,4.16,4.16v92.79c0,2.29-1.86,4.15-4.15,4.15H9.67c-2.29,0-4.15-1.86-4.15-4.15V8.31c0-2.29,1.86-4.15,4.15-4.15Z"/>
        <rect class="cls-8" x="6.62" y="4.99" width="169.44" height="99.44" rx="3.92" ry="3.92"/>
        <path class="cls-10" d="M11.4,5.82h159.88c2.03,0,3.68,1.65,3.68,3.68v90.42c0,2.03-1.65,3.68-3.68,3.68H11.4c-2.03,0-3.68-1.65-3.68-3.68V9.5c0-2.03,1.65-3.68,3.68-3.68Z"/>
        <path class="cls-1" d="M12.26,6.65h158.15c1.9,0,3.44,1.54,3.44,3.44v89.24c0,1.9-1.54,3.44-3.44,3.44H12.26c-1.9,0-3.44-1.54-3.44-3.44V10.09c0-1.9,1.54-3.44,3.44-3.44Z"/>
        <rect class="cls-15" x="9.92" y="7.48" width="162.82" height="94.45" rx="3.2" ry="3.2"/>
        <rect class="cls-2" x="11.03" y="8.31" width="160.62" height="92.79" rx="2.96" ry="2.96"/>
        <path class="cls-7" d="M14.85,9.14h152.97c1.5,0,2.72,1.22,2.72,2.72v85.68c0,1.5-1.22,2.72-2.72,2.72H14.85c-1.5,0-2.72-1.22-2.72-2.72V11.87c0-1.5,1.22-2.72,2.72-2.72Z"/>
        <rect class="cls-11" x="13.23" y="9.97" width="156.21" height="89.47" rx="2.48" ry="2.48"/>
        <rect class="cls-9" x="14.33" y="10.81" width="154" height="87.8" rx="2.25" ry="2.25"/>
      </g>
      <rect class="cls-4" x="47.43" y="-22.29" width="87.8" height="154" rx="2.25" ry="2.25" transform="translate(146.04 -36.63) rotate(90)"/>
    </g>
  </g>
</svg>