<?xml version="1.0" encoding="UTF-8"?>
<svg id="Capa_2" data-name="Capa 2" xmlns="http://www.w3.org/2000/svg" viewBox="0 0 26.84 5.1">
  <defs>
    <style>
      .cls-1 {
        fill: #f45a2c;
      }

      .cls-2 {
        fill: #073c51;
        opacity: .3;
      }
    </style>
  </defs>
  <g id="Capa_1-2" data-name="Capa 1">
    <g>
      <path class="cls-2" d="M5.95,2.55c0,1.41-1.33,2.55-2.97,2.55S0,3.96,0,2.55,1.33,0,2.97,0s2.97,1.14,2.97,2.55Z"/>
      <path class="cls-2" d="M16.39,2.55c0,1.41-1.33,2.55-2.97,2.55s-2.97-1.14-2.97-2.55,1.33-2.55,2.97-2.55,2.97,1.14,2.97,2.55Z"/>
      <path class="cls-1" d="M26.84,2.55c0,1.41-1.33,2.55-2.97,2.55s-2.97-1.14-2.97-2.55,1.33-2.55,2.97-2.55,2.97,1.14,2.97,2.55Z"/>
    </g>
  </g>
</svg>