<?xml version="1.0" encoding="UTF-8"?>
<svg id="Capa_2" data-name="Capa 2" xmlns="http://www.w3.org/2000/svg" xmlns:xlink="http://www.w3.org/1999/xlink" viewBox="0 0 171.98 172.38">
  <defs>
    <style>
      .cls-1 {
        fill: url(#linear-gradient-9);
      }

      .cls-1, .cls-2, .cls-3, .cls-4 {
        opacity: 0;
      }

      .cls-5 {
        fill: url(#Degradado_sin_nombre_90);
      }

      .cls-5, .cls-6, .cls-7 {
        opacity: .09;
      }

      .cls-8 {
        fill: url(#Degradado_sin_nombre_97);
      }

      .cls-8, .cls-9, .cls-10, .cls-11 {
        opacity: .55;
      }

      .cls-12 {
        fill: url(#Degradado_sin_nombre_82);
      }

      .cls-12, .cls-13, .cls-14 {
        opacity: .73;
      }

      .cls-15 {
        fill: url(#Degradado_sin_nombre_91);
        opacity: .18;
      }

      .cls-16 {
        fill: url(#Degradado_sin_nombre_93);
      }

      .cls-16, .cls-17, .cls-18 {
        opacity: .91;
      }

      .cls-19 {
        fill: url(#linear-gradient-2);
      }

      .cls-9 {
        fill: url(#Degradado_sin_nombre_85-2);
      }

      .cls-2 {
        fill: url(#linear-gradient-7);
      }

      .cls-6 {
        fill: url(#Degradado_sin_nombre_102);
      }

      .cls-13 {
        fill: url(#Degradado_sin_nombre_95);
      }

      .cls-20 {
        fill: url(#linear-gradient-10);
      }

      .cls-21 {
        fill: url(#Degradado_sin_nombre_99);
      }

      .cls-21, .cls-22, .cls-23 {
        opacity: .36;
      }

      .cls-24 {
        fill: url(#Degradado_sin_nombre_96);
      }

      .cls-24, .cls-25, .cls-26 {
        opacity: .64;
      }

      .cls-27 {
        fill: #fff;
      }

      .cls-28 {
        fill: url(#Degradado_sin_nombre_101);
      }

      .cls-28, .cls-29, .cls-30 {
        opacity: .18;
      }

      .cls-31 {
        fill: url(#Degradado_sin_nombre_92);
        opacity: .09;
      }

      .cls-32 {
        fill: url(#linear-gradient-4);
      }

      .cls-33 {
        fill: #b6c6f2;
      }

      .cls-17 {
        fill: url(#Degradado_sin_nombre_70-2);
      }

      .cls-34 {
        fill: url(#Degradado_sin_nombre_86);
      }

      .cls-34, .cls-35, .cls-36 {
        opacity: .45;
      }

      .cls-37 {
        fill: url(#radial-gradient);
      }

      .cls-38 {
        fill: url(#radial-gradient-3);
      }

      .cls-29 {
        fill: url(#Degradado_sin_nombre_89);
      }

      .cls-39 {
        fill: url(#linear-gradient-3);
      }

      .cls-40 {
        fill: url(#Degradado_sin_nombre_88);
      }

      .cls-40, .cls-41, .cls-42 {
        opacity: .27;
      }

      .cls-41 {
        fill: url(#Degradado_sin_nombre_100);
      }

      .cls-43 {
        fill: url(#linear-gradient-8);
      }

      .cls-44 {
        fill: url(#Degradado_sin_nombre_94);
      }

      .cls-44, .cls-45, .cls-46 {
        opacity: .82;
      }

      .cls-47 {
        fill: url(#radial-gradient-2);
      }

      .cls-22 {
        fill: url(#Degradado_sin_nombre_87);
      }

      .cls-3 {
        fill: url(#linear-gradient);
      }

      .cls-48 {
        fill: url(#Degradado_sin_nombre_77);
        opacity: .64;
      }

      .cls-18 {
        fill: url(#Degradado_sin_nombre_70);
      }

      .cls-45 {
        fill: url(#Degradado_sin_nombre_81);
      }

      .cls-49 {
        fill: url(#linear-gradient-6);
      }

      .cls-30 {
        fill: url(#Degradado_sin_nombre_89-2);
      }

      .cls-25 {
        fill: url(#Degradado_sin_nombre_83-2);
      }

      .cls-23 {
        fill: url(#Degradado_sin_nombre_87-2);
      }

      .cls-50 {
        fill: url(#Degradado_sin_nombre_84);
        opacity: .27;
      }

      .cls-26 {
        fill: url(#Degradado_sin_nombre_83);
      }

      .cls-51 {
        fill: url(#Degradado_sin_nombre_80);
        opacity: .36;
      }

      .cls-4 {
        fill: url(#linear-gradient-5);
      }

      .cls-46 {
        fill: url(#Degradado_sin_nombre_81-2);
      }

      .cls-52 {
        fill: url(#Degradado_sin_nombre_79);
        opacity: .45;
      }

      .cls-53 {
        fill: url(#Degradado_sin_nombre_74);
        opacity: .91;
      }

      .cls-10 {
        fill: url(#Degradado_sin_nombre_85);
      }

      .cls-42 {
        fill: url(#Degradado_sin_nombre_88-2);
      }

      .cls-7 {
        fill: url(#Degradado_sin_nombre_90-2);
      }

      .cls-14 {
        fill: url(#Degradado_sin_nombre_82-2);
      }

      .cls-35 {
        fill: url(#Degradado_sin_nombre_98);
      }

      .cls-54 {
        fill: url(#Degradado_sin_nombre_75);
        opacity: .82;
      }

      .cls-11 {
        fill: url(#Degradado_sin_nombre_78);
      }

      .cls-55 {
        fill: url(#Degradado_sin_nombre_76);
        opacity: .73;
      }

      .cls-36 {
        fill: url(#Degradado_sin_nombre_86-2);
      }
    </style>
    <linearGradient id="linear-gradient" x1="-17.15" y1="45.22" x2="199.26" y2="131.18" gradientUnits="userSpaceOnUse">
      <stop offset="0" stop-color="#f8fbff"/>
      <stop offset=".34" stop-color="#eef4fd"/>
      <stop offset=".9" stop-color="#d6e3fa"/>
      <stop offset="1" stop-color="#d1e0fa"/>
    </linearGradient>
    <linearGradient id="Degradado_sin_nombre_102" data-name="Degradado sin nombre 102" x1="-15.48" y1="42.65" x2="196.49" y2="133.6" gradientUnits="userSpaceOnUse">
      <stop offset="0" stop-color="#f8fbff"/>
      <stop offset=".33" stop-color="#eff5fd"/>
      <stop offset=".85" stop-color="#d9e5fb"/>
      <stop offset="1" stop-color="#d1e0fa"/>
    </linearGradient>
    <linearGradient id="Degradado_sin_nombre_101" data-name="Degradado sin nombre 101" x1="-13.66" y1="40.19" x2="193.6" y2="135.87" gradientUnits="userSpaceOnUse">
      <stop offset="0" stop-color="#f8fbff"/>
      <stop offset=".32" stop-color="#f0f5fe"/>
      <stop offset=".8" stop-color="#dbe7fb"/>
      <stop offset="1" stop-color="#d1e0fa"/>
    </linearGradient>
    <linearGradient id="Degradado_sin_nombre_100" data-name="Degradado sin nombre 100" x1="-11.7" y1="37.82" x2="190.58" y2="137.97" gradientUnits="userSpaceOnUse">
      <stop offset="0" stop-color="#f8fbff"/>
      <stop offset=".31" stop-color="#f0f6fe"/>
      <stop offset=".77" stop-color="#dde8fb"/>
      <stop offset="1" stop-color="#d1e0fa"/>
    </linearGradient>
    <linearGradient id="Degradado_sin_nombre_99" data-name="Degradado sin nombre 99" x1="-9.61" y1="35.57" x2="187.45" y2="139.91" gradientUnits="userSpaceOnUse">
      <stop offset="0" stop-color="#f8fbff"/>
      <stop offset=".31" stop-color="#f1f6fe"/>
      <stop offset=".74" stop-color="#dfe9fb"/>
      <stop offset="1" stop-color="#d1e0fa"/>
    </linearGradient>
    <linearGradient id="Degradado_sin_nombre_98" data-name="Degradado sin nombre 98" x1="-7.4" y1="33.45" x2="184.22" y2="141.67" gradientUnits="userSpaceOnUse">
      <stop offset="0" stop-color="#f8fbff"/>
      <stop offset=".31" stop-color="#f1f6fe"/>
      <stop offset=".72" stop-color="#e0ebfc"/>
      <stop offset="1" stop-color="#d1e0fa"/>
    </linearGradient>
    <linearGradient id="Degradado_sin_nombre_97" data-name="Degradado sin nombre 97" x1="-5.06" y1="31.44" x2="180.9" y2="143.26" gradientUnits="userSpaceOnUse">
      <stop offset="0" stop-color="#f8fbff"/>
      <stop offset=".3" stop-color="#f2f7fe"/>
      <stop offset=".7" stop-color="#e2ebfc"/>
      <stop offset="1" stop-color="#d1e0fa"/>
    </linearGradient>
    <linearGradient id="Degradado_sin_nombre_96" data-name="Degradado sin nombre 96" x1="-2.62" y1="29.57" x2="177.52" y2="144.67" gradientUnits="userSpaceOnUse">
      <stop offset="0" stop-color="#f8fbff"/>
      <stop offset=".3" stop-color="#f2f7fe"/>
      <stop offset=".68" stop-color="#e3ecfc"/>
      <stop offset="1" stop-color="#d1e0fa"/>
    </linearGradient>
    <linearGradient id="Degradado_sin_nombre_95" data-name="Degradado sin nombre 95" x1="-.08" y1="27.84" x2="174.07" y2="145.9" gradientUnits="userSpaceOnUse">
      <stop offset="0" stop-color="#f8fbff"/>
      <stop offset=".31" stop-color="#f3f7fe"/>
      <stop offset=".67" stop-color="#e4edfc"/>
      <stop offset="1" stop-color="#d1e0fa"/>
    </linearGradient>
    <linearGradient id="Degradado_sin_nombre_94" data-name="Degradado sin nombre 94" x1="2.55" y1="26.25" x2="170.57" y2="146.95" gradientUnits="userSpaceOnUse">
      <stop offset="0" stop-color="#f8fbff"/>
      <stop offset=".31" stop-color="#f3f7fe"/>
      <stop offset=".66" stop-color="#e5eefc"/>
      <stop offset="1" stop-color="#d1e0fa"/>
    </linearGradient>
    <linearGradient id="Degradado_sin_nombre_93" data-name="Degradado sin nombre 93" x1="5.26" y1="24.8" x2="167.03" y2="147.82" gradientUnits="userSpaceOnUse">
      <stop offset="0" stop-color="#f8fbff"/>
      <stop offset=".31" stop-color="#f3f7fe"/>
      <stop offset=".65" stop-color="#e6eefc"/>
      <stop offset="1" stop-color="#d1e0fa"/>
    </linearGradient>
    <linearGradient id="linear-gradient-2" x1="8.05" y1="23.5" x2="163.47" y2="148.51" gradientUnits="userSpaceOnUse">
      <stop offset="0" stop-color="#f8fbff"/>
      <stop offset=".32" stop-color="#f3f8fe"/>
      <stop offset=".65" stop-color="#e7effc"/>
      <stop offset=".98" stop-color="#d2e1fa"/>
      <stop offset="1" stop-color="#d1e0fa"/>
    </linearGradient>
    <linearGradient id="linear-gradient-3" x1="-54.27" y1="29.34" x2="215.74" y2="138.79" gradientUnits="userSpaceOnUse">
      <stop offset="0" stop-color="#dee8f9"/>
      <stop offset="1" stop-color="#f8fbff"/>
    </linearGradient>
    <linearGradient id="linear-gradient-4" x1="-21.37" y1="-17.11" x2="185.64" y2="66.8" gradientUnits="userSpaceOnUse">
      <stop offset="0" stop-color="#f7bd4e"/>
      <stop offset="1" stop-color="#f49554"/>
    </linearGradient>
    <linearGradient id="linear-gradient-5" x1="24.79" y1="128.63" x2="47.54" y2="128.63" gradientUnits="userSpaceOnUse">
      <stop offset="0" stop-color="#fff"/>
      <stop offset=".32" stop-color="#fbfbfd"/>
      <stop offset=".61" stop-color="#eff2f9"/>
      <stop offset=".9" stop-color="#dde3f2"/>
      <stop offset="1" stop-color="#d5ddef"/>
    </linearGradient>
    <linearGradient id="Degradado_sin_nombre_90" data-name="Degradado sin nombre 90" x1="25.25" y1="127.85" x2="47.09" y2="129.41" gradientUnits="userSpaceOnUse">
      <stop offset="0" stop-color="#fff"/>
      <stop offset=".32" stop-color="#fbfbfd"/>
      <stop offset=".62" stop-color="#eff2f9"/>
      <stop offset=".91" stop-color="#dce3f1"/>
      <stop offset="1" stop-color="#d5ddef"/>
    </linearGradient>
    <linearGradient id="Degradado_sin_nombre_89" data-name="Degradado sin nombre 89" x1="25.76" y1="127.13" x2="46.59" y2="130.13" gradientUnits="userSpaceOnUse">
      <stop offset="0" stop-color="#fff"/>
      <stop offset=".31" stop-color="#fbfbfd"/>
      <stop offset=".62" stop-color="#eff2f9"/>
      <stop offset=".91" stop-color="#dce3f1"/>
      <stop offset="1" stop-color="#d5ddef"/>
    </linearGradient>
    <linearGradient id="Degradado_sin_nombre_88" data-name="Degradado sin nombre 88" x1="26.3" y1="126.48" x2="46.06" y2="130.78" gradientUnits="userSpaceOnUse">
      <stop offset="0" stop-color="#fff"/>
      <stop offset=".31" stop-color="#fbfbfd"/>
      <stop offset=".62" stop-color="#eff2f9"/>
      <stop offset=".91" stop-color="#dce2f1"/>
      <stop offset="1" stop-color="#d5ddef"/>
    </linearGradient>
    <linearGradient id="Degradado_sin_nombre_87" data-name="Degradado sin nombre 87" x1="26.88" y1="125.9" x2="45.48" y2="131.36" gradientUnits="userSpaceOnUse">
      <stop offset="0" stop-color="#fff"/>
      <stop offset=".31" stop-color="#fbfbfd"/>
      <stop offset=".62" stop-color="#eff2f9"/>
      <stop offset=".92" stop-color="#dbe2f1"/>
      <stop offset="1" stop-color="#d5ddef"/>
    </linearGradient>
    <linearGradient id="Degradado_sin_nombre_86" data-name="Degradado sin nombre 86" x1="27.49" y1="125.39" x2="44.89" y2="131.88" gradientUnits="userSpaceOnUse">
      <stop offset="0" stop-color="#fff"/>
      <stop offset=".31" stop-color="#fbfbfd"/>
      <stop offset=".62" stop-color="#eff2f9"/>
      <stop offset=".92" stop-color="#dbe2f1"/>
      <stop offset="1" stop-color="#d5ddef"/>
    </linearGradient>
    <linearGradient id="Degradado_sin_nombre_85" data-name="Degradado sin nombre 85" x1="28.11" y1="124.95" x2="44.27" y2="132.33" gradientUnits="userSpaceOnUse">
      <stop offset="0" stop-color="#fff"/>
      <stop offset=".31" stop-color="#fbfbfd"/>
      <stop offset=".62" stop-color="#eff2f8"/>
      <stop offset=".92" stop-color="#dbe2f1"/>
      <stop offset="1" stop-color="#d5ddef"/>
    </linearGradient>
    <linearGradient id="Degradado_sin_nombre_83" data-name="Degradado sin nombre 83" x1="28.74" y1="124.58" x2="43.63" y2="132.71" gradientUnits="userSpaceOnUse">
      <stop offset="0" stop-color="#fff"/>
      <stop offset=".31" stop-color="#fafbfd"/>
      <stop offset=".62" stop-color="#eef1f8"/>
      <stop offset=".93" stop-color="#dae1f1"/>
      <stop offset="1" stop-color="#d5ddef"/>
    </linearGradient>
    <linearGradient id="Degradado_sin_nombre_82" data-name="Degradado sin nombre 82" x1="29.39" y1="124.27" x2="43" y2="133.02" gradientUnits="userSpaceOnUse">
      <stop offset="0" stop-color="#fff"/>
      <stop offset=".31" stop-color="#fafbfd"/>
      <stop offset=".62" stop-color="#eef1f8"/>
      <stop offset=".93" stop-color="#dae1f1"/>
      <stop offset="1" stop-color="#d5ddef"/>
    </linearGradient>
    <linearGradient id="Degradado_sin_nombre_81" data-name="Degradado sin nombre 81" x1="30.03" y1="124.03" x2="42.36" y2="133.26" gradientUnits="userSpaceOnUse">
      <stop offset="0" stop-color="#fff"/>
      <stop offset=".31" stop-color="#fafbfd"/>
      <stop offset=".62" stop-color="#eef1f8"/>
      <stop offset=".93" stop-color="#dae1f0"/>
      <stop offset="1" stop-color="#d5ddef"/>
    </linearGradient>
    <linearGradient id="Degradado_sin_nombre_70" data-name="Degradado sin nombre 70" x1="30.66" y1="123.86" x2="41.72" y2="133.44" gradientUnits="userSpaceOnUse">
      <stop offset="0" stop-color="#fff"/>
      <stop offset=".3" stop-color="#fafbfd"/>
      <stop offset=".62" stop-color="#eef1f8"/>
      <stop offset=".94" stop-color="#d9e0f0"/>
      <stop offset="1" stop-color="#d5ddef"/>
    </linearGradient>
    <linearGradient id="linear-gradient-6" x1="31.29" y1="123.75" x2="41.1" y2="133.56" gradientUnits="userSpaceOnUse">
      <stop offset="0" stop-color="#fff"/>
      <stop offset=".3" stop-color="#fafbfd"/>
      <stop offset=".62" stop-color="#eef1f8"/>
      <stop offset=".94" stop-color="#d9e0f0"/>
      <stop offset="1" stop-color="#d5ddef"/>
    </linearGradient>
    <radialGradient id="radial-gradient" cx="27.02" cy="113.93" fx="27.02" fy="113.93" r="24.35" gradientUnits="userSpaceOnUse">
      <stop offset="0" stop-color="#d5ddef"/>
      <stop offset=".06" stop-color="#d9e0f0"/>
      <stop offset=".38" stop-color="#eef1f8"/>
      <stop offset=".7" stop-color="#fafbfd"/>
      <stop offset="1" stop-color="#fff"/>
    </radialGradient>
    <linearGradient id="linear-gradient-7" y1="93.45" y2="93.45" xlink:href="#linear-gradient-5"/>
    <linearGradient id="Degradado_sin_nombre_90-2" data-name="Degradado sin nombre 90" x1="25.25" y1="92.67" x2="47.09" y2="94.23" xlink:href="#Degradado_sin_nombre_90"/>
    <linearGradient id="Degradado_sin_nombre_89-2" data-name="Degradado sin nombre 89" x1="25.76" y1="91.96" x2="46.59" y2="94.95" xlink:href="#Degradado_sin_nombre_89"/>
    <linearGradient id="Degradado_sin_nombre_88-2" data-name="Degradado sin nombre 88" x1="26.3" y1="91.31" x2="46.06" y2="95.6" xlink:href="#Degradado_sin_nombre_88"/>
    <linearGradient id="Degradado_sin_nombre_87-2" data-name="Degradado sin nombre 87" x1="26.88" y1="90.73" x2="45.48" y2="96.19" xlink:href="#Degradado_sin_nombre_87"/>
    <linearGradient id="Degradado_sin_nombre_86-2" data-name="Degradado sin nombre 86" x1="27.49" y1="90.22" x2="44.89" y2="96.71" xlink:href="#Degradado_sin_nombre_86"/>
    <linearGradient id="Degradado_sin_nombre_85-2" data-name="Degradado sin nombre 85" x1="28.11" y1="89.77" x2="44.27" y2="97.15" xlink:href="#Degradado_sin_nombre_85"/>
    <linearGradient id="Degradado_sin_nombre_83-2" data-name="Degradado sin nombre 83" x1="28.74" y1="89.4" x2="43.63" y2="97.53" xlink:href="#Degradado_sin_nombre_83"/>
    <linearGradient id="Degradado_sin_nombre_82-2" data-name="Degradado sin nombre 82" x1="29.39" y1="89.1" x2="43" y2="97.84" xlink:href="#Degradado_sin_nombre_82"/>
    <linearGradient id="Degradado_sin_nombre_81-2" data-name="Degradado sin nombre 81" x1="30.03" y1="88.86" x2="42.36" y2="98.09" xlink:href="#Degradado_sin_nombre_81"/>
    <linearGradient id="Degradado_sin_nombre_70-2" data-name="Degradado sin nombre 70" x1="30.66" y1="88.69" x2="41.72" y2="98.27" xlink:href="#Degradado_sin_nombre_70"/>
    <linearGradient id="linear-gradient-8" x1="31.29" y1="88.57" x2="41.1" y2="98.39" xlink:href="#linear-gradient-6"/>
    <radialGradient id="radial-gradient-2" cy="78.76" fy="78.76" r="24.35" xlink:href="#radial-gradient"/>
    <linearGradient id="linear-gradient-9" x1="24.58" y1="58.04" x2="47.33" y2="58.04" xlink:href="#linear-gradient-5"/>
    <linearGradient id="Degradado_sin_nombre_92" data-name="Degradado sin nombre 92" x1="25.04" y1="57.26" x2="46.88" y2="58.82" gradientUnits="userSpaceOnUse">
      <stop offset="0" stop-color="#fff"/>
      <stop offset=".32" stop-color="#fbfbfd"/>
      <stop offset=".62" stop-color="#eff2f9"/>
      <stop offset=".91" stop-color="#dce3f1"/>
      <stop offset="1" stop-color="#d5ddef"/>
    </linearGradient>
    <linearGradient id="Degradado_sin_nombre_91" data-name="Degradado sin nombre 91" x1="25.55" y1="56.54" x2="46.39" y2="59.54" gradientUnits="userSpaceOnUse">
      <stop offset="0" stop-color="#fff"/>
      <stop offset=".31" stop-color="#fbfbfd"/>
      <stop offset=".62" stop-color="#eff2f9"/>
      <stop offset=".91" stop-color="#dce3f1"/>
      <stop offset="1" stop-color="#d5ddef"/>
    </linearGradient>
    <linearGradient id="Degradado_sin_nombre_84" data-name="Degradado sin nombre 84" x1="26.09" y1="55.9" x2="45.85" y2="60.19" gradientUnits="userSpaceOnUse">
      <stop offset="0" stop-color="#fff"/>
      <stop offset=".31" stop-color="#fbfbfd"/>
      <stop offset=".62" stop-color="#eff2f9"/>
      <stop offset=".91" stop-color="#dce2f1"/>
      <stop offset="1" stop-color="#d5ddef"/>
    </linearGradient>
    <linearGradient id="Degradado_sin_nombre_80" data-name="Degradado sin nombre 80" x1="26.67" y1="55.32" x2="45.28" y2="60.78" gradientUnits="userSpaceOnUse">
      <stop offset="0" stop-color="#fff"/>
      <stop offset=".31" stop-color="#fbfbfd"/>
      <stop offset=".62" stop-color="#eff2f9"/>
      <stop offset=".92" stop-color="#dbe2f1"/>
      <stop offset="1" stop-color="#d5ddef"/>
    </linearGradient>
    <linearGradient id="Degradado_sin_nombre_79" data-name="Degradado sin nombre 79" x1="27.28" y1="54.8" x2="44.68" y2="61.29" gradientUnits="userSpaceOnUse">
      <stop offset="0" stop-color="#fff"/>
      <stop offset=".31" stop-color="#fbfbfd"/>
      <stop offset=".62" stop-color="#eff2f9"/>
      <stop offset=".92" stop-color="#dbe2f1"/>
      <stop offset="1" stop-color="#d5ddef"/>
    </linearGradient>
    <linearGradient id="Degradado_sin_nombre_78" data-name="Degradado sin nombre 78" x1="27.9" y1="54.36" x2="44.06" y2="61.74" gradientUnits="userSpaceOnUse">
      <stop offset="0" stop-color="#fff"/>
      <stop offset=".31" stop-color="#fbfbfd"/>
      <stop offset=".62" stop-color="#eff2f8"/>
      <stop offset=".92" stop-color="#dbe2f1"/>
      <stop offset="1" stop-color="#d5ddef"/>
    </linearGradient>
    <linearGradient id="Degradado_sin_nombre_77" data-name="Degradado sin nombre 77" x1="28.54" y1="53.99" x2="43.43" y2="62.12" gradientUnits="userSpaceOnUse">
      <stop offset="0" stop-color="#fff"/>
      <stop offset=".31" stop-color="#fafbfd"/>
      <stop offset=".62" stop-color="#eef1f8"/>
      <stop offset=".93" stop-color="#dae1f1"/>
      <stop offset="1" stop-color="#d5ddef"/>
    </linearGradient>
    <linearGradient id="Degradado_sin_nombre_76" data-name="Degradado sin nombre 76" x1="29.18" y1="53.69" x2="42.79" y2="62.43" gradientUnits="userSpaceOnUse">
      <stop offset="0" stop-color="#fff"/>
      <stop offset=".31" stop-color="#fafbfd"/>
      <stop offset=".62" stop-color="#eef1f8"/>
      <stop offset=".93" stop-color="#dae1f1"/>
      <stop offset="1" stop-color="#d5ddef"/>
    </linearGradient>
    <linearGradient id="Degradado_sin_nombre_75" data-name="Degradado sin nombre 75" x1="29.82" y1="53.45" x2="42.15" y2="62.68" gradientUnits="userSpaceOnUse">
      <stop offset="0" stop-color="#fff"/>
      <stop offset=".31" stop-color="#fafbfd"/>
      <stop offset=".62" stop-color="#eef1f8"/>
      <stop offset=".93" stop-color="#dae1f0"/>
      <stop offset="1" stop-color="#d5ddef"/>
    </linearGradient>
    <linearGradient id="Degradado_sin_nombre_74" data-name="Degradado sin nombre 74" x1="30.45" y1="53.27" x2="41.51" y2="62.86" gradientUnits="userSpaceOnUse">
      <stop offset="0" stop-color="#fff"/>
      <stop offset=".3" stop-color="#fafbfd"/>
      <stop offset=".62" stop-color="#eef1f8"/>
      <stop offset=".94" stop-color="#d9e0f0"/>
      <stop offset="1" stop-color="#d5ddef"/>
    </linearGradient>
    <linearGradient id="linear-gradient-10" x1="31.08" y1="53.16" x2="40.89" y2="62.97" xlink:href="#linear-gradient-6"/>
    <radialGradient id="radial-gradient-3" cx="26.81" cy="43.35" fx="26.81" fy="43.35" r="24.35" xlink:href="#radial-gradient"/>
  </defs>
  <g id="Capa_1-2" data-name="Capa 1">
    <g>
      <g>
        <g>
          <rect class="cls-3" width="171.98" height="172.38" rx="9.48" ry="9.48"/>
          <rect class="cls-6" x="1.11" y="1.14" width="169.76" height="170.11" rx="9" ry="9"/>
          <rect class="cls-28" x="2.22" y="2.27" width="167.55" height="167.84" rx="8.51" ry="8.51"/>
          <rect class="cls-41" x="3.33" y="3.41" width="165.33" height="165.57" rx="8.02" ry="8.02"/>
          <rect class="cls-21" x="4.43" y="4.54" width="163.11" height="163.29" rx="7.53" ry="7.53"/>
          <rect class="cls-35" x="5.54" y="5.68" width="160.89" height="161.02" rx="7.05" ry="7.05"/>
          <rect class="cls-8" x="6.65" y="6.82" width="158.68" height="158.75" rx="6.56" ry="6.56"/>
          <rect class="cls-24" x="7.76" y="7.95" width="156.46" height="156.48" rx="6.07" ry="6.07"/>
          <rect class="cls-13" x="8.87" y="9.09" width="154.24" height="154.21" rx="5.59" ry="5.59"/>
          <rect class="cls-44" x="9.98" y="10.22" width="152.02" height="151.93" rx="5.1" ry="5.1"/>
          <rect class="cls-16" x="11.09" y="11.36" width="149.81" height="149.66" rx="4.61" ry="4.61"/>
          <rect class="cls-19" x="12.2" y="12.5" width="147.59" height="147.39" rx="4.13" ry="4.13"/>
        </g>
        <path class="cls-39" d="M14.26,12.5h143.45c1.14,0,2.07.93,2.07,2.07v143.25c0,1.14-.93,2.07-2.07,2.07H14.26c-1.14,0-2.07-.93-2.07-2.07V14.56c0-1.14.93-2.07,2.07-2.07Z"/>
        <path class="cls-32" d="M14.27,12.5h143.45c1.14,0,2.07.93,2.07,2.07v25.09H12.2V14.56c0-1.14.93-2.07,2.07-2.07Z"/>
      </g>
      <g>
        <rect class="cls-33" x="35.56" y="63.96" width="1.22" height="1.22"/>
        <path class="cls-33" d="M36.78,126.55h-1.22v-2.36h1.22v2.36ZM36.78,121.83h-1.22v-2.36h1.22v2.36ZM36.78,117.11h-1.22v-2.36h1.22v2.36ZM36.78,112.39h-1.22v-2.36h1.22v2.36ZM36.78,107.67h-1.22v-2.36h1.22v2.36ZM36.78,102.95h-1.22v-2.36h1.22v2.36ZM36.78,98.23h-1.22v-2.36h1.22v2.36ZM36.78,93.5h-1.22v-2.36h1.22v2.36ZM36.78,88.78h-1.22v-2.36h1.22v2.36ZM36.78,84.06h-1.22v-2.36h1.22v2.36ZM36.78,79.34h-1.22v-2.36h1.22v2.36ZM36.78,74.62h-1.22v-2.36h1.22v2.36ZM36.78,69.9h-1.22v-2.36h1.22v2.36Z"/>
        <rect class="cls-33" x="35.56" y="128.91" width="1.22" height="1.22"/>
      </g>
      <path class="cls-27" d="M144.87,22.81l-3.72,4.72c-.08.1,0,.26.12.26h7.43c.13,0,.21-.15.12-.26l-3.72-4.72c-.06-.08-.18-.08-.25,0Z"/>
      <g>
        <g>
          <path class="cls-4" d="M47.54,128.63c0-6.28-5.09-11.37-11.38-11.37s-11.38,5.09-11.38,11.37,5.09,11.38,11.38,11.38,11.38-5.09,11.38-11.38Z"/>
          <path class="cls-5" d="M47.19,128.63c0-6.09-4.94-11.03-11.03-11.03s-11.03,4.94-11.03,11.03,4.94,11.03,11.03,11.03,11.03-4.94,11.03-11.03Z"/>
          <path class="cls-29" d="M46.84,128.63c0-5.9-4.78-10.68-10.68-10.68s-10.68,4.78-10.68,10.68,4.78,10.68,10.68,10.68,10.68-4.78,10.68-10.68Z"/>
          <path class="cls-40" d="M46.5,128.63c0-5.7-4.63-10.33-10.33-10.33s-10.33,4.63-10.33,10.33,4.63,10.33,10.33,10.33,10.33-4.63,10.33-10.33Z"/>
          <path class="cls-22" d="M46.15,128.63c0-5.51-4.47-9.98-9.98-9.98s-9.98,4.47-9.98,9.98,4.47,9.98,9.98,9.98,9.98-4.47,9.98-9.98Z"/>
          <path class="cls-34" d="M45.8,128.63c0-5.32-4.31-9.63-9.63-9.63s-9.63,4.31-9.63,9.63,4.31,9.63,9.63,9.63,9.63-4.31,9.63-9.63Z"/>
          <path class="cls-10" d="M45.45,128.63c0-5.13-4.16-9.28-9.29-9.28s-9.29,4.16-9.29,9.28,4.16,9.29,9.29,9.29,9.29-4.16,9.29-9.29Z"/>
          <path class="cls-26" d="M45.1,128.63c0-4.93-4-8.94-8.94-8.94s-8.94,4-8.94,8.94,4,8.94,8.94,8.94,8.94-4,8.94-8.94Z"/>
          <path class="cls-12" d="M44.75,128.63c0-4.74-3.84-8.59-8.59-8.59s-8.59,3.85-8.59,8.59,3.85,8.59,8.59,8.59,8.59-3.85,8.59-8.59Z"/>
          <path class="cls-45" d="M44.4,128.63c0-4.55-3.69-8.24-8.24-8.24s-8.24,3.69-8.24,8.24,3.69,8.24,8.24,8.24,8.24-3.69,8.24-8.24Z"/>
          <path class="cls-18" d="M44.06,128.63c0-4.36-3.53-7.89-7.89-7.89s-7.89,3.53-7.89,7.89,3.53,7.89,7.89,7.89,7.89-3.53,7.89-7.89Z"/>
          <path class="cls-49" d="M43.71,128.63c0-4.16-3.38-7.54-7.54-7.54s-7.54,3.38-7.54,7.54,3.38,7.54,7.54,7.54,7.54-3.38,7.54-7.54Z"/>
        </g>
        <path class="cls-37" d="M42.82,131.61c1.65-3.68,0-8-3.67-9.64-3.68-1.65-7.99,0-9.64,3.67-1.65,3.68,0,8,3.67,9.64,3.68,1.65,8,0,9.64-3.67Z"/>
      </g>
      <g>
        <g>
          <path class="cls-2" d="M47.54,93.45c0-6.28-5.09-11.38-11.38-11.38s-11.38,5.09-11.38,11.38,5.09,11.38,11.38,11.38,11.38-5.09,11.38-11.38Z"/>
          <path class="cls-7" d="M47.19,93.45c0-6.09-4.94-11.03-11.03-11.03s-11.03,4.94-11.03,11.03,4.94,11.03,11.03,11.03,11.03-4.94,11.03-11.03Z"/>
          <path class="cls-30" d="M46.84,93.45c0-5.9-4.78-10.68-10.68-10.68s-10.68,4.78-10.68,10.68,4.78,10.68,10.68,10.68,10.68-4.78,10.68-10.68Z"/>
          <path class="cls-42" d="M46.5,93.45c0-5.7-4.63-10.33-10.33-10.33s-10.33,4.63-10.33,10.33,4.63,10.33,10.33,10.33,10.33-4.63,10.33-10.33Z"/>
          <path class="cls-23" d="M46.15,93.45c0-5.51-4.47-9.98-9.98-9.98s-9.98,4.47-9.98,9.98,4.47,9.98,9.98,9.98,9.98-4.47,9.98-9.98Z"/>
          <path class="cls-36" d="M45.8,93.45c0-5.32-4.31-9.63-9.63-9.63s-9.63,4.31-9.63,9.63,4.31,9.63,9.63,9.63,9.63-4.31,9.63-9.63Z"/>
          <path class="cls-9" d="M45.45,93.45c0-5.13-4.16-9.29-9.29-9.29s-9.29,4.16-9.29,9.29,4.16,9.29,9.29,9.29,9.29-4.16,9.29-9.29Z"/>
          <path class="cls-25" d="M45.1,93.45c0-4.93-4-8.94-8.94-8.94s-8.94,4-8.94,8.94,4,8.94,8.94,8.94,8.94-4,8.94-8.94Z"/>
          <path class="cls-14" d="M44.75,93.45c0-4.74-3.84-8.59-8.59-8.59s-8.59,3.85-8.59,8.59,3.85,8.59,8.59,8.59,8.59-3.85,8.59-8.59Z"/>
          <path class="cls-46" d="M44.4,93.45c0-4.55-3.69-8.24-8.24-8.24s-8.24,3.69-8.24,8.24,3.69,8.24,8.24,8.24,8.24-3.69,8.24-8.24Z"/>
          <path class="cls-17" d="M44.06,93.45c0-4.36-3.53-7.89-7.89-7.89s-7.89,3.53-7.89,7.89,3.53,7.89,7.89,7.89,7.89-3.53,7.89-7.89Z"/>
          <path class="cls-43" d="M43.71,93.45c0-4.16-3.38-7.54-7.54-7.54s-7.54,3.38-7.54,7.54,3.38,7.54,7.54,7.54,7.54-3.38,7.54-7.54Z"/>
        </g>
        <path class="cls-47" d="M42.82,96.44c1.65-3.68,0-8-3.67-9.64-3.68-1.65-7.99,0-9.64,3.67-1.65,3.68,0,8,3.67,9.65,3.68,1.65,8,0,9.64-3.67Z"/>
      </g>
      <g>
        <g>
          <path class="cls-1" d="M47.33,58.04c0-6.28-5.09-11.38-11.38-11.38s-11.38,5.09-11.38,11.38,5.09,11.38,11.38,11.38,11.38-5.09,11.38-11.38Z"/>
          <path class="cls-31" d="M46.99,58.04c0-6.09-4.94-11.03-11.03-11.03s-11.03,4.94-11.03,11.03,4.94,11.03,11.03,11.03,11.03-4.94,11.03-11.03Z"/>
          <path class="cls-15" d="M46.64,58.04c0-5.9-4.78-10.68-10.68-10.68s-10.68,4.78-10.68,10.68,4.78,10.68,10.68,10.68,10.68-4.78,10.68-10.68Z"/>
          <path class="cls-50" d="M46.29,58.04c0-5.7-4.63-10.33-10.33-10.33s-10.33,4.63-10.33,10.33,4.63,10.33,10.33,10.33,10.33-4.63,10.33-10.33Z"/>
          <path class="cls-51" d="M45.94,58.04c0-5.51-4.47-9.98-9.98-9.98s-9.98,4.47-9.98,9.98,4.47,9.98,9.98,9.98,9.98-4.47,9.98-9.98Z"/>
          <path class="cls-52" d="M45.59,58.04c0-5.32-4.31-9.63-9.63-9.63s-9.63,4.31-9.63,9.63,4.31,9.63,9.63,9.63,9.63-4.31,9.63-9.63Z"/>
          <path class="cls-11" d="M45.24,58.04c0-5.13-4.16-9.29-9.29-9.29s-9.29,4.16-9.29,9.29,4.16,9.29,9.29,9.29,9.29-4.16,9.29-9.29Z"/>
          <path class="cls-48" d="M44.89,58.04c0-4.93-4-8.94-8.94-8.94s-8.94,4-8.94,8.94,4,8.94,8.94,8.94,8.94-4,8.94-8.94Z"/>
          <path class="cls-55" d="M44.55,58.04c0-4.74-3.84-8.59-8.59-8.59s-8.59,3.85-8.59,8.59,3.85,8.59,8.59,8.59,8.59-3.85,8.59-8.59Z"/>
          <path class="cls-54" d="M44.2,58.04c0-4.55-3.69-8.24-8.24-8.24s-8.24,3.69-8.24,8.24,3.69,8.24,8.24,8.24,8.24-3.69,8.24-8.24Z"/>
          <path class="cls-53" d="M43.85,58.04c0-4.36-3.53-7.89-7.89-7.89s-7.89,3.53-7.89,7.89,3.53,7.89,7.89,7.89,7.89-3.53,7.89-7.89Z"/>
          <path class="cls-20" d="M43.5,58.04c0-4.16-3.38-7.54-7.54-7.54s-7.54,3.38-7.54,7.54,3.38,7.54,7.54,7.54,7.54-3.38,7.54-7.54Z"/>
        </g>
        <path class="cls-38" d="M42.61,61.03c1.65-3.68,0-8-3.67-9.64-3.68-1.65-7.99,0-9.64,3.67-1.65,3.68,0,8,3.67,9.65,3.68,1.65,8,0,9.64-3.67Z"/>
      </g>
    </g>
  </g>
</svg>