<?xml version="1.0" encoding="UTF-8"?>
<svg id="Capa_2" data-name="Capa 2" xmlns="http://www.w3.org/2000/svg" xmlns:xlink="http://www.w3.org/1999/xlink" viewBox="0 0 177.53 191">
  <defs>
    <style>
      .cls-1 {
        fill: url(#linear-gradient-2);
      }

      .cls-2 {
        fill: #fff;
      }

      .cls-3 {
        fill: url(#linear-gradient);
      }
    </style>
    <linearGradient id="linear-gradient" x1="86.97" y1="222.53" x2="86.97" y2="125.43" gradientUnits="userSpaceOnUse">
      <stop offset=".05" stop-color="#5ea5dd"/>
      <stop offset=".31" stop-color="#00fff4" stop-opacity=".53"/>
      <stop offset=".33" stop-color="#14fff4" stop-opacity=".49"/>
      <stop offset=".46" stop-color="#79fff9" stop-opacity=".28"/>
      <stop offset=".57" stop-color="#c1fffc" stop-opacity=".13"/>
      <stop offset=".66" stop-color="#eefffe" stop-opacity=".03"/>
      <stop offset=".71" stop-color="#fff" stop-opacity="0"/>
    </linearGradient>
    <linearGradient id="linear-gradient-2" x1="402.51" y1="-99.21" x2="402.51" y2="-206.9" gradientTransform="translate(491.27 -134.18) rotate(-180)" xlink:href="#linear-gradient"/>
  </defs>
  <g id="Capa_1-2" data-name="Capa 1">
    <g>
      <g>
        <path class="cls-2" d="M148.58,50.92c63.62,86.6-33.06,183.06-119.85,119.59-1.28-.94-2.41-2.07-3.35-3.34C-38.25,80.57,58.43-15.9,145.22,47.58c1.28.94,2.41,2.07,3.35,3.34Z"/>
        <path class="cls-3" d="M148.58,50.92c63.62,86.6-33.06,183.06-119.85,119.59-1.28-.94-2.41-2.07-3.35-3.34C-38.25,80.57,58.43-15.9,145.22,47.58c1.28.94,2.41,2.07,3.35,3.34Z"/>
      </g>
      <ellipse class="cls-1" cx="88.76" cy="90.89" rx="88.76" ry="90.89"/>
    </g>
  </g>
</svg>